<?xml version="1.0" standalone="no"?>
<!DOCTYPE svg PUBLIC "-//W3C//DTD SVG 20010904//EN"
 "http://www.w3.org/TR/2001/REC-SVG-20010904/DTD/svg10.dtd">
<svg version="1.0" xmlns="http://www.w3.org/2000/svg"
 width="512.000000pt" height="512.000000pt" viewBox="0 0 512.000000 512.000000"
 preserveAspectRatio="xMidYMid meet">
<metadata>
Created by potrace 1.16, written by Peter Selinger 2001-2019
</metadata>
<g transform="translate(0.000000,512.000000) scale(0.100000,-0.100000)"
fill="#000000" stroke="none">
<path fill="#000000" d="M1274 4575 c-253 -55 -471 -245 -556 -485 -33 -94 -33 -266 0 -362
63 -181 229 -341 417 -401 58 -18 93 -22 200 -22 119 1 137 3 215 31 47 17 92
34 102 38 14 6 13 -2 -8 -51 -85 -211 -93 -480 -22 -702 29 -91 29 -96 14
-128 -9 -19 -16 -58 -16 -89 0 -139 127 -266 415 -411 61 -30 109 -59 108 -63
-2 -5 -20 -35 -40 -67 -21 -33 -56 -96 -78 -142 -31 -64 -37 -86 -29 -99 8
-13 4 -30 -17 -73 -72 -145 -64 -197 46 -305 45 -45 86 -76 111 -84 39 -13 54
-25 54 -46 0 -6 -32 -15 -71 -21 -39 -7 -75 -15 -80 -20 -4 -4 47 -8 114 -8
109 0 127 -3 166 -23 110 -59 201 -187 201 -284 0 -64 -27 -115 -92 -173 -84
-75 -144 -99 -265 -103 -113 -5 -151 4 -213 49 -62 45 -94 120 -87 207 3 37 8
76 12 88 6 21 6 21 -60 7 -114 -23 -188 -72 -224 -146 -27 -57 -28 -126 -1
-160 l21 -26 -48 -4 c-26 -2 45 -4 158 -4 196 -1 207 -2 250 -24 l44 -24 560
0 c559 0 560 0 612 23 47 20 69 22 230 23 98 1 162 4 143 8 -28 5 -32 8 -19
16 42 26 54 116 24 179 -10 20 -41 57 -69 84 -34 31 -58 64 -70 96 -25 65 -73
116 -145 155 -69 36 -194 71 -258 71 -57 0 -53 16 11 41 27 10 57 26 68 36 23
20 90 105 131 166 45 68 34 140 -42 251 -13 20 -18 39 -14 58 4 22 -9 53 -67
154 -41 70 -69 129 -64 134 5 4 56 29 114 55 286 128 400 242 399 400 0 39 -6
72 -18 95 -18 34 -18 36 -1 81 32 80 50 193 50 313 0 132 -16 220 -63 345
l-33 89 65 -26 c58 -23 81 -26 187 -27 119 0 120 0 198 38 183 91 289 280 272
483 -14 174 -104 350 -256 505 -134 135 -241 204 -390 250 -199 61 -402 -1
-518 -157 -62 -83 -84 -151 -90 -269 -5 -117 11 -192 64 -299 19 -38 32 -71
30 -73 -2 -3 -26 7 -53 20 -143 72 -298 107 -478 107 -188 0 -333 -33 -489
-111 -62 -32 -77 -36 -71 -22 59 153 79 293 55 406 -35 169 -174 327 -352 398
-114 46 -277 60 -394 34z m2286 -86 c99 -27 189 -76 286 -153 75 -60 162 -146
119 -117 -11 8 -4 -1 16 -20 19 -19 26 -27 15 -19 -15 11 -13 6 7 -20 50 -68
99 -186 104 -253 4 -52 -1 -80 -31 -171 -56 -169 -139 -272 -273 -338 -35 -17
-82 -33 -105 -35 -24 -3 -49 -10 -57 -17 -12 -9 -13 -8 -6 3 6 11 4 13 -7 8
-9 -3 -21 0 -27 6 -6 6 -11 8 -11 4 0 -5 -21 8 -46 28 -26 19 -53 36 -60 36
-8 1 -17 2 -21 3 -12 2 -49 35 -150 134 -53 52 -92 88 -88 80 5 -7 4 -10 -1
-5 -5 5 -9 12 -9 16 0 5 -8 19 -18 32 -9 13 -38 52 -62 87 -25 34 -50 60 -55
57 -5 -3 -7 1 -4 9 4 9 -1 18 -10 22 -9 3 -13 10 -10 15 3 5 1 9 -4 9 -21 0
-44 125 -41 221 3 80 9 104 35 159 94 198 289 282 514 219z m-2011 -42 c30
-11 70 -35 90 -53 l36 -33 -50 25 c-98 48 -226 51 -373 8 -45 -13 -52 -17 -41
-30 6 -8 14 -12 16 -10 9 9 235 -73 245 -88 4 -6 8 -8 8 -4 0 13 209 -97 230
-122 10 -12 65 -48 75 -49 17 -1 17 -101 0 -176 -48 -219 -200 -376 -416 -431
-143 -37 -276 1 -380 107 -147 149 -175 355 -77 556 46 96 176 225 278 276
116 58 244 67 359 24z m2551 -408 c16 -31 30 -61 30 -65 0 -5 -15 18 -33 51
-18 33 -43 76 -56 95 l-23 35 26 -30 c14 -16 39 -55 56 -86z m67 -201 c-3 -8
-6 -5 -6 6 -1 11 2 17 5 13 3 -3 4 -12 1 -19z m-1859 -114 c64 -32 123 -98
169 -189 l36 -70 32 70 c37 78 69 124 109 156 30 23 96 50 108 43 3 -2 -20
-32 -53 -65 -79 -84 -177 -280 -180 -362 0 -12 -8 6 -18 40 -43 149 -134 275
-233 321 -69 32 -167 31 -234 -3 -193 -96 -315 -343 -313 -635 0 -58 4 -132 8
-164 l7 -59 -28 34 c-47 57 -71 132 -71 229 0 112 23 202 86 329 78 160 182
256 357 328 77 31 151 30 218 -3z m698 -55 c101 -48 210 -171 262 -294 55
-130 67 -199 67 -390 0 -136 -5 -200 -18 -263 -24 -107 -62 -220 -84 -244 -21
-23 -16 -23 43 4 67 29 153 30 191 2 94 -71 51 -217 -95 -324 -37 -27 -85 -59
-107 -71 l-40 -23 46 54 c26 30 52 65 58 78 8 14 18 21 27 18 21 -8 17 21 -6
44 -26 26 -62 40 -103 40 -27 -1 -29 -2 -14 -11 12 -7 16 -17 11 -32 -5 -18
-4 -20 7 -9 17 16 48 15 55 -2 18 -48 -118 -176 -261 -247 -123 -61 -208 -85
-347 -101 -234 -25 -478 33 -701 166 -74 44 -157 127 -157 157 0 10 10 25 22
33 21 15 24 14 50 -11 31 -30 36 -25 12 12 -14 21 -14 24 2 33 27 15 -2 25
-40 12 -53 -17 -80 -52 -73 -95 5 -31 4 -34 -12 -26 -31 17 -102 101 -122 144
-10 23 -19 55 -19 70 0 40 28 84 62 98 39 16 142 6 201 -20 26 -11 47 -18 47
-16 0 2 -19 17 -43 34 -35 24 -51 46 -80 110 -64 139 -81 230 -82 426 0 137 4
182 19 235 45 155 133 291 232 357 102 68 227 57 314 -28 80 -78 146 -209 177
-355 l16 -74 23 88 c63 253 172 413 303 448 56 15 78 11 157 -27z m143 -22
c106 -63 229 -206 287 -331 35 -77 64 -200 64 -273 0 -49 -7 -81 -29 -131 -16
-37 -37 -95 -46 -130 -15 -52 -22 -63 -44 -69 -14 -3 -30 -11 -34 -17 -5 -6
-6 -3 -3 9 29 112 34 370 10 496 -38 204 -146 380 -286 471 -27 16 -48 32 -48
34 0 8 74 -26 129 -59z m22 46 c13 -16 12 -17 -3 -4 -17 13 -22 21 -14 21 2 0
10 -8 17 -17z m996 -25 c-3 -7 -5 -2 -5 12 0 14 2 19 5 13 2 -7 2 -19 0 -25z
m-35 -113 c-42 -88 -109 -157 -195 -200 -38 -19 -79 -35 -91 -34 -13 0 -5 5
19 13 114 36 207 116 255 218 17 35 30 70 31 78 0 10 2 11 6 2 2 -7 -9 -41
-25 -77z m-324 -242 c-10 -2 -28 -2 -40 0 -13 2 -5 4 17 4 22 1 32 -1 23 -4z
m-1367 -1459 c87 -73 134 -71 258 8 l34 21 -17 -25 c-38 -57 -133 -103 -192
-92 -36 7 -93 50 -124 94 -29 40 -11 38 41 -6z m124 -14 c3 -5 -3 -10 -14 -10
-12 0 -21 5 -21 10 0 6 6 10 14 10 8 0 18 -4 21 -10z m-336 -187 c-29 -54 -63
-127 -75 -161 -16 -46 -24 -59 -28 -45 -6 19 3 58 25 108 15 34 120 195 126
195 3 0 -19 -44 -48 -97z m909 -1 c-14 -16 -20 -3 -32 58 l-7 35 25 -39 c20
-31 23 -43 14 -54z m-169 -36 c63 -88 92 -149 78 -162 -3 -3 -20 1 -38 9 -31
13 -37 23 -73 123 -49 134 -51 140 -43 134 3 -3 37 -49 76 -104z m-520 20 c66
-35 81 -116 33 -181 -50 -66 -121 -75 -179 -21 -36 34 -42 110 -11 156 40 58
99 75 157 46z m737 -102 c35 -66 50 -114 34 -114 -5 0 -10 8 -10 18 0 9 -18
48 -40 86 -44 75 -46 80 -28 74 7 -3 26 -31 44 -64z m-915 -122 c171 -84 394
-83 592 2 l81 36 -37 -31 c-42 -35 -51 -77 -17 -86 18 -5 16 -9 -18 -35 -36
-29 -84 -59 -70 -43 13 14 -54 55 -90 55 -50 0 -92 -48 -92 -105 0 -42 0 -42
-41 -48 -56 -7 -92 7 -84 32 8 26 -18 85 -46 105 -35 24 -57 20 -96 -19 -19
-19 -41 -35 -48 -35 -7 0 -29 13 -49 29 l-36 29 25 20 c36 29 31 55 -17 97
-48 41 -48 41 43 -3z m770 -13 c40 -43 55 -99 41 -147 -10 -34 -10 -35 4 -17
24 32 27 59 10 100 -21 50 -20 53 9 25 30 -28 34 -83 9 -118 -22 -31 -93 -82
-114 -82 -14 0 -18 11 -22 58 -5 71 -25 113 -61 130 -36 17 -34 26 10 57 50
33 79 32 114 -6z m-842 7 c15 -8 33 -22 41 -31 11 -13 9 -20 -12 -43 -37 -40
-48 -65 -48 -115 0 -41 -2 -45 -21 -40 -71 19 -78 179 -10 230 20 15 17 16 50
-1z m251 -141 c42 -45 21 -127 -37 -141 -21 -6 -31 -2 -50 20 -31 37 -31 89 2
121 31 32 55 32 85 0z m317 3 c61 -57 -4 -171 -82 -142 -20 8 -45 56 -45 87 0
66 79 100 127 55z m346 -214 c284 -64 367 -274 180 -458 -26 -27 -70 -60 -98
-74 -100 -53 -299 -27 -415 53 -95 66 -70 188 53 255 60 33 69 43 32 34 -102
-24 -175 -105 -175 -194 0 -37 -4 -37 -47 -4 -48 37 -67 78 -60 135 14 118 96
221 199 252 72 21 239 21 331 1z m-531 -143 l-17 -39 -17 36 c-10 19 -18 37
-18 39 0 2 15 3 34 3 l35 0 -17 -39z m-745 -125 c-27 -70 -13 -161 35 -227 16
-22 27 -43 24 -47 -11 -10 -82 17 -118 45 -95 73 -90 169 10 223 45 23 56 25
49 6z m1601 -128 c-4 -40 -12 -56 -44 -89 -33 -34 -83 -59 -121 -59 -6 0 15
25 48 56 32 32 69 78 81 104 13 26 27 45 32 42 4 -2 6 -27 4 -54z m-813 -17
c80 -75 119 -104 186 -141 l54 -29 -40 7 c-53 9 -407 9 -470 -1 l-49 -7 59 36
c70 41 145 112 171 160 10 19 20 34 22 34 3 0 33 -26 67 -59z"/>
<path fill="#000000" d="M2106 3219 c-91 -80 -118 -325 -56 -510 59 -173 120 -231 182 -172
54 50 81 125 82 226 1 85 0 90 -27 113 -70 60 -153 -3 -181 -138 l-13 -63 -17
55 c-27 83 -33 271 -11 345 22 77 72 130 113 120 58 -14 118 -103 140 -210 30
-142 24 -262 -19 -384 -23 -67 -40 -86 -109 -121 -30 -16 -64 -36 -75 -45 -18
-14 -16 -14 20 1 276 114 531 111 840 -10 72 -28 85 -31 65 -15 -29 25 -115
68 -183 94 -26 10 -52 26 -58 36 -5 10 -17 65 -25 121 -22 145 -12 302 31 488
3 14 -6 3 -20 -24 -15 -26 -33 -78 -41 -115 -17 -82 -18 -291 0 -388 11 -69
11 -73 -6 -73 -16 0 -18 9 -18 68 0 174 -98 289 -175 206 -36 -39 -50 -90 -49
-180 l1 -81 -66 -6 c-36 -4 -77 -10 -90 -13 -21 -6 -23 -4 -18 12 35 112 47
177 47 261 0 241 -91 433 -204 433 -14 0 -41 -14 -60 -31z m164 -404 c15 -18
9 -50 -9 -50 -19 0 -36 29 -28 49 8 20 21 21 37 1z"/>
<path fill="#000000" d="M2970 3243 c-34 -13 -81 -70 -100 -120 -25 -67 -26 -102 -1 -48 23
52 68 104 98 116 34 13 85 -11 111 -52 39 -64 55 -146 54 -269 -1 -67 -8 -138
-16 -170 -9 -30 -13 -40 -11 -21 11 75 -37 161 -88 161 -57 0 -116 -86 -117
-170 0 -57 26 -109 67 -135 44 -27 41 -39 -7 -32 -45 6 -45 -4 0 -23 43 -18
82 1 119 59 116 183 118 533 3 660 -36 41 -79 57 -112 44z m75 -494 c4 -12 2
-26 -4 -32 -15 -15 -46 16 -38 37 9 23 34 20 42 -5z"/>
<path fill="#000000" d="M2460 2461 c-53 -10 -107 -32 -135 -56 -17 -14 -17 -16 -2 -11 99 31
148 38 247 33 65 -3 130 -13 170 -26 35 -11 66 -19 68 -17 7 8 -55 44 -100 60
-57 19 -187 28 -248 17z"/>
<path fill="#000000" d="M2392 2371 c-77 -26 -132 -86 -132 -141 0 -105 170 -200 332 -187
266 22 323 243 84 327 -74 26 -210 27 -284 1z m306 -77 c12 -8 22 -23 22 -33
0 -32 -44 -39 -113 -20 -72 20 -57 69 22 69 26 0 56 -7 69 -16z"/>
<path fill="#000000" d="M3284 1206 c37 -19 94 -54 125 -77 l56 -42 -45 47 c-45 47 -119 90
-175 101 -19 4 -5 -7 39 -29z"/>
<path fill="#000000" d="M1870 1221 c-58 -18 -160 -83 -160 -103 0 -5 15 2 33 16 17 13 68 39
112 56 44 18 82 34 84 36 7 7 -43 3 -69 -5z"/>
<path fill="#000000" d="M1872 989 c-23 -12 -52 -35 -64 -52 l-22 -30 39 26 c22 15 68 36 102
48 35 11 63 23 63 25 0 13 -81 1 -118 -17z"/>
<path fill="#000000" d="M2229 840 c13 -11 31 -20 40 -20 12 0 10 5 -9 20 -34 27 -63 26 -31
0z"/>
<path fill="#000000" d="M2392 755 c18 -31 23 -56 23 -108 0 -64 1 -66 12 -38 17 41 1 116
-33 156 l-24 30 22 -40z"/>
</g>
</svg>