<?xml version="1.0" encoding="UTF-8"?>
<!DOCTYPE svg PUBLIC "-//W3C//DTD SVG 1.1//EN" "http://www.w3.org/Graphics/SVG/1.1/DTD/svg11.dtd">
<!-- Creator: CorelDRAW 2021 (64-Bit) -->
<svg  width="193.32mm" height="202.864mm" version="1.1" viewBox="0 0 19327.66 20281.78">
    <g id="Layer_x0020_1">
        <g>
            <path fill="black" d="M9395.23 22.44c337.61,-25.66 711.7,-14.48 1041.19,60.31 82.37,18.71 153.29,67.82 235.56,84.86 217.59,45.05 441.88,62.32 660.67,107.45 741.19,152.85 1494.21,445.51 2108.01,892.08 655.62,477.02 1188.74,1162.98 1512.84,1905.1 429.64,983.85 649.3,2085.59 813.23,3141.99 70.36,453.6 85.94,940.7 232.81,1377 77.61,230.56 178.92,456.36 270.53,681.95 0,0 645.35,1549.42 645.35,1549.42 0,0 1666.81,4029.12 1666.81,4029.12 0,0 544.87,1283.57 544.87,1283.57 61.91,149.09 169.88,335.15 188.95,494.87 5.93,49.55 -3.83,107.72 -38.35,145.86 -109.62,121.21 -491.83,-106.55 -619.09,-158.31 -307.77,-125.2 -632.98,-206.59 -955.61,-282.81 -1173.88,-277.32 -2369.89,-371.07 -3573.53,-343.98 81.33,103.4 158.82,209.6 232.47,318.62 130.8,196.97 316.5,562.43 505.43,687.41 60.44,39.97 171.3,60.03 243.33,70.92 193.21,29.28 394.4,31.47 589.25,52.64 473.99,51.67 945.42,120.83 1414.28,207.49 431.09,83.4 864.88,188 1283.89,319.44 213.2,66.89 421.8,148.8 634.54,217.78 -568.72,86.26 -1195.7,320.29 -1730.35,534.76 -597.89,236.97 -1181.77,504.52 -1751.62,802.65 -313.12,161.78 -618.56,338.14 -929.91,503.26 -1484.24,787.06 -2897.41,1450.51 -4602.95,1554.68 -300.41,23.04 -614.54,7.28 -914.66,-17.33 -2758.59,-225.93 -4977.62,-2091.98 -7513.56,-2995.59 -432.89,-154.25 -882.89,-307.03 -1338.2,-378.34 308.41,-79.44 611.48,-180.25 919.83,-260.98 366.37,-98.99 735.51,-186.17 1107.45,-261.56 371.94,-75.37 745.91,-138.79 1121.91,-190.25 322.96,-44.97 644.37,-87.74 970.43,-101.98 328.86,-300.47 568.98,-651.07 676.54,-1086.1 -214.58,-6.45 -434.08,7.81 -648.82,13.89 -1131.04,32.14 -2296.19,150.52 -3378.31,496.12 -249.18,79.59 -476.27,187.26 -717.12,286.77 -64.45,26.61 -154.04,55.21 -220.22,18.87 -30.02,-16.49 -69.12,-63.41 -72.48,-98.8 -6.85,-71.77 47.57,-190.73 74.76,-257.25 361.81,-885.1 757.86,-1757.26 1128.98,-2638.78 0,0 1621.95,-3899.18 1621.95,-3899.18 116.42,-277.12 230.57,-555.16 342.45,-834.15 84.43,-207.3 180.38,-414.25 233.36,-632.4 86.69,-356.87 104.28,-739.23 162.28,-1102.8 231.12,-1448.63 506.83,-3013.5 1402.98,-4217.27 884.01,-1187.45 2224.25,-1733.72 3650.02,-1925.28 102.88,-13.84 183.45,-65.74 281.49,-92.64 155.16,-42.61 326.13,-50.68 486.35,-63.06zm-4471.16 12042.62c102.82,97.08 191.7,249.04 271.88,367.03 335.83,494.26 656.3,1009.92 907.02,1553.41 35.19,76.28 299.82,596.51 165.29,627.3 -89.38,-223.71 -216.64,-441.49 -328.46,-655.04 -197.94,-380.49 -399.67,-758.97 -605.2,-1135.41 -137.21,-250.11 -288.22,-499.69 -410.54,-757.28zm5524.6 -387.79c90.09,19.38 178.92,43.49 266.48,72.32 87.54,28.81 173.3,62.19 257.3,100.12 652.26,287.3 1228.95,773.42 1494.42,1450.14 -77.18,-72.42 -139.48,-204.26 -202.43,-292.87 -159.24,-224.16 -386.29,-429.64 -609.39,-587.38 -291.39,-205.98 -630.7,-403.93 -965.27,-527.3 -62.06,-22.88 -159.92,-44.47 -207.54,-88.33 -33.64,-31.02 -30.92,-84.27 -33.56,-126.7zm-1586.64 -19.05c87.04,-12.34 38.16,84.69 23.01,131.49 -197.82,93.38 -404.25,167.76 -599.96,266.38 -624.12,314.46 -1064.16,785.58 -1343.95,1422.34 -5.55,10.35 -1.58,5.61 -12.96,13.28 28.93,-184.87 131.65,-392.86 222.25,-555.91 361.13,-650.09 1006.33,-1075.77 1711.6,-1277.57zm5570.39 353.9c-4.47,38.68 -1232.68,2405.59 -1317.46,2529.96 0,0 -1.16,-14.18 -1.16,-14.18 0,0 -15.22,24.25 -15.22,24.25 0,0 -12.41,1.96 -12.41,1.96 0,0 -23.06,-36.21 -23.06,-36.21 1.32,-118.21 79.99,-258.25 127.13,-366.61 303.54,-697.46 773.45,-1546.06 1242.18,-2139.18zm-9500.73 -1497.91c10.71,5.85 13.78,6.88 24.04,16.27 104.78,96 203.6,271.98 288.98,389.01 150.73,206.53 292.03,416.04 410.05,643.52 385.69,743.5 597.06,1684.36 607.02,2517.98 -61.95,-168.05 -74.64,-422.1 -111.41,-603.77 -75.95,-360.25 -170.29,-715.62 -283.02,-1066.11 -141.12,-441.18 -341.66,-863.83 -571.82,-1265.14 -117.23,-204.44 -256.61,-405.78 -357.56,-618.16 0,0 -6.29,-13.6 -6.29,-13.6zm9421.11 108.93c-1.56,24.86 -603.8,1182.5 -666.1,1322.2 -191.7,429.84 -341.02,897.58 -440.83,1357.87 -62.11,286.33 -101.34,592.8 -189.64,871.42 0,0 -3.65,11.11 -3.65,11.11 -0.85,-4.55 -1.96,-9.07 -2.54,-13.68 -23.48,-185.32 32.14,-430.29 58.76,-615.89 127.23,-886.73 368.08,-1564.89 838.72,-2328.25 127.02,-206.01 256.72,-413.48 405.28,-604.78zm-2089.85 -3180.71c22.64,-1.16 44.84,-2.09 67.51,-2.06 395.93,0.45 743.65,97.21 1027.67,383.87 442.89,447.02 584.71,1167.77 581.82,1775.73 -6.8,8.78 -13.76,17.48 -21.27,25.68 -22.72,24.8 -40.26,50.73 -74.22,53.22 16.06,-259.58 -11.54,-499.21 -61,-753.47 -86.32,-443.5 -297.14,-927.47 -686.49,-1185.62 -375.34,-248.8 -911.49,-215.5 -1331.85,-127.21 -435.83,91.53 -1100.1,336.9 -1348.63,735.38 -132.95,213.17 -205.4,930.01 -149.03,1164.93 34.17,142.45 129.77,211.04 246.21,284.72 517.33,283.41 1618.54,364.19 2202.61,296.47 325.89,-37.77 632.95,-120.25 948.08,-209.47 -309.12,176.41 -628.99,275.39 -983.21,314.01 -576,62.86 -1840.68,-25.39 -2295.11,-407.18 -133.27,-111.97 -178.5,-250.5 -190.12,-419.27 -23.35,-339.09 -3.81,-962.92 225.99,-1222.28 400.72,-452.32 1259.4,-673.27 1841.02,-707.45zm-5450.74 -26.6c57.03,-6.11 116.91,-6.88 174.24,-6.64 556.68,2.24 1504.37,296.76 1896.26,697.73 72.66,74.33 135.49,164.1 160.93,266.11 172.19,788.01 195.54,1441.79 -685.69,1682.71 -577.96,193.45 -1458.58,248.52 -2060.69,129.59 -218.55,-43.17 -421.86,-115.27 -620.94,-214.55 233.66,49.86 463.4,109.07 700.69,141.18 730.03,98.77 1535.48,23.01 2218.35,-253.49 540.86,-233.7 514.98,-856.47 371.4,-1381.24 -28.28,-103.33 -76.74,-188.66 -150.12,-266.72 -386.15,-410.89 -1282.92,-678.35 -1833.92,-692.73 -197,-5.16 -409.3,12.72 -590.26,96.87 -535,248.7 -798.36,1029.42 -873.91,1566.8 -6.93,49.23 -18.36,361.13 -29.54,378.69 -4.82,7.54 -13.02,12.28 -19.53,18.41 -32.96,2.41 -55.87,3.87 -88.22,-5.21 -4.28,-17.49 -7.7,-33.41 -8.97,-51.42 -8.33,-118.19 21.62,-250.77 41.11,-367.69 80.07,-480.03 210.5,-907.69 525.37,-1290.4 242.57,-294.81 496.43,-412.9 873.43,-448zm4528.59 842.58c124.03,-7.32 213.52,11.09 319.07,79.36 179.27,115.94 325.37,342.08 363.7,551.69 21.27,116.26 7.3,233.61 -62.41,331.59 -165.35,232.36 -525.69,264.34 -784.47,304.76 -214.66,39.2 -433.05,84.67 -651.04,98.45 30.84,-298.06 109.17,-669.37 260.5,-928.53 128.24,-219.6 306.13,-372.98 554.65,-437.31zm-3351.7 56.67c193.35,2.7 382.71,56.37 522.67,196.86 261.41,262.43 338.72,686.57 337.11,1041.27 -109.8,5.45 -219.61,5.8 -329.44,1.06 -109.84,-4.77 -219.2,-14.61 -328.12,-29.52 -217.07,-33.22 -503.55,-78.64 -679.36,-217.07 -6.82,-5.33 -13.52,-10.82 -20.08,-16.48 -6.58,-5.66 -13.01,-11.49 -19.29,-17.47 -6.26,-5.98 -12.38,-12.1 -18.36,-18.38 -5.98,-6.28 -11.8,-12.7 -17.46,-19.27 -5.66,-6.56 -11.17,-13.25 -16.51,-20.08 -5.33,-6.84 -10.49,-13.8 -15.48,-20.87 -4.99,-7.09 -9.81,-14.3 -14.44,-21.62 -4.64,-7.32 -9.1,-14.75 -13.37,-22.29 -4.27,-7.55 -8.35,-15.19 -12.25,-22.91 -3.9,-7.74 -7.6,-15.58 -11.11,-23.51 -3.53,-7.92 -6.84,-15.92 -9.95,-23.99 -3.12,-8.09 -6.05,-16.25 -8.78,-24.46 -2.72,-8.24 -5.23,-16.53 -7.54,-24.86 -2.31,-8.36 -4.42,-16.78 -6.33,-25.23 -1.9,-8.45 -3.59,-16.94 -5.08,-25.47 -1.48,-8.54 -2.75,-17.11 -3.81,-25.71 -15.92,-138.37 32.46,-274.6 119.99,-381.23 139.59,-170 344.8,-242.04 556.92,-258.75zm4456.24 2373.56c585.85,-73.61 1056.72,-143.53 1485.01,-591.29 -882.29,449.61 -2185.95,439.51 -3118,136.39 -249.94,-81.31 -453,-177.57 -637.16,-366.79 70.46,298.51 102.48,606.5 143.06,910.27 330.44,12.44 660.83,48.02 990.27,76.58 390.14,33.86 780.42,62.86 1169.81,105.18 309.25,33.62 618.72,86.34 929.22,104.91 -170.59,-70.99 -342,-128.85 -519.71,-179.03 0,0 -304.63,-84.06 -304.63,-84.06l-137.87 -112.16zm0 0c0,0 -302.29,21.67 -302.29,21.67 0,0 440.16,90.5 440.16,90.5l-137.87 -112.16zm-3361.61 -768.02c41.47,151.47 -10.42,767.42 -47.74,929.17 -324.68,39.94 -643.3,26.53 -970.97,52.93 -372.37,32.39 -744.4,68.13 -1116.13,107.22 -336.66,33.85 -715.28,94.99 -1051.17,44.54 121.66,-32.19 246.77,-47.85 368.67,-82.74 227.68,-65.16 447.45,-152.34 679.12,-204.29 0,0 -494.19,-105.57 -494.19,-105.57 -453.47,-104.76 -828.69,-260.45 -1210.56,-529.52 525.29,187.33 763.18,308.06 1352.58,329.81 578.7,21.38 1544.26,-22.85 2069.47,-252.57 160.35,-70.12 293.49,-170.35 420.91,-288.96zm2866 5181.17c0,0 4.47,2.62 4.47,2.62 0,0 -0.08,15.32 -0.08,15.32 -373.67,250.98 -729.19,532.73 -1087.61,804.95 -185.25,140.68 -376.02,273.68 -562.45,412.71 -208.73,155.7 -419.04,349.07 -647.53,471.38 -174.26,-101.5 -334,-244.15 -494.63,-366.84 0,0 -776.87,-582.04 -776.87,-582.04 -319.39,-238.73 -647.95,-477.09 -950.97,-735.98 488.47,-40.55 1001.64,-4.07 1493.95,-2.96 1007.3,2.28 2014.54,-4.11 3021.73,-19.16zm-4181.82 99.76c616.79,-12.3 1235.69,10 1852.91,7.35 0,0 6.03,1422.22 6.03,1422.22 -83.48,-45.42 -336.42,-264.05 -436.33,-338.86 -315.79,-235.06 -629.41,-472.98 -940.86,-713.79 -161.07,-123.9 -329.02,-242.94 -481.75,-376.91zm3457.56 6.16c126.05,-4.87 252.7,-4.31 378.85,-5.98 -146.71,124.35 -317.88,224.8 -471.8,341.05 -413.25,312.17 -822.88,626.1 -1242.34,930.2 -66.32,51.29 -128.66,108.09 -191.86,163.18 7.3,-475.77 3.68,-952.17 3.23,-1428.01 507.94,-4.76 1015.95,8.79 1523.92,-0.45zm-763.92 -14639.31c663.08,54.26 1370.55,237.76 1977.39,510.18 1958.62,879.33 2512.58,2895.51 2853.97,4831.31 93.88,532.33 125.09,1080.08 246.58,1606.01 74.07,320.55 195.2,624.59 310.9,931.68 0,0 -81.95,-133.51 -81.95,-133.51 -63.68,-127.02 -123.74,-255.74 -180.2,-386.15 -56.43,-130.41 -109.16,-262.31 -158.18,-395.7 -49.01,-133.37 -94.23,-268.02 -135.67,-403.95 -41.42,-135.91 -79,-272.89 -112.74,-410.94 -90.07,-369.39 -142.76,-747.49 -218.7,-1119.87 -119.06,-583.62 -288.22,-1182.12 -523.15,-1730.32 -410.33,-957.6 -1090.79,-1793.81 -2081.3,-2184.63 -622.58,-245.63 -1285.95,-270.85 -1904.81,-0.82 0,0 7.86,-1113.3 7.86,-1113.3zm-1582.46 -2.2c24.71,24.97 13.84,981.97 13.71,1103.3 -419.35,-139 -821.74,-227.62 -1265.37,-162.91 -592.04,86.34 -1132.42,385.25 -1577.91,775.47 -1189.16,1041.69 -1521.81,2608.17 -1816.22,4090.25 -121.75,612.93 -211.8,1213.83 -593.99,1729.56 0,0 -114.48,128.27 -114.48,128.27 341.6,-683.51 334.09,-1117.88 447.02,-1838.8 200.72,-1281.46 501.96,-2928.18 1299.79,-3978.62 19.18,-25.32 38.61,-50.44 58.33,-75.34 19.7,-24.91 39.66,-49.61 59.89,-74.09 20.24,-24.49 40.71,-48.77 61.46,-72.82 20.74,-24.05 41.72,-47.88 62.96,-71.49 21.25,-23.61 42.74,-47 64.47,-70.15 21.75,-23.17 43.72,-46.11 65.95,-68.8 22.2,-22.67 44.65,-45.13 67.34,-67.37 22.69,-22.21 45.62,-44.19 68.77,-65.92 23.15,-21.75 46.54,-43.23 70.15,-64.47 23.61,-21.26 47.45,-42.24 71.5,-62.99 24.05,-20.74 48.32,-41.22 72.79,-61.45 24.49,-20.23 49.19,-40.2 74.09,-59.92 24.91,-19.7 50.03,-39.14 75.33,-58.33 25.32,-19.17 50.85,-38.07 76.55,-56.72 25.73,-18.64 51.65,-37 77.74,-55.1 26.1,-18.1 52.4,-35.9 78.88,-53.43 26.47,-17.54 53.14,-34.79 79.99,-51.77 26.84,-16.97 53.86,-33.66 81.05,-50.08 27.19,-16.4 54.57,-32.51 82.11,-48.33 27.52,-15.82 55.22,-31.35 83.08,-46.61 27.86,-15.24 55.89,-30.18 84.07,-44.84 28.18,-14.64 56.52,-28.97 85.02,-43.03 28.47,-14.06 57.1,-27.8 85.86,-41.24 28.78,-13.46 57.7,-26.6 86.74,-39.44 29.06,-12.84 58.25,-25.36 87.55,-37.56 29.31,-12.22 58.76,-24.13 88.33,-35.74 29.57,-11.6 59.26,-22.88 89.06,-33.85 29.8,-10.97 59.73,-21.64 89.76,-31.98 30.03,-10.34 60.17,-20.36 90.41,-30.05 30.22,-9.72 60.57,-19.11 91.02,-28.17 30.44,-9.05 60.97,-17.79 91.58,-26.21 30.63,-8.41 61.35,-16.51 92.14,-24.28 364.01,-94.64 741.43,-144.03 1113.48,-194.93zm3821.18 13957.95c31.35,-1.08 62.06,-1.16 93.41,0.16 130.62,5.48 246.34,41.93 335.17,143.67 85.39,97.82 119.09,229.74 104.81,357.5 -25.84,231.01 -180.33,318.38 -312.48,482.68 -60.79,75.59 -109.07,161.06 -169.38,237.54 -98.16,122.86 -202.96,239.77 -314.44,350.71 -111.46,110.92 -228.88,215.15 -352.24,312.69 -735.74,573.7 -1772.07,1066.98 -2722.2,944.86 -1001.83,-128.75 -2182.75,-849.95 -2795.09,-1644.89 -225.24,-292.33 -463.32,-510.55 -413.59,-892.29 96.19,-0.08 65.82,268.56 148.67,384.35 61.11,85.38 151.76,139.37 255.6,153.93 145.68,20.45 298.07,-27.62 413.11,-116.28 154.9,105.36 300.53,229.76 450.01,343.05 0,0 807.7,606.5 807.7,606.5 479.61,362.95 971.91,710.54 1446.63,1079.58 0,0 1443.21,-1090.47 1443.21,-1090.47 340.65,-259.71 890.73,-717.07 1263.59,-888.51 11.68,4.5 23.37,8.93 35.1,13.31 163.77,61 338.7,96.58 503.69,16.01 92.32,-45.08 162.81,-122.71 195.06,-220.67 33.94,-103.14 22.09,-221.93 -30.23,-316.85 -82.32,-149.22 -231.12,-211.77 -386.1,-256.56zm-2716.34 -4122.41c31.81,23.38 61.72,49 89.7,76.84 28,27.86 53.78,57.64 77.32,89.33 427.99,576.29 101.97,1035.61 335.99,1531.98 146.05,309.76 428.82,558.46 635.13,830.08 139.24,183.29 1037.25,1528.73 1059.12,1712.36 5.98,50.1 -16.27,107.14 -49.92,143.72 -34.78,37.85 -74.69,49.36 -124.03,56.37 -251.8,35.92 -532.17,14.16 -786.93,14.45 0,0 -1475.62,1.13 -1475.62,1.13 0,0 -1643.91,-1.48 -1643.91,-1.48 -164.61,0.29 -663.29,27.14 -798.09,-11.43 -58.28,-16.67 -107.7,-66.97 -136.45,-118.77 -72,-129.74 14.05,-256.05 86.66,-362.16 303.99,-444.05 588.73,-901.39 901.69,-1339.57 194.53,-272.38 644.45,-728.85 748.6,-1008.87 50.68,-136.31 79.3,-296.26 78.85,-441.67 -15.8,-543.99 300.38,-1678.83 1001.88,-1172.31zm-2297.78 4286.26c-91.79,3.52 -304.26,35.76 -380.36,-13.34 -24.99,-82.87 24.15,-178.63 62.91,-251.11 104.09,-194.8 239.79,-379.64 363.25,-562.61 197.73,-293.06 394.85,-586.16 606.52,-869.43 174.05,-232.94 546.96,-633.72 638.46,-893.41 197.87,-503.6 -75.86,-1375.4 620.62,-1574.81 308.9,-88.45 611.98,233.55 683.69,517.17 86.58,342.56 -11.05,700.46 88.81,1040.71 101.28,345.12 598.82,835.92 821.92,1162.69 251.53,368.38 480.82,754.13 709.27,1137.1 48.56,81.42 147.6,223.45 102.24,316.8 -20.09,8.81 -367.13,12.47 -398.53,-11.19 -14.13,-65.53 -16.62,-130.36 -19.72,-197.05 -55.92,-162.52 -188.39,-289.33 -312.98,-402.1 0,0 0,609.27 0,609.27 0,0 -385.12,0.5 -385.12,0.5 0.72,-332.37 12.86,-669.16 -0.1,-1001 -105.84,-127.85 -214.9,-255.93 -327.59,-377.71 -2.68,460.19 -2.94,920.34 -0.77,1380.5 0,0 -377.07,-1.11 -377.07,-1.11 0,0 -1.64,-940.34 -1.64,-940.34 0.18,-220.87 33.11,-504.39 -27.7,-718.31 -27.74,-97.67 -97.21,-179.93 -168.44,-249.92 -45.66,-43.96 -91.94,-87.25 -138.85,-129.85 0,0 10.45,2036.67 10.45,2036.67 0,0 -386.04,-0.13 -386.04,-0.13 0.34,-662.63 22.5,-1340.96 -1.35,-2001.95 -175.09,154.44 -297.99,265.96 -313.33,513.02 -30.53,492.33 4.36,994.05 -4.5,1487.59 -128.45,-3.04 -256.96,-7.27 -385.44,-5.31 0.56,-461.44 8.79,-922.79 4.53,-1384.23 -112.26,127.85 -222.27,257.62 -330.02,389.32 -2.33,335.22 -2.25,670.43 0.23,1005.61 0,0 -375.15,0.24 -375.15,0.24 0,0 -0.74,-631.16 -0.74,-631.16 -108.41,139.46 -306,313.52 -361.37,477.2 -15.26,45.13 -15.24,94.52 -16.08,141.66zm2002.07 -3949.77c13.68,2.2 14.74,0.72 26.4,9.63 119.66,91.29 452.94,751.07 463.74,903.22 6.22,87.46 -16.54,176.94 -77.13,242.34 -100.31,108.22 -254.26,115.51 -391.68,120.38 -60.85,-0.05 -123.14,-0.85 -183.69,-6.59 -106.69,-10.13 -215.11,-50.18 -281.85,-137.81 -61.38,-80.58 -67.13,-177.95 -54.1,-274.87 43.78,-325.21 239.34,-657.32 498.31,-856.3zm-230.14 -10279.31c290.87,-37.56 603.19,3.79 892.53,40.63 0,0 15.51,4536.45 15.51,4536.45 -1.03,681.52 24.07,1375.23 -15.64,2054.79 93.45,-124.46 192.51,-244.31 297.17,-359.54 506.01,-549.92 1263.86,-987.15 2024.02,-1012.62 747.28,-25.05 1296.88,339.86 1819.66,832.08 -532.99,-272.17 -1071,-428.49 -1673.53,-427.07 -109.41,0.27 -234.72,-5.76 -340.71,18.9 0,0 2.49,5.74 2.49,5.74 93.88,6.19 188.03,10.71 280.35,29.88 395.64,82.16 766.17,302.12 1074.68,557.8 1272.7,1054.84 1830.11,2788.11 2327.54,4303.3 225.03,685.41 447.52,1374.41 700.22,2050.19 56.56,154.94 117.46,308.16 182.73,459.67 65.25,151.51 134.73,301.02 208.44,448.58 73.73,147.55 151.59,292.89 233.55,436.04 81.99,143.14 167.95,283.85 257.89,422.09 -259.4,-246.21 -503.37,-535.26 -697.45,-836.1 -151.1,-234.24 -274.7,-487.97 -393.37,-739.74 -269.12,-570.92 -464.13,-1164.22 -661.83,-1762.25 -97.83,-295.97 -202.86,-589.71 -298.6,-886.34 -185.16,-573.78 -364.22,-1136.55 -623.88,-1682.98 -386.7,-813.84 -862.16,-1527.09 -1752.49,-1838.86 -1052.75,-368.61 -2188.88,82.98 -3137.3,542.23 -11.48,-364.73 -6.06,-731.28 -7.17,-1096.24 0,0 -0.32,-2153.14 -0.32,-2153.14 0.51,-661.94 30.79,-1354.46 -88.19,-2008 -39.62,-217.76 -113.1,-410.65 -223.55,-601.84 -53.25,-66.6 -115.96,-144.43 -209.74,-146.26 -36.71,-0.71 -71.68,15.87 -98.48,40.1 -209.13,189.08 -300.42,770.99 -332.4,1046.8 -69.98,603.48 -43.77,1227.73 -46.16,1835.32 -4.04,1021.7 -2.54,2041.67 -20.21,3063.34 -773.66,-354.46 -1592.51,-676.97 -2460.43,-644.82 -655.52,24.28 -1260.31,328.51 -1696.82,812.75 -613.22,680.25 -945.73,1667.69 -1244.53,2517.87 -181.1,515.71 -355.41,1033.71 -522.94,1553.99 -127.34,390.7 -247.88,782.28 -408.87,1160.81 -36.21,85.04 -74.22,169.25 -114.04,252.65 -39.8,83.39 -81.37,165.91 -124.72,247.54 -43.34,81.61 -88.42,162.26 -135.22,241.96 -46.8,79.67 -95.29,158.32 -145.47,235.96 -50.17,77.59 -101.98,154.1 -155.43,229.5 -53.45,75.39 -108.49,149.6 -165.11,222.62 -56.65,73.03 -114.81,144.82 -174.5,215.38 -59.72,70.53 -120.91,139.76 -183.58,207.67 130.7,-247.88 267.72,-491.32 388.13,-744.68 229.21,-482.25 420.12,-984.77 601.55,-1486.62 376.86,-1042.35 694.69,-2100.32 1106.53,-3130.66 106.07,-265.42 206.35,-539.18 330.81,-796.38 276.88,-572.11 639.04,-1151.94 1059.1,-1630.44 426.04,-485.29 1056.85,-910.7 1715.86,-953.55 -6.01,-1.93 -11.93,-4.02 -17.99,-5.82 -84.09,-25.23 -204.63,-15.27 -294.33,-14.63 -35.91,0.35 -71.8,1.27 -107.7,2.75 -35.87,1.48 -71.71,3.52 -107.53,6.11 -35.81,2.61 -71.58,5.77 -107.29,9.48 -35.73,3.7 -71.38,7.97 -106.96,12.8 -35.58,4.82 -71.08,10.19 -106.5,16.11 -35.42,5.95 -70.74,12.43 -105.97,19.45 -35.2,7.04 -70.29,14.61 -105.28,22.72 -34.97,8.13 -69.82,16.8 -104.55,26 -34.7,9.21 -69.25,18.96 -103.67,29.25 -34.38,10.28 -68.61,21.11 -102.69,32.45 -34.07,11.34 -67.95,23.22 -101.66,35.63 -33.7,12.42 -67.19,25.35 -100.49,38.81 -33.29,13.44 -66.37,27.4 -99.23,41.9 -32.85,14.48 -65.48,29.46 -97.87,44.97 -32.4,15.5 -64.54,31.5 -96.42,48.01 -31.9,16.49 -63.54,33.48 -94.89,50.97 168.63,-188.89 360.39,-365.94 569.41,-509.36 454.56,-311.87 984.77,-411.81 1524.38,-306.95 810.47,157.47 1575.12,654.48 2038.39,1340.11 -10.83,-2188.46 -10.15,-4376.88 2.04,-6565.27 150.67,-30.44 307.61,-48.01 460.69,-59.95zm3238 14166.95c145.86,0 264.09,118.23 264.09,264.09 0,145.86 -118.23,264.09 -264.09,264.09 -145.86,0 -264.09,-118.23 -264.09,-264.09 0,-145.86 118.23,-264.09 264.09,-264.09zm-6079.04 32.32c145.86,0 264.09,118.23 264.09,264.09 0,145.86 -118.23,264.09 -264.09,264.09 -145.86,0 -264.09,-118.23 -264.09,-264.09 0,-145.86 118.23,-264.09 264.09,-264.09zm2557.34 904.38c63.39,0 114.77,51.39 114.77,114.77 0,63.39 -51.39,114.77 -114.77,114.77 -63.39,0 -114.77,-51.39 -114.77,-114.77 0,-63.39 51.39,-114.77 114.77,-114.77zm934.17 -10.18c63.39,0 114.77,51.39 114.77,114.77 0,63.39 -51.39,114.77 -114.77,114.77 -63.39,0 -114.77,-51.39 -114.77,-114.77 0,-63.39 51.39,-114.77 114.77,-114.77zm-830.61 -7379.56c0,0 789.07,0 789.07,0 0,0 0,227.49 0,227.49 0,0 -789.07,0 -789.07,0 0,0 0,-227.49 0,-227.49zm32.62 764.06c0,0 703.23,0 703.23,0 0,0 0,227.49 0,227.49 0,0 -703.23,0 -703.23,0 0,0 0,-227.49 0,-227.49zm-42.98 -365.14c0,0 789.07,0 789.07,0 0,0 0,227.49 0,227.49 0,0 -789.07,0 -789.07,0 0,0 0,-227.49 0,-227.49zm54.48 1113.59c0,0 703.23,0 703.23,0 0,0 0,63.31 0,63.31 0,0 -703.23,0 -703.23,0 0,0 0,-63.31 0,-63.31zm9.77 -363.13c0,0 703.23,0 703.23,0 0,0 0,227.49 0,227.49 0,0 -703.23,0 -703.23,0 0,0 0,-227.49 0,-227.49z"/>
            <path id="_1" fill="none" stroke="black" stroke-width="20"  d="M9395.23 22.44c337.61,-25.66 711.7,-14.48 1041.19,60.31 82.37,18.71 153.29,67.82 235.56,84.86 217.59,45.05 441.88,62.32 660.67,107.45 741.19,152.85 1494.21,445.51 2108.01,892.08 655.62,477.02 1188.74,1162.98 1512.84,1905.1 429.64,983.85 649.3,2085.59 813.23,3141.99 70.36,453.6 85.94,940.7 232.81,1377 77.61,230.56 178.92,456.36 270.53,681.95 0,0 645.35,1549.42 645.35,1549.42 0,0 1666.81,4029.12 1666.81,4029.12 0,0 544.87,1283.57 544.87,1283.57 61.91,149.09 169.88,335.15 188.95,494.87 5.93,49.55 -3.83,107.72 -38.35,145.86 -109.62,121.21 -491.83,-106.55 -619.09,-158.31 -307.77,-125.2 -632.98,-206.59 -955.61,-282.81 -1173.88,-277.32 -2369.89,-371.07 -3573.53,-343.98 81.33,103.4 158.82,209.6 232.47,318.62 130.8,196.97 316.5,562.43 505.43,687.41 60.44,39.97 171.3,60.03 243.33,70.92 193.21,29.28 394.4,31.47 589.25,52.64 473.99,51.67 945.42,120.83 1414.28,207.49 431.09,83.4 864.88,188 1283.89,319.44 213.2,66.89 421.8,148.8 634.54,217.78 -568.72,86.26 -1195.7,320.29 -1730.35,534.76 -597.89,236.97 -1181.77,504.52 -1751.62,802.65 -313.12,161.78 -618.56,338.14 -929.91,503.26 -1484.24,787.06 -2897.41,1450.51 -4602.95,1554.68 -300.41,23.04 -614.54,7.28 -914.66,-17.33 -2758.59,-225.93 -4977.62,-2091.98 -7513.56,-2995.59 -432.89,-154.25 -882.89,-307.03 -1338.2,-378.34 308.41,-79.44 611.48,-180.25 919.83,-260.98 366.37,-98.99 735.51,-186.17 1107.45,-261.56 371.94,-75.37 745.91,-138.79 1121.91,-190.25 322.96,-44.97 644.37,-87.74 970.43,-101.98 328.86,-300.47 568.98,-651.07 676.54,-1086.1 -214.58,-6.45 -434.08,7.81 -648.82,13.89 -1131.04,32.14 -2296.19,150.52 -3378.31,496.12 -249.18,79.59 -476.27,187.26 -717.12,286.77 -64.45,26.61 -154.04,55.21 -220.22,18.87 -30.02,-16.49 -69.12,-63.41 -72.48,-98.8 -6.85,-71.77 47.57,-190.73 74.76,-257.25 361.81,-885.1 757.86,-1757.26 1128.98,-2638.78 0,0 1621.95,-3899.18 1621.95,-3899.18 116.42,-277.12 230.57,-555.16 342.45,-834.15 84.43,-207.3 180.38,-414.25 233.36,-632.4 86.69,-356.87 104.28,-739.23 162.28,-1102.8 231.12,-1448.63 506.83,-3013.5 1402.98,-4217.27 884.01,-1187.45 2224.25,-1733.72 3650.02,-1925.28 102.88,-13.84 183.45,-65.74 281.49,-92.64 155.16,-42.61 326.13,-50.68 486.35,-63.06zm-4471.16 12042.62c102.82,97.08 191.7,249.04 271.88,367.03 335.83,494.26 656.3,1009.92 907.02,1553.41 35.19,76.28 299.82,596.51 165.29,627.3 -89.38,-223.71 -216.64,-441.49 -328.46,-655.04 -197.94,-380.49 -399.67,-758.97 -605.2,-1135.41 -137.21,-250.11 -288.22,-499.69 -410.54,-757.28zm5524.6 -387.79c90.09,19.38 178.92,43.49 266.48,72.32 87.54,28.81 173.3,62.19 257.3,100.12 652.26,287.3 1228.95,773.42 1494.42,1450.14 -77.18,-72.42 -139.48,-204.26 -202.43,-292.87 -159.24,-224.16 -386.29,-429.64 -609.39,-587.38 -291.39,-205.98 -630.7,-403.93 -965.27,-527.3 -62.06,-22.88 -159.92,-44.47 -207.54,-88.33 -33.64,-31.02 -30.92,-84.27 -33.56,-126.7zm-1586.64 -19.05c87.04,-12.34 38.16,84.69 23.01,131.49 -197.82,93.38 -404.25,167.76 -599.96,266.38 -624.12,314.46 -1064.16,785.58 -1343.95,1422.34 -5.55,10.35 -1.58,5.61 -12.96,13.28 28.93,-184.87 131.65,-392.86 222.25,-555.91 361.13,-650.09 1006.33,-1075.77 1711.6,-1277.57zm5570.39 353.9c-4.47,38.68 -1232.68,2405.59 -1317.46,2529.96 0,0 -1.16,-14.18 -1.16,-14.18 0,0 -15.22,24.25 -15.22,24.25 0,0 -12.41,1.96 -12.41,1.96 0,0 -23.06,-36.21 -23.06,-36.21 1.32,-118.21 79.99,-258.25 127.13,-366.61 303.54,-697.46 773.45,-1546.06 1242.18,-2139.18zm-9500.73 -1497.91c10.71,5.85 13.78,6.88 24.04,16.27 104.78,96 203.6,271.98 288.98,389.01 150.73,206.53 292.03,416.04 410.05,643.52 385.69,743.5 597.06,1684.36 607.02,2517.98 -61.95,-168.05 -74.64,-422.1 -111.41,-603.77 -75.95,-360.25 -170.29,-715.62 -283.02,-1066.11 -141.12,-441.18 -341.66,-863.83 -571.82,-1265.14 -117.23,-204.44 -256.61,-405.78 -357.56,-618.16 0,0 -6.29,-13.6 -6.29,-13.6zm9421.11 108.93c-1.56,24.86 -603.8,1182.5 -666.1,1322.2 -191.7,429.84 -341.02,897.58 -440.83,1357.87 -62.11,286.33 -101.34,592.8 -189.64,871.42 0,0 -3.65,11.11 -3.65,11.11 -0.85,-4.55 -1.96,-9.07 -2.54,-13.68 -23.48,-185.32 32.14,-430.29 58.76,-615.89 127.23,-886.73 368.08,-1564.89 838.72,-2328.25 127.02,-206.01 256.72,-413.48 405.28,-604.78zm-2089.85 -3180.71c22.64,-1.16 44.84,-2.09 67.51,-2.06 395.93,0.45 743.65,97.21 1027.67,383.87 442.89,447.02 584.71,1167.77 581.82,1775.73 -6.8,8.78 -13.76,17.48 -21.27,25.68 -22.72,24.8 -40.26,50.73 -74.22,53.22 16.06,-259.58 -11.54,-499.21 -61,-753.47 -86.32,-443.5 -297.14,-927.47 -686.49,-1185.62 -375.34,-248.8 -911.49,-215.5 -1331.85,-127.21 -435.83,91.53 -1100.1,336.9 -1348.63,735.38 -132.95,213.17 -205.4,930.01 -149.03,1164.93 34.17,142.45 129.77,211.04 246.21,284.72 517.33,283.41 1618.54,364.19 2202.61,296.47 325.89,-37.77 632.95,-120.25 948.08,-209.47 -309.12,176.41 -628.99,275.39 -983.21,314.01 -576,62.86 -1840.68,-25.39 -2295.11,-407.18 -133.27,-111.97 -178.5,-250.5 -190.12,-419.27 -23.35,-339.09 -3.81,-962.92 225.99,-1222.28 400.72,-452.32 1259.4,-673.27 1841.02,-707.45zm-5450.74 -26.6c57.03,-6.11 116.91,-6.88 174.24,-6.64 556.68,2.24 1504.37,296.76 1896.26,697.73 72.66,74.33 135.49,164.1 160.93,266.11 172.19,788.01 195.54,1441.79 -685.69,1682.71 -577.96,193.45 -1458.58,248.52 -2060.69,129.59 -218.55,-43.17 -421.86,-115.27 -620.94,-214.55 233.66,49.86 463.4,109.07 700.69,141.18 730.03,98.77 1535.48,23.01 2218.35,-253.49 540.86,-233.7 514.98,-856.47 371.4,-1381.24 -28.28,-103.33 -76.74,-188.66 -150.12,-266.72 -386.15,-410.89 -1282.92,-678.35 -1833.92,-692.73 -197,-5.16 -409.3,12.72 -590.26,96.87 -535,248.7 -798.36,1029.42 -873.91,1566.8 -6.93,49.23 -18.36,361.13 -29.54,378.69 -4.82,7.54 -13.02,12.28 -19.53,18.41 -32.96,2.41 -55.87,3.87 -88.22,-5.21 -4.28,-17.49 -7.7,-33.41 -8.97,-51.42 -8.33,-118.19 21.62,-250.77 41.11,-367.69 80.07,-480.03 210.5,-907.69 525.37,-1290.4 242.57,-294.81 496.43,-412.9 873.43,-448zm4528.59 842.58c124.03,-7.32 213.52,11.09 319.07,79.36 179.27,115.94 325.37,342.08 363.7,551.69 21.27,116.26 7.3,233.61 -62.41,331.59 -165.35,232.36 -525.69,264.34 -784.47,304.76 -214.66,39.2 -433.05,84.67 -651.04,98.45 30.84,-298.06 109.17,-669.37 260.5,-928.53 128.24,-219.6 306.13,-372.98 554.65,-437.31zm-3351.7 56.67c193.35,2.7 382.71,56.37 522.67,196.86 261.41,262.43 338.72,686.57 337.11,1041.27 -109.8,5.45 -219.61,5.8 -329.44,1.06 -109.84,-4.77 -219.2,-14.61 -328.12,-29.52 -217.07,-33.22 -503.55,-78.64 -679.36,-217.07 -6.82,-5.33 -13.52,-10.82 -20.08,-16.48 -6.58,-5.66 -13.01,-11.49 -19.29,-17.47 -6.26,-5.98 -12.38,-12.1 -18.36,-18.38 -5.98,-6.28 -11.8,-12.7 -17.46,-19.27 -5.66,-6.56 -11.17,-13.25 -16.51,-20.08 -5.33,-6.84 -10.49,-13.8 -15.48,-20.87 -4.99,-7.09 -9.81,-14.3 -14.44,-21.62 -4.64,-7.32 -9.1,-14.75 -13.37,-22.29 -4.27,-7.55 -8.35,-15.19 -12.25,-22.91 -3.9,-7.74 -7.6,-15.58 -11.11,-23.51 -3.53,-7.92 -6.84,-15.92 -9.95,-23.99 -3.12,-8.09 -6.05,-16.25 -8.78,-24.46 -2.72,-8.24 -5.23,-16.53 -7.54,-24.86 -2.31,-8.36 -4.42,-16.78 -6.33,-25.23 -1.9,-8.45 -3.59,-16.94 -5.08,-25.47 -1.48,-8.54 -2.75,-17.11 -3.81,-25.71 -15.92,-138.37 32.46,-274.6 119.99,-381.23 139.59,-170 344.8,-242.04 556.92,-258.75zm4456.24 2373.56c585.85,-73.61 1056.72,-143.53 1485.01,-591.29 -882.29,449.61 -2185.95,439.51 -3118,136.39 -249.94,-81.31 -453,-177.57 -637.16,-366.79 70.46,298.51 102.48,606.5 143.06,910.27 330.44,12.44 660.83,48.02 990.27,76.58 390.14,33.86 780.42,62.86 1169.81,105.18 309.25,33.62 618.72,86.34 929.22,104.91 -170.59,-70.99 -342,-128.85 -519.71,-179.03 0,0 -304.63,-84.06 -304.63,-84.06m-137.87 -112.16c0,0 -302.29,21.67 -302.29,21.67 0,0 440.16,90.5 440.16,90.5m-3499.48 -880.18c41.47,151.47 -10.42,767.42 -47.74,929.17 -324.68,39.94 -643.3,26.53 -970.97,52.93 -372.37,32.39 -744.4,68.13 -1116.13,107.22 -336.66,33.85 -715.28,94.99 -1051.17,44.54 121.66,-32.19 246.77,-47.85 368.67,-82.74 227.68,-65.16 447.45,-152.34 679.12,-204.29 0,0 -494.19,-105.57 -494.19,-105.57 -453.47,-104.76 -828.69,-260.45 -1210.56,-529.52 525.29,187.33 763.18,308.06 1352.58,329.81 578.7,21.38 1544.26,-22.85 2069.47,-252.57 160.35,-70.12 293.49,-170.35 420.91,-288.96zm2866 5181.17c0,0 4.47,2.62 4.47,2.62 0,0 -0.08,15.32 -0.08,15.32 -373.67,250.98 -729.19,532.73 -1087.61,804.95 -185.25,140.68 -376.02,273.68 -562.45,412.71 -208.73,155.7 -419.04,349.07 -647.53,471.38 -174.26,-101.5 -334,-244.15 -494.63,-366.84 0,0 -776.87,-582.04 -776.87,-582.04 -319.39,-238.73 -647.95,-477.09 -950.97,-735.98 488.47,-40.55 1001.64,-4.07 1493.95,-2.96 1007.3,2.28 2014.54,-4.11 3021.73,-19.16zm-4181.82 99.76c616.79,-12.3 1235.69,10 1852.91,7.35 0,0 6.03,1422.22 6.03,1422.22 -83.48,-45.42 -336.42,-264.05 -436.33,-338.86 -315.79,-235.06 -629.41,-472.98 -940.86,-713.79 -161.07,-123.9 -329.02,-242.94 -481.75,-376.91zm3457.56 6.16c126.05,-4.87 252.7,-4.31 378.85,-5.98 -146.71,124.35 -317.88,224.8 -471.8,341.05 -413.25,312.17 -822.88,626.1 -1242.34,930.2 -66.32,51.29 -128.66,108.09 -191.86,163.18 7.3,-475.77 3.68,-952.17 3.23,-1428.01 507.94,-4.76 1015.95,8.79 1523.92,-0.45zm-763.92 -14639.31c663.08,54.26 1370.55,237.76 1977.39,510.18 1958.62,879.33 2512.58,2895.51 2853.97,4831.31 93.88,532.33 125.09,1080.08 246.58,1606.01 74.07,320.55 195.2,624.59 310.9,931.68 0,0 -81.95,-133.51 -81.95,-133.51 -63.68,-127.02 -123.74,-255.74 -180.2,-386.15 -56.43,-130.41 -109.16,-262.31 -158.18,-395.7 -49.01,-133.37 -94.23,-268.02 -135.67,-403.95 -41.42,-135.91 -79,-272.89 -112.74,-410.94 -90.07,-369.39 -142.76,-747.49 -218.7,-1119.87 -119.06,-583.62 -288.22,-1182.12 -523.15,-1730.32 -410.33,-957.6 -1090.79,-1793.81 -2081.3,-2184.63 -622.58,-245.63 -1285.95,-270.85 -1904.81,-0.82 0,0 7.86,-1113.3 7.86,-1113.3zm-1582.46 -2.2c24.71,24.97 13.84,981.97 13.71,1103.3 -419.35,-139 -821.74,-227.62 -1265.37,-162.91 -592.04,86.34 -1132.42,385.25 -1577.91,775.47 -1189.16,1041.69 -1521.81,2608.17 -1816.22,4090.25 -121.75,612.93 -211.8,1213.83 -593.99,1729.56 0,0 -114.48,128.27 -114.48,128.27 341.6,-683.51 334.09,-1117.88 447.02,-1838.8 200.72,-1281.46 501.96,-2928.18 1299.79,-3978.62 19.18,-25.32 38.61,-50.44 58.33,-75.34 19.7,-24.91 39.66,-49.61 59.89,-74.09 20.24,-24.49 40.71,-48.77 61.46,-72.82 20.74,-24.05 41.72,-47.88 62.96,-71.49 21.25,-23.61 42.74,-47 64.47,-70.15 21.75,-23.17 43.72,-46.11 65.95,-68.8 22.2,-22.67 44.65,-45.13 67.34,-67.37 22.69,-22.21 45.62,-44.19 68.77,-65.92 23.15,-21.75 46.54,-43.23 70.15,-64.47 23.61,-21.26 47.45,-42.24 71.5,-62.99 24.05,-20.74 48.32,-41.22 72.79,-61.45 24.49,-20.23 49.19,-40.2 74.09,-59.92 24.91,-19.7 50.03,-39.14 75.33,-58.33 25.32,-19.17 50.85,-38.07 76.55,-56.72 25.73,-18.64 51.65,-37 77.74,-55.1 26.1,-18.1 52.4,-35.9 78.88,-53.43 26.47,-17.54 53.14,-34.79 79.99,-51.77 26.84,-16.97 53.86,-33.66 81.05,-50.08 27.19,-16.4 54.57,-32.51 82.11,-48.33 27.52,-15.82 55.22,-31.35 83.08,-46.61 27.86,-15.24 55.89,-30.18 84.07,-44.84 28.18,-14.64 56.52,-28.97 85.02,-43.03 28.47,-14.06 57.1,-27.8 85.86,-41.24 28.78,-13.46 57.7,-26.6 86.74,-39.44 29.06,-12.84 58.25,-25.36 87.55,-37.56 29.31,-12.22 58.76,-24.13 88.33,-35.74 29.57,-11.6 59.26,-22.88 89.06,-33.85 29.8,-10.97 59.73,-21.64 89.76,-31.98 30.03,-10.34 60.17,-20.36 90.41,-30.05 30.22,-9.72 60.57,-19.11 91.02,-28.17 30.44,-9.05 60.97,-17.79 91.58,-26.21 30.63,-8.41 61.35,-16.51 92.14,-24.28 364.01,-94.64 741.43,-144.03 1113.48,-194.93zm3821.18 13957.95c31.35,-1.08 62.06,-1.16 93.41,0.16 130.62,5.48 246.34,41.93 335.17,143.67 85.39,97.82 119.09,229.74 104.81,357.5 -25.84,231.01 -180.33,318.38 -312.48,482.68 -60.79,75.59 -109.07,161.06 -169.38,237.54 -98.16,122.86 -202.96,239.77 -314.44,350.71 -111.46,110.92 -228.88,215.15 -352.24,312.69 -735.74,573.7 -1772.07,1066.98 -2722.2,944.86 -1001.83,-128.75 -2182.75,-849.95 -2795.09,-1644.89 -225.24,-292.33 -463.32,-510.55 -413.59,-892.29 96.19,-0.08 65.82,268.56 148.67,384.35 61.11,85.38 151.76,139.37 255.6,153.93 145.68,20.45 298.07,-27.62 413.11,-116.28 154.9,105.36 300.53,229.76 450.01,343.05 0,0 807.7,606.5 807.7,606.5 479.61,362.95 971.91,710.54 1446.63,1079.58 0,0 1443.21,-1090.47 1443.21,-1090.47 340.65,-259.71 890.73,-717.07 1263.59,-888.51 11.68,4.5 23.37,8.93 35.1,13.31 163.77,61 338.7,96.58 503.69,16.01 92.32,-45.08 162.81,-122.71 195.06,-220.67 33.94,-103.14 22.09,-221.93 -30.23,-316.85 -82.32,-149.22 -231.12,-211.77 -386.1,-256.56zm-2716.34 -4122.41c31.81,23.38 61.72,49 89.7,76.84 28,27.86 53.78,57.64 77.32,89.33 427.99,576.29 101.97,1035.61 335.99,1531.98 146.05,309.76 428.82,558.46 635.13,830.08 139.24,183.29 1037.25,1528.73 1059.12,1712.36 5.98,50.1 -16.27,107.14 -49.92,143.72 -34.78,37.85 -74.69,49.36 -124.03,56.37 -251.8,35.92 -532.17,14.16 -786.93,14.45 0,0 -1475.62,1.13 -1475.62,1.13 0,0 -1643.91,-1.48 -1643.91,-1.48 -164.61,0.29 -663.29,27.14 -798.09,-11.43 -58.28,-16.67 -107.7,-66.97 -136.45,-118.77 -72,-129.74 14.05,-256.05 86.66,-362.16 303.99,-444.05 588.73,-901.39 901.69,-1339.57 194.53,-272.38 644.45,-728.85 748.6,-1008.87 50.68,-136.31 79.3,-296.26 78.85,-441.67 -15.8,-543.99 300.38,-1678.83 1001.88,-1172.31zm-2297.78 4286.26c-91.79,3.52 -304.26,35.76 -380.36,-13.34 -24.99,-82.87 24.15,-178.63 62.91,-251.11 104.09,-194.8 239.79,-379.64 363.25,-562.61 197.73,-293.06 394.85,-586.16 606.52,-869.43 174.05,-232.94 546.96,-633.72 638.46,-893.41 197.87,-503.6 -75.86,-1375.4 620.62,-1574.81 308.9,-88.45 611.98,233.55 683.69,517.17 86.58,342.56 -11.05,700.46 88.81,1040.71 101.28,345.12 598.82,835.92 821.92,1162.69 251.53,368.38 480.82,754.13 709.27,1137.1 48.56,81.42 147.6,223.45 102.24,316.8 -20.09,8.81 -367.13,12.47 -398.53,-11.19 -14.13,-65.53 -16.62,-130.36 -19.72,-197.05 -55.92,-162.52 -188.39,-289.33 -312.98,-402.1 0,0 0,609.27 0,609.27 0,0 -385.12,0.5 -385.12,0.5 0.72,-332.37 12.86,-669.16 -0.1,-1001 -105.84,-127.85 -214.9,-255.93 -327.59,-377.71 -2.68,460.19 -2.94,920.34 -0.77,1380.5 0,0 -377.07,-1.11 -377.07,-1.11 0,0 -1.64,-940.34 -1.64,-940.34 0.18,-220.87 33.11,-504.39 -27.7,-718.31 -27.74,-97.67 -97.21,-179.93 -168.44,-249.92 -45.66,-43.96 -91.94,-87.25 -138.85,-129.85 0,0 10.45,2036.67 10.45,2036.67 0,0 -386.04,-0.13 -386.04,-0.13 0.34,-662.63 22.5,-1340.96 -1.35,-2001.95 -175.09,154.44 -297.99,265.96 -313.33,513.02 -30.53,492.33 4.36,994.05 -4.5,1487.59 -128.45,-3.04 -256.96,-7.27 -385.44,-5.31 0.56,-461.44 8.79,-922.79 4.53,-1384.23 -112.26,127.85 -222.27,257.62 -330.02,389.32 -2.33,335.22 -2.25,670.43 0.23,1005.61 0,0 -375.15,0.24 -375.15,0.24 0,0 -0.74,-631.16 -0.74,-631.16 -108.41,139.46 -306,313.52 -361.37,477.2 -15.26,45.13 -15.24,94.52 -16.08,141.66zm2002.07 -3949.77c13.68,2.2 14.74,0.72 26.4,9.63 119.66,91.29 452.94,751.07 463.74,903.22 6.22,87.46 -16.54,176.94 -77.13,242.34 -100.31,108.22 -254.26,115.51 -391.68,120.38 -60.85,-0.05 -123.14,-0.85 -183.69,-6.59 -106.69,-10.13 -215.11,-50.18 -281.85,-137.81 -61.38,-80.58 -67.13,-177.95 -54.1,-274.87 43.78,-325.21 239.34,-657.32 498.31,-856.3zm-230.14 -10279.31c290.87,-37.56 603.19,3.79 892.53,40.63 0,0 15.51,4536.45 15.51,4536.45 -1.03,681.52 24.07,1375.23 -15.64,2054.79 93.45,-124.46 192.51,-244.31 297.17,-359.54 506.01,-549.92 1263.86,-987.15 2024.02,-1012.62 747.28,-25.05 1296.88,339.86 1819.66,832.08 -532.99,-272.17 -1071,-428.49 -1673.53,-427.07 -109.41,0.27 -234.72,-5.76 -340.71,18.9 0,0 2.49,5.74 2.49,5.74 93.88,6.19 188.03,10.71 280.35,29.88 395.64,82.16 766.17,302.12 1074.68,557.8 1272.7,1054.84 1830.11,2788.11 2327.54,4303.3 225.03,685.41 447.52,1374.41 700.22,2050.19 56.56,154.94 117.46,308.16 182.73,459.67 65.25,151.51 134.73,301.02 208.44,448.58 73.73,147.55 151.59,292.89 233.55,436.04 81.99,143.14 167.95,283.85 257.89,422.09 -259.4,-246.21 -503.37,-535.26 -697.45,-836.1 -151.1,-234.24 -274.7,-487.97 -393.37,-739.74 -269.12,-570.92 -464.13,-1164.22 -661.83,-1762.25 -97.83,-295.97 -202.86,-589.71 -298.6,-886.34 -185.16,-573.78 -364.22,-1136.55 -623.88,-1682.98 -386.7,-813.84 -862.16,-1527.09 -1752.49,-1838.86 -1052.75,-368.61 -2188.88,82.98 -3137.3,542.23 -11.48,-364.73 -6.06,-731.28 -7.17,-1096.24 0,0 -0.32,-2153.14 -0.32,-2153.14 0.51,-661.94 30.79,-1354.46 -88.19,-2008 -39.62,-217.76 -113.1,-410.65 -223.55,-601.84 -53.25,-66.6 -115.96,-144.43 -209.74,-146.26 -36.71,-0.71 -71.68,15.87 -98.48,40.1 -209.13,189.08 -300.42,770.99 -332.4,1046.8 -69.98,603.48 -43.77,1227.73 -46.16,1835.32 -4.04,1021.7 -2.54,2041.67 -20.21,3063.34 -773.66,-354.46 -1592.51,-676.97 -2460.43,-644.82 -655.52,24.28 -1260.31,328.51 -1696.82,812.75 -613.22,680.25 -945.73,1667.69 -1244.53,2517.87 -181.1,515.71 -355.41,1033.71 -522.94,1553.99 -127.34,390.7 -247.88,782.28 -408.87,1160.81 -36.21,85.04 -74.22,169.25 -114.04,252.65 -39.8,83.39 -81.37,165.91 -124.72,247.54 -43.34,81.61 -88.42,162.26 -135.22,241.96 -46.8,79.67 -95.29,158.32 -145.47,235.96 -50.17,77.59 -101.98,154.1 -155.43,229.5 -53.45,75.39 -108.49,149.6 -165.11,222.62 -56.65,73.03 -114.81,144.82 -174.5,215.38 -59.72,70.53 -120.91,139.76 -183.58,207.67 130.7,-247.88 267.72,-491.32 388.13,-744.68 229.21,-482.25 420.12,-984.77 601.55,-1486.62 376.86,-1042.35 694.69,-2100.32 1106.53,-3130.66 106.07,-265.42 206.35,-539.18 330.81,-796.38 276.88,-572.11 639.04,-1151.94 1059.1,-1630.44 426.04,-485.29 1056.85,-910.7 1715.86,-953.55 -6.01,-1.93 -11.93,-4.02 -17.99,-5.82 -84.09,-25.23 -204.63,-15.27 -294.33,-14.63 -35.91,0.35 -71.8,1.27 -107.7,2.75 -35.87,1.48 -71.71,3.52 -107.53,6.11 -35.81,2.61 -71.58,5.77 -107.29,9.48 -35.73,3.7 -71.38,7.97 -106.96,12.8 -35.58,4.82 -71.08,10.19 -106.5,16.11 -35.42,5.95 -70.74,12.43 -105.97,19.45 -35.2,7.04 -70.29,14.61 -105.28,22.72 -34.97,8.13 -69.82,16.8 -104.55,26 -34.7,9.21 -69.25,18.96 -103.67,29.25 -34.38,10.28 -68.61,21.11 -102.69,32.45 -34.07,11.34 -67.95,23.22 -101.66,35.63 -33.7,12.42 -67.19,25.35 -100.49,38.81 -33.29,13.44 -66.37,27.4 -99.23,41.9 -32.85,14.48 -65.48,29.46 -97.87,44.97 -32.4,15.5 -64.54,31.5 -96.42,48.01 -31.9,16.49 -63.54,33.48 -94.89,50.97 168.63,-188.89 360.39,-365.94 569.41,-509.36 454.56,-311.87 984.77,-411.81 1524.38,-306.95 810.47,157.47 1575.12,654.48 2038.39,1340.11 -10.83,-2188.46 -10.15,-4376.88 2.04,-6565.27 150.67,-30.44 307.61,-48.01 460.69,-59.95zm3238 14166.95c145.86,0 264.09,118.23 264.09,264.09 0,145.86 -118.23,264.09 -264.09,264.09 -145.86,0 -264.09,-118.23 -264.09,-264.09 0,-145.86 118.23,-264.09 264.09,-264.09zm-6079.04 32.32c145.86,0 264.09,118.23 264.09,264.09 0,145.86 -118.23,264.09 -264.09,264.09 -145.86,0 -264.09,-118.23 -264.09,-264.09 0,-145.86 118.23,-264.09 264.09,-264.09zm2557.34 904.38c63.39,0 114.77,51.39 114.77,114.77 0,63.39 -51.39,114.77 -114.77,114.77 -63.39,0 -114.77,-51.39 -114.77,-114.77 0,-63.39 51.39,-114.77 114.77,-114.77zm934.17 -10.18c63.39,0 114.77,51.39 114.77,114.77 0,63.39 -51.39,114.77 -114.77,114.77 -63.39,0 -114.77,-51.39 -114.77,-114.77 0,-63.39 51.39,-114.77 114.77,-114.77zm-830.61 -7379.56c0,0 789.07,0 789.07,0 0,0 0,227.49 0,227.49 0,0 -789.07,0 -789.07,0 0,0 0,-227.49 0,-227.49zm32.62 764.06c0,0 703.23,0 703.23,0 0,0 0,227.49 0,227.49 0,0 -703.23,0 -703.23,0 0,0 0,-227.49 0,-227.49zm-42.98 -365.14c0,0 789.07,0 789.07,0 0,0 0,227.49 0,227.49 0,0 -789.07,0 -789.07,0 0,0 0,-227.49 0,-227.49zm54.48 1113.59c0,0 703.23,0 703.23,0 0,0 0,63.31 0,63.31 0,0 -703.23,0 -703.23,0 0,0 0,-63.31 0,-63.31zm9.77 -363.13c0,0 703.23,0 703.23,0 0,0 0,227.49 0,227.49 0,0 -703.23,0 -703.23,0 0,0 0,-227.49 0,-227.49z"/>
        </g>
    </g>
</svg>
