<?xml version="1.0" encoding="utf-8"?>
<!-- Generator: Adobe Illustrator 27.5.0, SVG Export Plug-In . SVG Version: 6.00 Build 0)  -->
<svg version="1.1" xmlns="http://www.w3.org/2000/svg" xmlns:xlink="http://www.w3.org/1999/xlink" x="0px" y="0px"
	 viewBox="0 0 500 500"  xml:space="preserve">
<g id="BACKGROUND">
	<g>
		<rect fill="#F58E8E" width="500" height="500"/>
		<circle fill="#FDDFDF" cx="255.231" cy="251.118" r="184.739"/>
		<g>
			<g>
				<path fill="#F58E8E" d="M263.689,230.335c-13.114-3.835-24.517-13.368-30.032-25.946
					c-5.921-13.504-4.306-30.24,4.902-41.904c8.604-10.901,23.163-16.817,36.912-14.542c15.823,2.618,30.837,15.723,47.516,10.101
					c6.315-2.129,11.531-6.949,14.791-12.697c3.861-6.807,5.043-14.75,4.357-22.48c-1.197-13.488-8.399-29.401-22.51-33.375
					c-6.214-1.75-13.382-1.051-18.619,2.95c-5.497,4.199-7.911,11.181-8.609,17.839c-0.779,7.435,0.187,15.59,4.01,22.13
					c3.43,5.869,9.535,10.476,16.513,10.72c6.617,0.232,13.097-4.096,15.41-10.304c2.336-6.269,1.011-14.277-4.179-18.76
					c-4.969-4.293-13.164-4.449-16.927,1.484c-3.207,5.057-2.405,13.157,3.945,15.251c2.67,0.88,5.03,0.347,7.16-1.425
					c0.708-0.59,0.241-3.284-0.416-2.738c-3.642,3.03-11.654-0.211-10.666-5.356c0.526-2.739,2.801-5.072,5.366-6.02
					c3.074-1.136,6.595-0.497,9.353,1.152c5.444,3.255,7.388,10.489,4.032,15.927c-3.383,5.481-10.121,8.042-16.332,6.65
					c-14.481-3.245-18.537-21.163-14.736-33.623c1.902-6.235,6.428-11.408,12.905-12.968c6.145-1.481,12.735-0.066,17.945,3.431
					c5.519,3.704,9.385,9.406,11.815,15.513c2.644,6.645,3.756,14.171,2.519,21.251c-1.144,6.546-4.418,12.683-9.498,17.016
					c-5.364,4.576-12.041,6.459-19.032,5.878c-15.121-1.257-28.162-11.567-43.655-10.626c-12.675,0.77-24.782,7.885-31.616,18.583
					c-6.99,10.942-8.705,24.948-4.87,37.322c3.672,11.851,12.522,21.745,23.513,27.357c2.754,1.406,5.639,2.531,8.611,3.38
					C264.003,231.632,264.043,230.439,263.689,230.335L263.689,230.335z"/>
			</g>
		</g>
		<g>
			<g>
				<path fill="#F58E8E" d="M306.071,205.414c-2.538,7.563-8.881,13.48-16.241,16.333
					c-8.044,3.118-16.832,2.763-24.672-0.832c-7.773-3.564-14.028-10.028-17.017-18.078c-2.856-7.692-2.689-16.42,1.462-23.623
					c3.978-6.904,11.116-12.103,18.963-13.587c7.808-1.476,15.92,0.972,21.697,6.423c5.81,5.482,8.964,13.231,6.458,21.09
					c-2.613,8.195-11.324,13.247-19.75,11.601c-7.089-1.385-13.796-9.824-9.299-16.809c2.144-3.33,6.269-5.529,10.193-4.075
					c1.664,0.616,3.322,1.818,4.128,3.442c0.838,1.689-0.246,3.435-1.56,4.552c-1.428,1.214-3.407,1.641-5.164,0.939
					c-1.083-0.433-1.311,2.883-0.327,3.198c4.134,1.325,7.991-2.223,8.72-6.14c0.841-4.517-1.929-8.963-6.333-10.205
					c-4.593-1.296-8.973,1.62-11.182,5.537c-2.318,4.111-2.36,9.272-0.706,13.628c1.59,4.188,4.792,7.795,9.046,9.369
					c4.457,1.649,9.365,1.166,13.586-0.939c8.829-4.403,12.373-15.747,10.584-24.952c-1.746-8.981-8.234-16.516-16.812-19.698
					c-8.685-3.222-18.285-1.074-25.49,4.546c-7.607,5.934-11.766,14.892-11.949,24.477c-0.185,9.69,3.686,19.596,10.69,26.343
					c7.068,6.808,17.108,10.628,26.934,9.431c9.146-1.114,17.401-6.951,21.916-14.933c1.113-1.968,1.988-4.057,2.649-6.218
					C306.695,205.898,306.296,204.742,306.071,205.414L306.071,205.414z"/>
			</g>
		</g>
		<g>
			<g>
				<path fill="#F58E8E" d="M297.391,163.235c5.838,1.568,10.031,6.504,12.499,11.808c2.948,6.337,3.59,13.434,5.713,20.041
					c3.467,10.792,11.475,20.508,21.811,25.338c10.296,4.811,22.169,4.289,32.12-1.167c9.878-5.416,16.509-15.27,17.164-26.581
					c0.613-10.597-3.429-21.499-11.895-28.158c-9.881-7.771-24.996-9.459-36.232-3.661c-10.339,5.335-14.553,17.738-11.891,28.713
					c2.576,10.62,12.46,17.661,23.285,17.411c5.464-0.126,10.883-2.227,14.716-6.178c4.086-4.213,5.62-10.309,3.995-15.959
					c-1.586-5.514-6.079-9.727-11.813-10.518c-5.466-0.754-11.276,1.708-13.261,7.113c-0.914,2.49-0.928,5.437,0.531,7.728
					c0.344,0.539,0.774,0.563,1.084-0.027c0.327-0.622,0.268-1.654-0.056-2.268c-1.088-2.061,0.058-4.251,1.473-5.858
					c1.766-2.006,4.292-3.198,6.912-3.598c5.339-0.814,11.015,1.699,13.249,6.774c0.995,2.26,1.379,4.926,0.631,7.316
					c-0.781,2.494-2.461,4.718-4.416,6.416c-3.757,3.261-8.53,4.925-13.484,4.948c-9.465,0.044-19.008-5.873-21.173-15.457
					c-0.991-4.389-0.368-9.043,1.546-13.096c2.265-4.797,6.336-8.254,11.156-10.351c5.331-2.319,11.496-3.013,17.26-2.532
					c5.747,0.48,11.535,2.29,16.202,5.753c7.788,5.779,11.421,16.073,10.255,25.535c-1.218,9.879-7.862,18.089-16.55,22.612
					c-9.066,4.72-19.905,5.269-29.372,1.388c-9.543-3.911-17.485-11.488-21.4-21.074c-4.196-10.275-4.12-23.181-13.539-30.607
					c-1.868-1.473-4.146-2.387-6.483-2.767C297.15,162.224,297.133,163.166,297.391,163.235L297.391,163.235z"/>
			</g>
		</g>
		<g>
			<g>
				<path fill="#F58E8E" d="M343.866,147.228c0.772-0.409,1.408-0.718,2.105-1.259c0.746-0.579,1.38-1.21,2.008-1.921
					c1.281-1.449,2.373-3.025,3.328-4.705c1.897-3.334,3.176-6.966,3.803-10.749c1.285-7.76-0.28-15.992-4.45-22.68
					c-2.114-3.39-5.006-7.108-8.758-8.709c-0.637-0.272-0.544,1.412-0.279,1.683c2.445,2.507,5.042,4.839,7.059,7.73
					c2.016,2.889,3.568,6.113,4.497,9.513c1.846,6.749,0.825,13.889-2.276,20.11c-1.852,3.716-4.562,7.07-7.202,10.243
					C343.592,146.615,343.589,147.375,343.866,147.228L343.866,147.228z"/>
			</g>
		</g>
		<g>
			<g>
				<path fill="#F58E8E" d="M352.088,152.255c3.593-0.054,7.175-0.174,10.746,0.346c3.729,0.543,7.367,1.641,10.774,3.252
					c6.18,2.923,11.476,7.458,15.278,13.143c2.185,3.267,3.661,6.811,4.87,10.533c0.14,0.431,0.417,0.749,0.819,0.421
					c0.407-0.332,0.272-1.265,0.171-1.685c-3.363-13.969-15.729-24.869-29.671-27.408c-4.27-0.777-8.816-0.988-13.016,0.219
					C351.699,151.18,351.682,152.261,352.088,152.255L352.088,152.255z"/>
			</g>
		</g>
		<g>
			<g>
				<path fill="#F58E8E" d="M380.437,133.95c-2.315,5.102-8.111,7.773-13.523,6.493c-5.236-1.238-9.936-6.883-7.957-12.415
					c1.776-4.965,7.507-7.523,12.353-5.387c2.242,0.988,4.179,2.901,4.63,5.376c0.438,2.396-0.639,5.006-2.613,6.417
					c-2.372,1.694-6.203,1.926-7.936-0.8c-1.651-2.596,2.184-4.563,4.385-3.81c0.668,0.228,0.488-1.398,0.168-1.678
					c-2.394-2.09-5.544,0.015-6.107,2.759c-0.625,3.049,1.077,6.47,4.206,7.236c3.309,0.81,6.45-1.435,7.919-4.277
					c1.405-2.718,1.458-6.165,0.325-8.985c-1.192-2.966-3.889-4.955-6.999-5.534c-3.316-0.617-6.495,0.654-8.741,3.114
					c-4.526,4.96-3.764,13.13,1.231,17.471c3.048,2.649,7.485,3.605,11.332,2.343c3.618-1.187,6.376-4.051,7.682-7.591
					C380.885,134.427,380.678,133.417,380.437,133.95L380.437,133.95z"/>
			</g>
		</g>
		<g>
			<g>
				<path fill="#F58E8E" d="M379.206,147.932c1.499,0.605,3.113,0.808,4.644,1.333c1.555,0.533,3.071,1.196,4.492,2.025
					c1.393,0.812,2.707,1.771,3.882,2.876c1.208,1.136,2.129,2.451,3.197,3.702c0.091,0.121,0.21,0.187,0.359,0.196
					c0.045-0.011,0.089-0.022,0.134-0.033c0.614-0.149,0.583-1.145,0.529-1.609c-0.199-1.722-1.916-3.311-3.114-4.456
					c-1.26-1.204-2.654-2.27-4.155-3.156c-1.47-0.867-3.05-1.589-4.695-2.05c-1.669-0.468-3.499-0.951-5.211-0.504
					C378.768,146.389,378.733,147.742,379.206,147.932L379.206,147.932z"/>
			</g>
		</g>
		<g>
			<g>
				<path fill="#F58E8E" d="M358.996,115.325c-0.169-2.148-0.596-4.287-1.4-6.291c-0.39-0.973-0.852-1.917-1.382-2.821
					c-0.259-0.441-0.53-0.875-0.817-1.299c-0.199-0.294-0.624-1.016-1.029-0.956c-0.442,0.066-0.341,0.91-0.276,1.19
					c0.215,0.926,1.013,1.727,1.506,2.527c0.495,0.803,0.928,1.647,1.304,2.513c0.741,1.705,1.299,3.466,1.573,5.307
					C358.572,116.149,359.039,115.871,358.996,115.325L358.996,115.325z"/>
			</g>
		</g>
		<g>
			<g>
				<path fill="#F58E8E" d="M321.184,189.613c-2.107-5.439-2.921-11.336-0.882-16.923c0.832-2.28,2.057-4.407,3.596-6.283
					c0.776-0.946,1.632-1.82,2.565-2.612c0.907-0.77,2.052-1.347,2.819-2.252c0.181-0.213,0.271-1.474-0.208-1.399
					c-1.215,0.191-2.428,1.5-3.298,2.311c-1.012,0.943-1.951,1.967-2.789,3.067c-1.65,2.166-2.906,4.63-3.694,7.235
					c-1.665,5.503-1.381,12.144,1.821,17.014C321.167,189.852,321.198,189.648,321.184,189.613L321.184,189.613z"/>
			</g>
		</g>
		<g>
			<g>
				<path fill="#F58E8E" d="M228.222,161.068c4.376-11.449,13.876-20.355,25.726-23.662
					c6.258-1.747,13.049-1.983,19.406-0.63c6.859,1.46,12.913,5.069,19.047,8.3c3.483,1.835,7.048,3.529,10.836,4.643
					c3.348,0.985,7.544,2.065,10.82,0.376c0.132-0.068,0.14-0.519-0.014-0.568c-1.62-0.514-3.311-0.632-4.99-0.874
					c-1.897-0.273-3.75-0.654-5.582-1.231c-3.411-1.075-6.654-2.622-9.816-4.277c-6.216-3.253-12.252-6.993-19.119-8.733
					c-12.8-3.242-26.348,0.44-35.889,9.491c-4.896,4.645-8.594,10.395-10.635,16.832
					C227.969,160.868,228.117,161.342,228.222,161.068L228.222,161.068z"/>
			</g>
		</g>
		<g>
			<g>
				<path fill="#F58E8E" d="M287.005,126.828c-1.45-8.801-3.254-17.759-0.522-26.52c2.231-7.155,7.413-13.456,14.787-15.576
					c3.996-1.149,8.305-1.061,12.105,0.714c0.872,0.407,1.058-2.362,0.273-2.754c-7.306-3.655-16.037-1.126-21.557,4.516
					c-5.982,6.114-8.131,15.202-8.031,23.522c0.066,5.507,0.988,11.144,2.629,16.396
					C286.825,127.565,287.043,127.059,287.005,126.828L287.005,126.828z"/>
			</g>
		</g>
		<g>
			<g>
				<path fill="#F58E8E" d="M316.199,222.016c4.434,6.208,9.913,11.089,16.798,14.44c6.57,3.198,14.106,5.122,21.439,4.946
					c15.143-0.363,28.799-9.377,36.328-22.317c4.294-7.38,6.708-15.967,6.12-24.527c-0.055-0.796-0.836-1.376-0.884-0.231
					c-0.6,14.334-7.957,27.817-19.784,35.979c-11.786,8.134-27.526,9.54-40.813,4.381c-7.183-2.789-14.251-7.522-18.951-13.696
					C316.157,220.604,316.002,221.741,316.199,222.016L316.199,222.016z"/>
			</g>
		</g>
		<g>
			<g>
				<path fill="#F58E8E" d="M389.302,161.367c7.44,5.328,12.794,13.577,13.813,22.748c0.554,4.984,0.1,10.161,1.878,14.945
					c1.346,3.622,3.881,7.072,7.846,7.942c3.712,0.815,7.584-0.926,10.095-3.631c2.913-3.139,3.717-7.657,3.219-11.792
					c-0.504-4.183-2.471-8.891-5.712-11.694c-3.113-2.692-7.814-2.614-9.711,1.392c-0.906,1.913-1.078,4.165-0.998,6.251
					c0.092,2.375,0.386,5.017,1.7,7.06c1.177,1.83,3.107,2.937,5.232,2.053c1.687-0.701,2.504-2.615,1.99-4.334
					c-0.152-0.51-0.395,0.086-0.366,0.337c0.115,1.006-0.867,1.88-1.74,2.203c-0.89,0.329-1.982-0.097-2.764-0.554
					c-1.895-1.106-2.455-3.257-2.655-5.299c-0.301-3.072-0.164-7.526,3.642-8.293c4.034-0.813,7.03,2.895,8.566,6.116
					c1.682,3.527,2.311,7.765,0.692,11.433c-1.313,2.972-4.189,5.282-7.358,5.989c-3.351,0.747-6.598-0.482-8.765-3.122
					c-2.509-3.056-3.14-7.059-3.395-10.884c-0.263-3.958-0.41-7.88-1.505-11.719c-2.13-7.46-6.918-14.1-13.605-18.097
					C389.113,160.245,389.061,161.195,389.302,161.367L389.302,161.367z"/>
			</g>
		</g>
		<g>
			<g>
				<path fill="#F58E8E" d="M241.034,264.959c4.673-12.883,15.011-23.604,27.974-28.236
					c13.519-4.83,29.605-2.504,40.838,6.564c10.925,8.819,17.001,23.928,13.846,37.785c-1.823,8.006-6.156,15.112-9.401,22.574
					c-3.308,7.606-5.533,16.087-3.749,24.374c1.438,6.678,5.495,12.491,10.948,16.541c6.059,4.5,13.681,6.447,21.161,6.367
					c13.873-0.149,30.117-6.818,34.809-20.975c2.102-6.342,1.96-13.802-1.569-19.626c-3.613-5.963-10.237-9.008-16.89-10.174
					c-7.339-1.286-15.564-0.727-22.156,2.992c-5.852,3.302-10.113,9.484-10.604,16.245c-0.491,6.75,2.732,13.981,8.968,17.088
					c6.022,3,13.953,1.497,18.071-3.938c4.03-5.319,4.17-13.824-1.264-18.24c-2.339-1.9-5.533-2.743-8.426-1.721
					c-2.684,0.949-4.476,3.461-5.233,6.12c-0.805,2.828-0.387,5.736,1.337,8.105c0.389,0.535,0.789-0.187,0.885-0.533
					c0.169-0.608,0.096-1.422-0.283-1.942c-1.488-2.046-0.461-4.802,1.156-6.425c1.98-1.989,5.026-2.288,7.578-1.322
					c2.615,0.991,4.998,3.26,5.388,6.128c0.403,2.961-1.28,6.074-3.394,8.04c-4.752,4.418-12.502,4.577-17.617,0.726
					c-2.492-1.876-4.338-4.653-5.127-7.666c-0.753-2.873-0.259-5.841,0.958-8.512c5.964-13.09,24.063-15.03,36.077-10.25
					c5.992,2.384,10.91,7.07,11.88,13.658c0.937,6.361-1.677,12.672-5.97,17.288c-4.525,4.865-10.823,7.975-17.19,9.622
					c-7.012,1.813-14.576,2.114-21.611,0.248c-6.43-1.706-12.298-5.424-16.29-10.778c-4.281-5.742-5.315-12.52-3.79-19.448
					c1.674-7.609,5.456-14.501,8.523-21.597c2.794-6.464,4.879-13.179,4.84-20.281c-0.066-12.297-5.792-24.51-15.528-32.093
					c-10.323-8.04-24.402-10.806-37.06-7.677c-12.123,2.996-22.544,11.382-28.784,22.112c-1.484,2.553-2.726,5.231-3.723,8.01
					C240.491,264.442,240.812,265.57,241.034,264.959L241.034,264.959z"/>
			</g>
		</g>
		<g>
			<g>
				<path fill="#F58E8E" d="M263.105,308.08c-7.549-3.172-13.441-10.145-15.92-17.886
					c-2.545-7.946-1.278-16.392,2.975-23.532c4.425-7.429,11.675-12.863,20.053-15.018c8.051-2.071,16.905-1.192,23.992,3.316
					c6.6,4.198,11.548,11.392,12.594,19.197c1.018,7.591-2.559,15.11-8.268,20.02c-6.154,5.292-14.376,7.862-22.24,5.113
					c-7.683-2.686-13.921-11.122-11.241-19.425c2.396-7.423,12.054-11.686,18.945-7.63c3.043,1.792,5.822,5.395,3.889,8.929
					c-1.844,3.372-6.299,5.32-9.428,2.468c-1.154-1.051-2.061-2.602-1.354-4.127c0.307-0.663,0.298-1.693-0.057-2.338
					c-0.304-0.551-0.813-0.617-1.077,0.026c-1.571,3.835,0.115,8.796,4.016,10.508c4.276,1.876,8.339-0.871,9.832-4.966
					c1.665-4.565,0.197-9.826-3.408-13.025c-3.386-3.004-8.06-3.843-12.366-2.59c-4.356,1.267-7.994,4.328-9.89,8.462
					c-2.115,4.61-2.138,10.181-0.447,14.925c3.294,9.244,13.417,14.015,22.828,13.093c9.06-0.888,16.622-7.462,20.147-15.666
					c3.734-8.691,2.495-18.917-2.447-26.873c-5.058-8.142-13.555-13.431-23.13-14.195c-9.648-0.77-19.441,2.836-26.378,9.551
					c-7.19,6.961-11.254,17.18-10.584,27.19c0.604,9.031,5.174,17.744,12.798,22.795c1.874,1.241,3.92,2.234,6.029,3.007
					C263.436,309.582,263.496,308.244,263.105,308.08L263.105,308.08z"/>
			</g>
		</g>
		<g>
			<g>
				<path fill="#F58E8E" d="M306.453,302.441c-1.801,5.714-7.285,9.402-12.654,11.392
					c-6.692,2.481-13.944,2.469-20.796,4.295c-10.814,2.882-20.401,10.33-25.559,20.288c-5.32,10.27-5.377,22.582-0.777,33.122
					c2.221,5.089,5.614,9.668,9.933,13.165c4.172,3.378,9.114,5.421,14.437,6.088c10.536,1.322,21.867-2.753,28.691-10.975
					c7.972-9.605,9.813-24.586,5.295-36.095c-2.116-5.39-5.881-9.875-11.087-12.493c-4.584-2.305-9.973-3.161-15.034-2.276
					c-10.878,1.902-18.036,11.806-18.671,22.509c-0.335,5.66,1.013,11.441,4.454,16.022c3.441,4.582,8.978,7.016,14.656,5.677
					c5.551-1.309,9.857-5.465,11.036-11.085c1.126-5.369-0.248-11.842-5.093-14.989c-2.219-1.441-4.776-1.813-7.13-0.471
					c-0.847,0.483-0.645,3.559,0.483,3.083c5.073-2.138,10.023,3.185,10.559,7.858c0.612,5.336-2.935,10.631-8.016,12.26
					c-10.584,3.393-19.51-7.379-19.004-17.309c0.487-9.57,7.658-17.9,17.159-19.422c4.692-0.752,9.594-0.026,13.867,2.046
					c4.719,2.288,8.245,6.117,10.257,10.956c4.308,10.363,1.935,24.144-5.473,32.535c-6.617,7.494-17.071,10.1-26.703,8.365
					c-9.896-1.783-18.216-8.317-22.572-17.333c-4.352-9.01-4.223-19.313,0.244-28.244c4.575-9.147,12.815-16.502,22.465-19.899
					c10.64-3.745,24.273-2.848,32.185-12.202c1.557-1.841,2.651-4.053,3.246-6.383C306.937,302.608,306.647,301.824,306.453,302.441
					L306.453,302.441z"/>
			</g>
		</g>
		<g>
			<g>
				<path fill="#F58E8E" d="M319.422,350.275c0.94,1.741,1.89,3.279,3.285,4.708c1.279,1.31,2.667,2.495,4.167,3.545
					c3.08,2.156,6.503,3.74,10.145,4.672c7.289,1.864,15.275,0.897,21.905-2.686c3.784-2.045,7.42-4.849,9.625-8.582
					c0.157-0.267,0.159-2.097-0.362-1.667c-2.684,2.215-5.14,4.619-8.183,6.377c-3.216,1.858-6.71,3.223-10.368,3.892
					c-7.089,1.298-14.433-0.1-20.686-3.645c-3.413-1.935-6.463-4.605-9.315-7.262C319.356,349.366,319.348,350.138,319.422,350.275
					L319.422,350.275z"/>
			</g>
		</g>
		<g>
			<g>
				<path fill="#F58E8E" d="M313.918,357.927c0.16,7.241-1.061,14.257-4.611,20.645c-3.323,5.979-8.301,10.928-14.248,14.292
					c-3.432,1.942-7.033,3.068-10.796,4.157c-0.783,0.227-0.753,2.566,0.06,2.455c6.91-0.941,13.672-5.049,18.646-9.782
					c5.489-5.224,9.217-12.086,10.856-19.47c0.904-4.075,1.256-8.328,0.632-12.467C314.355,357.09,313.906,357.39,313.918,357.927
					L313.918,357.927z"/>
			</g>
		</g>
		<g>
			<g>
				<path fill="#F58E8E" d="M329.713,387.016c-5.044-2.816-7.883-8.842-5.421-14.335c2.208-4.925,8.426-7.869,13.534-5.703
					c4.695,1.991,7.578,7.407,4.498,11.986c-2.748,4.086-9.105,5.19-12.534,1.255c-0.985-1.131-1.767-2.771-1.442-4.304
					c0.292-1.376,1.443-2.471,2.73-2.955c2.233-0.839,5.669,0.885,4.306,3.567c-0.159,0.314-0.042,1.907,0.51,1.351
					c1.937-1.95,0.862-5.882-1.298-7.241c-2.745-1.727-6.141,0.53-7.078,3.235c-1.105,3.19-0.03,6.923,2.568,9.053
					c2.39,1.959,5.838,2.588,8.768,1.592c6.454-2.194,7.669-11.322,3.827-16.269c-4.415-5.685-13.05-5.177-17.446,0.252
					c-5,6.176-3.169,16.386,4.376,19.528C329.956,388.172,329.983,387.166,329.713,387.016L329.713,387.016z"/>
			</g>
		</g>
		<g>
			<g>
				<path fill="#F58E8E" d="M316.63,384.954c-0.485,1.482-0.801,3-1.408,4.443c-0.628,1.493-1.391,2.916-2.329,4.238
					c-0.919,1.295-1.978,2.503-3.17,3.553c-0.625,0.551-1.283,1.062-1.967,1.538c-0.73,0.507-1.56,0.858-1.927,1.703
					c-0.239,0.55-0.291,1.733,0.312,2.1c0.683,0.415,1.723-0.557,2.268-0.962c0.708-0.526,1.38-1.097,2.021-1.703
					c1.315-1.243,2.485-2.626,3.474-4.143c1.952-2.994,3.539-6.725,3.473-10.354C317.366,384.814,316.905,384.112,316.63,384.954
					L316.63,384.954z"/>
			</g>
		</g>
		<g>
			<g>
				<path fill="#F58E8E" d="M350.036,367.499c1.982,0.054,4.003-0.122,5.894-0.741c0.945-0.31,1.867-0.684,2.759-1.124
					c0.867-0.429,2.012-0.906,2.443-1.822c0.124-0.263,0.197-1.181-0.188-1.309c-0.414-0.138-0.805,0.158-1.165,0.368
					c-0.433,0.253-0.857,0.519-1.3,0.755c-0.856,0.457-1.743,0.853-2.654,1.187c-1.893,0.694-3.812,1.259-5.818,1.508
					C349.632,366.368,349.656,367.489,350.036,367.499L350.036,367.499z"/>
			</g>
		</g>
		<g>
			<g>
				<path fill="#F58E8E" d="M278.269,324.709c0.67-0.157,1.355-0.163,2.029-0.302c0.697-0.144,1.384-0.298,2.087-0.414
					c1.423-0.235,2.837-0.427,4.283-0.442c2.885-0.03,5.749,0.503,8.425,1.58c2.378,0.957,4.596,2.329,6.502,4.044
					c0.95,0.854,1.818,1.795,2.599,2.806c0.736,0.952,1.25,2.251,2.115,3.066c0.488,0.46,0.513-0.817,0.446-1.042
					c-0.712-2.37-2.869-4.574-4.654-6.204c-1.957-1.788-4.204-3.247-6.661-4.247c-2.641-1.075-5.53-1.588-8.378-1.559
					c-1.569,0.016-3.192,0.154-4.712,0.562c-0.589,0.158-1.172,0.356-1.743,0.568c-0.893,0.331-1.557,0.86-2.358,1.36
					C278.201,324.514,278.198,324.725,278.269,324.709L278.269,324.709z"/>
			</g>
		</g>
		<g>
			<g>
				<path fill="#F58E8E" d="M312.99,233.906c11.271,5.412,20.065,15.523,22.585,27.93c1.347,6.629,0.939,13.656-1.333,20.04
					c-2.312,6.495-6.419,12.098-9.894,17.988c-1.932,3.275-3.657,6.679-4.84,10.301c-1.027,3.144-1.883,6.754-1.118,10.046
					c0.041,0.177,0.203,0.174,0.234-0.006c0.62-3.517,1.039-6.912,2.367-10.266c1.334-3.37,3.132-6.526,5.028-9.606
					c3.669-5.959,7.675-11.766,9.76-18.519c3.87-12.529,1.44-26.638-6.829-36.858c-4.187-5.174-9.643-9.298-15.905-11.589
					C312.854,233.298,312.838,233.833,312.99,233.906L312.99,233.906z"/>
			</g>
		</g>
		<g>
			<g>
				<path fill="#F58E8E" d="M343.102,294.795c4.499-0.124,8.949-0.801,13.46-0.703c4.222,0.092,8.498,0.56,12.5,1.97
					c6.916,2.437,13.491,7.421,15.719,14.667c1.212,3.943,1.029,8.208-0.993,11.857c-0.321,0.58-0.382,1.318-0.182,1.954
					c0.097,0.311,0.55,1.076,0.89,0.489c4.021-6.948,2.835-16.129-1.936-22.418c-5.166-6.81-13.941-9.855-22.205-10.42
					c-5.703-0.389-11.804,0.171-17.271,1.85C342.856,294.112,342.84,294.802,343.102,294.795L343.102,294.795z"/>
			</g>
		</g>
		<g>
			<g>
				<path fill="#F58E8E" d="M246.725,317.166c-3.116,1.914-6.062,4.013-8.617,6.645c-2.503,2.579-4.604,5.583-6.373,8.703
					c-3.68,6.49-5.887,13.92-6.217,21.378c-0.687,15.482,6.84,30.283,19.499,39.155c3.434,2.407,7.116,4.256,11.089,5.587
					c1.965,0.658,4.006,1.241,6.057,1.558c2.157,0.333,4.208,0.317,6.373,0.174c0.641-0.042,0.568-1.795-0.047-1.899
					c-7.081-1.191-13.935-3.474-20.076-7.231c-6.025-3.686-11.268-8.731-15.039-14.716c-3.663-5.812-5.84-12.447-6.073-19.327
					c-0.237-7.005,1.224-14.01,4.187-20.358c3.353-7.184,8.788-14.103,15.412-18.538
					C247.205,318.094,247.072,316.953,246.725,317.166L246.725,317.166z"/>
			</g>
		</g>
		<g>
			<g>
				<path fill="#F58E8E" d="M302.452,394.103c-5.655,6.977-14.239,11.591-23.239,12.093
					c-5.1,0.284-10.369-0.657-15.347,0.829c-3.738,1.116-7.034,3.598-8.086,7.495c-0.982,3.637,0.025,7.67,2.259,10.645
					c2.585,3.442,6.807,5.024,11.035,4.814c4.213-0.209,9.191-1.968,12.045-5.195c2.568-2.904,3.003-8.061-0.305-10.607
					c-1.635-1.258-3.84-1.641-5.852-1.732c-2.323-0.106-5.096,0.047-7.078,1.398c-1.81,1.235-2.789,3.297-2.368,5.473
					c0.351,1.813,1.757,3.234,3.674,2.643c0.233-0.072,0.191-0.824-0.075-0.835c-0.985-0.038-1.76-0.581-2.319-1.374
					c-0.784-1.112-0.045-2.342,0.873-3.119c1.481-1.253,3.507-1.458,5.371-1.491c2.789-0.051,7.211,0.003,8.596,3.01
					c0.909,1.972-0.721,4.159-2.167,5.38c-1.364,1.152-2.992,2.014-4.661,2.632c-3.567,1.322-7.729,1.607-11.325,0.224
					c-3.055-1.175-5.562-3.683-6.46-6.87c-0.938-3.326,0.714-6.382,3.445-8.294c6.66-4.659,15.387-2.017,22.869-3.59
					c7.812-1.642,14.773-6.151,19.363-12.689C302.855,394.727,302.722,393.769,302.452,394.103L302.452,394.103z"/>
			</g>
		</g>
		<g>
			<g>
				<path fill="#F58E8E" d="M81.572,253.152c-1.497-14.725,4.265-30.154,15.687-39.725
					c10.894-9.129,26.532-12.788,40.128-8.16c12.763,4.345,23.417,15.35,26.162,28.703c3.177,15.457-2.411,33.398,8.097,46.914
					c4.249,5.465,10.732,8.785,17.504,9.841c7.365,1.149,14.903-0.614,21.464-4.003c12.595-6.506,23.532-19.58,21.948-34.491
					c-0.655-6.169-3.561-12.292-8.63-16.021c-6.219-4.575-14.527-4.113-21.529-1.839c-6.685,2.171-13.265,6.06-17.321,11.937
					c-4.12,5.97-5.346,14.095-2.573,20.872c2.491,6.086,8.909,10.544,15.571,10.092c6.791-0.461,12.619-5.666,13.781-12.366
					c1.124-6.48-1.703-14.145-8.846-15.345c-2.978-0.5-6.117,0.403-8.108,2.736c-1.867,2.186-2.373,5.363-2.006,8.138
					c0.364,2.752,1.657,4.869,4.097,6.176c0.833,0.446,1.087-2.323,0.281-2.755c-1.939-1.039-3.157-3.615-2.709-5.766
					c0.558-2.676,3.139-4.29,5.703-4.649c6.243-0.875,11.447,4.739,9.776,10.884c-1.68,6.181-8.701,9.891-14.802,9.081
					c-6.37-0.846-11.862-6.164-12.488-12.617c-0.664-6.842,3.496-13.285,8.645-17.4c5.342-4.268,12.42-7.043,19.238-7.502
					c6.801-0.457,13.302,1.994,17.165,7.771c3.391,5.071,4.149,11.391,2.483,17.2c-1.869,6.518-6.361,12.159-11.503,16.445
					c-5.509,4.592-12.121,8.067-19.212,9.363c-6.592,1.204-13.484,0.384-19.432-2.78c-6.095-3.243-10.218-8.631-12.124-15.233
					c-2.067-7.161-1.794-14.715-1.978-22.088c-0.181-7.294-0.863-14.648-3.895-21.372c-4.929-10.929-14.978-19.372-26.594-22.327
					c-12.686-3.227-26.676-0.021-37.004,7.917c-10.335,7.944-16.557,20.496-17.633,33.393c-0.259,3.104-0.21,6.219,0.114,9.316
					C81.115,254.303,81.627,253.699,81.572,253.152L81.572,253.152z"/>
			</g>
		</g>
		<g>
			<g>
				<path fill="#F58E8E" d="M120.493,282.809c-8.505,0.421-17.054-3.783-22.648-10.069
					c-5.955-6.692-8.575-15.411-7.246-24.292c2.477-16.556,19.208-29.622,35.957-26.48c7.776,1.459,15.225,6.441,19.154,13.363
					c3.708,6.532,3.679,14.162,0.41,20.871c-3.615,7.419-10.749,12.957-19.224,13.023c-8.228,0.064-17.558-6.453-17.535-15.348
					c0.02-7.857,8.906-14.283,16.32-11.604c3.044,1.1,6.387,3.982,5.337,7.561c-0.48,1.634-1.583,3.133-3.091,3.949
					c-1.511,0.817-3.409,0.614-4.922-0.099c-1.298-0.611-2.745-1.902-2.772-3.446c-0.008-0.444-0.15-1.65-0.802-1.634
					c-0.641,0.016-0.743,1.264-0.721,1.672c0.212,3.947,3.41,7.197,7.493,7.039c4.323-0.167,6.627-4.024,6.853-7.998
					c0.271-4.749-2.122-9.127-6.636-10.914c-4.195-1.661-8.898-0.834-12.462,1.871c-7.969,6.048-8.41,17.998-2.282,25.503
					c6.571,8.048,18.738,8.176,27.154,3.054c7.648-4.654,11.445-13.596,11.651-22.3c0.221-9.348-4.359-17.988-11.96-23.356
					c-7.62-5.38-17.391-6.884-26.256-4.02c-8.948,2.891-16.47,9.724-20.433,18.226c-4.396,9.431-4.564,20.952-0.183,30.417
					c4.012,8.667,12.322,14.973,21.82,16.289c2.333,0.323,4.717,0.331,7.059,0.099C120.978,284.139,120.934,282.787,120.493,282.809
					L120.493,282.809z"/>
			</g>
		</g>
		<g>
			<g>
				<path fill="#F58E8E" d="M156.953,259.231c0.988,6.718-3.262,12.933-8.064,17.19c-4.949,4.388-10.938,7.417-15.797,11.913
					c-8.579,7.937-13.561,19.4-13.44,31.091c0.12,11.523,5.495,22.37,14.644,29.387c4.326,3.318,9.415,5.605,14.802,6.498
					c5.37,0.89,10.832,0.029,15.833-2.063c9.988-4.178,17.834-13.26,19.665-24.016c2.084-12.241-2.725-26.638-12.613-34.403
					c-8.436-6.624-20.951-5.976-29.089,0.86c-8.452,7.099-10.031,19.5-5.791,29.335c2.158,5.006,6.17,9.477,11.302,11.51
					c2.945,1.167,5.89,1.449,8.965,0.684c2.632-0.654,4.997-2.11,6.873-4.055c3.928-4.071,5.192-9.801,3.615-15.207
					c-1.443-4.947-5.403-9.529-10.835-9.799c-2.51-0.124-4.457,0.83-5.98,2.795c-0.442,0.57-0.438,1.545-0.221,2.201
					c0.145,0.439,0.607,1.137,1.063,0.55c1.349-1.74,3.981-2.136,6.032-1.876c2.4,0.305,4.606,1.544,6.22,3.326
					c3.561,3.933,4.051,9.783,0.824,14.076c-3.362,4.471-9.204,5.728-14.377,4.095c-4.939-1.558-9.056-5.146-11.427-9.723
					c-4.292-8.286-2.439-18.62,5.022-24.414c7.712-5.988,18.792-6.54,26.759-0.777c4.485,3.245,7.71,8.009,9.885,13.044
					c2.352,5.446,3.343,11.587,2.347,17.464c-1.725,10.182-9.868,17.916-19.47,20.979c-9.577,3.055-19.977,1.114-28.072-4.732
					c-8.132-5.873-13.589-15.324-13.912-25.413c-0.338-10.552,4.193-21.167,11.686-28.533c8.142-8.005,20.387-13.007,23.718-24.888
					c0.669-2.385,0.746-4.949,0.265-7.374C157.253,258.305,156.888,258.79,156.953,259.231L156.953,259.231z"/>
			</g>
		</g>
		<g>
			<g>
				<path fill="#F58E8E" d="M189.282,296.498c0.872,0.698,1.583,1.302,2.555,1.858c0.926,0.53,1.885,0.918,2.899,1.266
					c1.831,0.628,3.713,1.046,5.632,1.29c4.055,0.516,8.161,0.233,12.095-0.884c7.005-1.988,13.221-6.528,17.236-12.612
					c2.239-3.393,3.956-7.16,4.468-11.211c0.042-0.335-0.376-1.758-0.717-0.875c-1.196,3.097-2.372,6.178-4.225,8.957
					c-1.872,2.808-4.151,5.349-6.803,7.44c-5.807,4.578-13.108,6.74-20.474,6.428c-2.066-0.088-4.1-0.407-6.12-0.843
					c-1.153-0.249-2.25-0.646-3.387-0.943c-1.021-0.266-2.065-0.397-3.077-0.663C189.037,295.62,189.113,296.363,189.282,296.498
					L189.282,296.498z"/>
			</g>
		</g>
		<g>
			<g>
				<path fill="#F58E8E" d="M187.761,305.999c2.079,4.258,3.834,8.595,4.559,13.305c0.688,4.465,0.536,9.056-0.486,13.458
					c-0.952,4.097-2.634,8.026-4.924,11.554c-2.363,3.641-5.33,6.55-8.573,9.394c-0.531,0.465-0.382,2.868,0.372,2.36
					c5.845-3.939,10.242-10.611,12.673-17.13c2.654-7.116,3.144-14.896,1.508-22.308c-0.899-4.074-2.36-8.166-4.818-11.566
					C187.768,304.645,187.663,305.798,187.761,305.999L187.761,305.999z"/>
			</g>
		</g>
		<g>
			<g>
				<path fill="#F58E8E" d="M214.721,325.003c-5.687-0.385-11.052-4.763-11.415-10.676
					c-0.313-5.105,3.789-10.169,8.929-10.711c4.883-0.516,10.529,2.899,10.474,8.251c-0.051,5.032-5.691,8.84-10.4,7.042
					c-2.416-0.922-5.251-3.799-3.484-6.451c0.729-1.094,1.989-1.861,3.328-1.766c1.217,0.086,3.173,1.21,3.103,2.644
					c-0.024,0.487,0.447,1.712,0.736,0.651c0.792-2.909-1.54-6.55-4.828-5.872c-3.219,0.664-4.538,4.414-4.011,7.331
					c1.253,6.921,10.389,7.816,14.581,3.034c2.163-2.467,2.59-6.155,1.9-9.264c-0.726-3.273-2.863-5.97-6.023-7.184
					c-6.457-2.482-13.259,1.828-14.887,8.306c-0.909,3.616-0.268,7.776,1.876,10.852c2.301,3.299,6.156,5.092,10.145,4.861
					C215.08,326.031,215.059,325.025,214.721,325.003L214.721,325.003z"/>
			</g>
		</g>
		<g>
			<g>
				<path fill="#F58E8E" d="M202.004,329.335c0.252,1.624,0.655,3.221,0.744,4.868c0.081,1.504,0.026,3.01-0.219,4.498
					c-0.243,1.478-0.662,2.931-1.237,4.314c-0.311,0.748-0.665,1.478-1.06,2.185c-0.421,0.754-0.959,1.417-1.11,2.281
					c-0.073,0.422-0.179,1.873,0.555,1.884c0.732,0.011,1.176-1.175,1.485-1.728c0.475-0.851,0.886-1.737,1.239-2.645
					c0.696-1.791,1.173-3.652,1.446-5.554c0.268-1.861,0.311-3.757,0.134-5.628c-0.169-1.782-0.438-3.746-1.339-5.32
					C202.205,327.724,201.951,328.998,202.004,329.335L202.004,329.335z"/>
			</g>
		</g>
		<g>
			<g>
				<path fill="#F58E8E" d="M224.208,298.685c1.397-0.633,2.722-1.421,3.933-2.362c1.224-0.951,2.295-2.194,3.213-3.435
					c0.476-0.645,1.071-1.395,1.265-2.188c0.078-0.32,0.142-1.153-0.234-1.337c-0.374-0.183-0.91,0.818-1.058,1.045
					c-0.862,1.331-1.876,2.576-3.023,3.672c-1.339,1.28-2.694,2.479-4.266,3.472C223.751,297.733,223.816,298.862,224.208,298.685
					L224.208,298.685z"/>
			</g>
		</g>
		<g>
			<g>
				<path fill="#F58E8E" d="M141.128,291.269c0.895-0.764,1.924-1.468,2.885-2.161c1.049-0.755,2.109-1.489,3.246-2.106
					c2.427-1.317,5.093-2.175,7.838-2.492c2.766-0.319,5.579-0.129,8.271,0.587c1.375,0.366,2.703,0.868,3.977,1.503
					c1.13,0.563,2.229,1.584,3.442,1.891c0.475,0.12,0.285-1.227,0.139-1.407c-0.869-1.081-2.35-1.727-3.59-2.297
					c-1.255-0.577-2.567-1.041-3.902-1.392c-2.785-0.732-5.717-0.952-8.572-0.545c-2.612,0.372-5.169,1.233-7.486,2.49
					c-1.264,0.686-2.496,1.477-3.568,2.44c-1.111,0.999-1.892,2.053-2.727,3.28C141.056,291.099,141.065,291.323,141.128,291.269
					L141.128,291.269z"/>
			</g>
		</g>
		<g>
			<g>
				<path fill="#F58E8E" d="M132.923,194.413c12.95,0.043,25.305,5.826,33.005,16.362c3.667,5.017,6.193,10.964,7.099,17.12
					c1.051,7.147-0.344,14.33-0.951,21.45c-0.316,3.704-0.399,7.44,0.039,11.138c0.359,3.027,0.929,7.136,3.209,9.375
					c0.19,0.186,0.199-0.324,0.176-0.408c-0.973-3.548-2.164-6.9-2.447-10.603c-0.262-3.437-0.044-6.885,0.296-10.308
					c0.718-7.24,1.898-14.506,0.773-21.772c-1.898-12.26-9.419-23.354-20.606-28.909c-6.383-3.17-13.493-4.723-20.607-4.002
					C132.728,193.875,132.741,194.413,132.923,194.413L132.923,194.413z"/>
			</g>
		</g>
		<g>
			<g>
				<path fill="#F58E8E" d="M186.458,236.188c3.654-1.941,7.075-4.269,10.817-6.054c3.805-1.815,7.829-3.307,12.021-3.9
					c7.816-1.106,16.517,0.769,21.904,6.876c2.66,3.015,4.559,6.902,4.315,11.002c-0.024,0.408-0.047,1.585,0.491,1.741
					c0.55,0.159,0.734-0.605,0.764-1.014c0.578-7.917-3.937-15.49-11.03-19c-8.07-3.993-17.796-2.522-25.762,0.969
					c-4.892,2.144-9.642,5.108-13.631,8.657C186.199,235.596,186.194,236.329,186.458,236.188L186.458,236.188z"/>
			</g>
		</g>
		<g>
			<g>
				<path fill="#F58E8E" d="M109.646,298.132c-4.006,6.307-6.306,13.178-6.793,20.652
					c-0.503,7.721,0.727,15.562,3.705,22.709c5.849,14.036,19.201,23.684,34.084,25.99c4.11,0.637,8.188,0.661,12.308,0.119
					c4.309-0.566,8.213-1.795,12.007-3.894c0.441-0.244,0.375-2.02-0.165-1.862c-6.596,1.928-13.472,2.799-20.331,2.212
					c-6.964-0.596-13.727-2.744-19.764-6.262c-12.352-7.199-20.094-20.553-20.592-34.817c-0.284-8.142,1.662-16.803,5.843-23.837
					C110.117,298.859,109.905,297.724,109.646,298.132L109.646,298.132z"/>
			</g>
		</g>
		<g>
			<g>
				<path fill="#F58E8E" d="M193.173,343.352c-1.923,8.56-7.457,16.26-15.095,20.623c-4.196,2.397-9.038,3.756-12.845,6.809
					c-3.165,2.538-5.488,6.215-5.296,10.391c0.184,3.984,2.573,7.493,6.05,9.383c3.681,2.001,8.017,1.715,11.7-0.122
					c3.76-1.876,7.323-5.41,8.883-9.352c1.383-3.494,0.937-8.954-3.253-10.292c-2.145-0.685-4.464-0.061-6.474,0.777
					c-2.127,0.888-4.474,2.173-5.792,4.132c-1.182,1.756-1.701,4.347-0.549,6.241c1.005,1.651,3.007,2.297,4.541,0.93
					c0.165-0.147,0.196-0.966-0.129-0.818c-1.828,0.83-4.334-0.865-3.832-2.921c0.475-1.945,2.447-3.133,4.101-3.983
					c2.792-1.434,7.388-3.421,9.911-0.439c2.71,3.202-0.867,7.723-3.234,9.974c-2.66,2.531-6.199,4.33-9.905,4.501
					c-3.383,0.155-6.734-1.298-8.904-3.91c-2.418-2.91-2.158-6.355-0.041-9.367c2.282-3.247,5.771-5.229,9.271-6.919
					c3.435-1.659,6.836-3.264,9.817-5.684c6.023-4.89,10.146-11.823,11.48-19.469C193.633,343.527,193.316,342.718,193.173,343.352
					L193.173,343.352z"/>
			</g>
		</g>
		<g>
			<g>
				<path fill="#F58E8E" d="M214.581,334.392c-5.714,10.66-10.834,22.352-10.529,34.697
					c0.245,9.886,4.122,20.375,12.365,26.32c4.995,3.602,11.073,4.851,16.761,6.915c5.184,1.881,10.793,4.775,12.987,10.175
					c1.093,2.691,1.006,5.739-0.722,8.142c-1.43,1.989-3.768,3.218-6.08,3.904c-4.944,1.469-11.201,0.708-15.098-2.871
					c-1.993-1.83-3.497-4.598-2.965-7.374c0.519-2.709,2.939-4.711,5.588-5.189c2.316-0.417,5.093,0.367,6.107,2.678
					c0.921,2.1-0.197,4.379-2.149,5.392c-0.667,0.346-0.471,2.721,0.365,2.36c4.094-1.768,4.045-8.18,1.644-11.276
					c-3.248-4.188-9.875-1.922-12.03,2.18c-2.699,5.137-0.484,11.961,4.109,15.186c4.622,3.246,11.274,3.588,16.302,1.107
					c5.066-2.5,7.473-7.992,6.256-13.443c-1.416-6.347-6.411-10.383-12.124-12.873c-6.169-2.689-13.107-3.853-18.655-7.845
					c-4.611-3.318-7.854-8.289-9.622-13.643c-4.889-14.81,1.515-30.025,8.133-43.191
					C215.469,335.257,215.081,333.458,214.581,334.392L214.581,334.392z"/>
			</g>
		</g>
		<g>
			<g>
				<path fill="#F58E8E" d="M192.554,362.756c0.388,7.657,1.9,15.223,4.631,22.392c1.355,3.557,3.044,6.926,4.823,10.285
					c1.838,3.471,3.879,7.335,3.628,11.387c-0.42,6.769-7.659,11.22-13.977,9.364c-2.996-0.88-5.801-2.89-7.178-5.742
					c-1.583-3.28-0.76-7.054,2.268-9.163c3.017-2.102,7.459-1.686,9.349,1.729c0.904,1.634,0.306,3.243-1.057,4.424
					c-1.316,1.14-3.004,1.414-4.695,1.376c-0.715-0.016-0.536,1.836-0.08,2.093c3.174,1.788,6.717-1.444,7.449-4.482
					c0.848-3.517-1.019-7.522-4.366-8.975c-3.456-1.5-7.489,0.276-9.472,3.302c-2.276,3.473-2.143,8.252-0.369,11.906
					c3.417,7.036,12.933,9.008,18.672,3.618c2.706-2.541,4.292-5.916,4.356-9.642c0.076-4.46-1.968-8.571-4.001-12.417
					c-2.572-4.865-4.851-9.786-6.429-15.073c-1.597-5.349-2.618-10.823-2.96-16.397
					C193.101,361.971,192.514,361.966,192.554,362.756L192.554,362.756z"/>
			</g>
		</g>
		<g>
			<g>
				<path fill="#F58E8E" d="M174.128,400.176c-6.936,0.615-14.645-0.097-19.896-5.188c-2.227-2.159-3.916-4.966-4.22-8.099
					c-0.148-1.524,0.036-3.085,0.533-4.533c0.517-1.505,1.445-2.757,2.2-4.137c0.166-0.304,0.155-2.19-0.525-1.794
					c-1.436,0.838-2.252,2.779-2.761,4.277c-0.604,1.777-0.869,3.665-0.82,5.54c0.094,3.65,1.421,7.156,3.774,9.95
					c5.35,6.353,14.197,7.848,21.822,5.202C174.551,401.286,174.504,400.143,174.128,400.176L174.128,400.176z"/>
			</g>
		</g>
		<g>
			<g>
				<path fill="#F58E8E" d="M107.768,293.572c-6.545-1.012-13.549-2.032-19.305-5.533c-2.542-1.546-4.799-3.689-6.343-6.245
					c-0.701-1.162-1.268-2.425-1.608-3.741c-0.353-1.365-0.336-2.774-0.538-4.158c-0.057-0.386-0.404-0.951-0.69-0.373
					c-1.347,2.715-0.116,6.752,1.123,9.282c1.405,2.869,3.595,5.327,6.172,7.199c6.138,4.459,13.926,4.947,21.232,5.338
					C108.368,295.369,108.349,293.661,107.768,293.572L107.768,293.572z"/>
			</g>
		</g>
		<g>
			<g>
				<path fill="#F58E8E" d="M235.523,217.441c-10.028-4.54-19.015-11.343-25.086-20.619
					c-6.477-9.896-9.09-22.391-6.296-33.96c2.482-10.276,9.298-19.42,18.44-24.73c10.598-6.155,23.311-4.876,34.439-9.462
					c4.925-2.03,9.304-5.287,11.888-10.026c2.45-4.493,3.249-9.783,2.628-14.837c-1.286-10.474-9.429-18.832-19.307-21.918
					c-5.731-1.791-11.888-1.853-17.725-0.535c-5.352,1.209-10.713,3.422-14.824,7.134c-3.676,3.319-6.1,7.815-5.895,12.863
					c0.225,5.553,3.528,10.33,8.102,13.297c2.491,1.616,5.288,2.722,8.12,3.577c2.971,0.897,6.034,1.642,9.148,1.744
					c5.246,0.172,10.768-1.833,13.412-6.641c2.232-4.056,1.622-9.245-1.309-12.798c-2.945-3.569-7.966-4.407-11.967-2.093
					c-2.023,1.17-3.36,2.975-4.093,5.177c-0.162,0.487-0.248,1.204,0.041,1.666c0.247,0.395,0.522,0.429,0.745-0.018
					c1.901-3.825,7.068-6.179,11.157-4.848c4.304,1.401,7.161,6.712,4.694,10.826c-2.729,4.55-8.514,5.864-13.448,5.422
					c-5.558-0.498-11.674-2.34-16.349-5.44c-4.013-2.661-7.808-7.445-6.429-12.54c1.251-4.619,5.397-8.144,9.389-10.436
					c9.433-5.418,21.955-6.648,31.805-1.659c8.766,4.44,15.183,13.877,13.315,23.948c-0.934,5.035-3.766,9.361-7.938,12.313
					c-4.34,3.071-9.557,4.605-14.719,5.612c-5.891,1.15-11.92,1.706-17.667,3.512c-4.68,1.47-9.013,3.807-12.801,6.928
					c-7.621,6.278-12.826,15.256-14.575,24.967c-1.941,10.775-0.081,22.179,5.104,31.819c4.778,8.882,12.303,16.152,21.083,21.052
					c2.12,1.183,4.4,2.1,6.682,2.919C236.095,219.947,236.175,217.736,235.523,217.441L235.523,217.441z"/>
			</g>
		</g>
		<g>
			<g>
				<path fill="#F58E8E" d="M259.626,75.292c8.713,1.999,15.744,8.825,18.397,17.3c0.095,0.302,0.239-0.048,0.209-0.207
					c-1.716-9.177-9.478-16.66-18.635-18.272C259.273,74.056,259.242,75.204,259.626,75.292L259.626,75.292z"/>
			</g>
		</g>
		<g>
			<g>
				<path fill="#F58E8E" d="M214.453,212.794c-10.19-0.563-20.166-5.136-27.23-12.494
					c-7.207-7.506-10.778-17.638-9.735-28.006c0.522-5.191,2.139-10.283,4.746-14.806c2.635-4.572,6.206-8.077,10.226-11.428
					c4.025-3.356,8.11-6.888,9.716-12.066c1.492-4.808,0.917-10.169-1.15-14.721c-4.512-9.936-16.295-14.414-26.674-13.46
					c-6.069,0.558-11.924,2.626-17.366,5.299c-4.97,2.441-9.922,5.224-13.7,9.35c-3.602,3.933-5.633,8.91-5.618,14.26
					c0.015,5.053,2.052,10.198,6.57,12.822c4.996,2.902,11,2.224,16.245,0.459c2.942-0.99,5.809-2.265,8.606-3.608
					c2.566-1.232,5.082-2.635,7.239-4.512c4.179-3.636,6.657-9.098,5.756-14.683c-0.811-5.028-4.626-8.607-9.564-9.548
					c-5.256-1.001-10.462,1.587-14.197,5.132c-3.939,3.739-7.754,9.878-4.524,15.287c1.249,2.092,3.355,3.312,5.74,2.373
					c0.991-0.39,0.787-4.134-0.337-3.916c-1.669,0.324-4.368-0.963-4.419-2.915c-0.027-1.043,0.755-2.258,1.299-3.088
					c0.74-1.129,1.617-2.174,2.548-3.15c3.376-3.539,8.112-6.247,13.143-5.676c3.945,0.447,8.741,3.294,8.62,7.787
					c-0.139,5.175-4.806,9.048-8.921,11.388c-2.35,1.337-4.839,2.432-7.324,3.49c-2.714,1.156-5.495,2.197-8.411,2.71
					c-4.82,0.848-10.534,0.134-13.873-3.819c-2.785-3.298-2.862-7.858-1.258-11.711c1.925-4.624,5.965-8.138,10.029-10.878
					c8.928-6.016,19.915-10.527,30.858-9.499c9.68,0.91,19.506,7.654,20.204,18.058c0.714,10.654-10.399,15.403-16.259,22.455
					c-5.888,7.085-9.019,16.262-9.243,25.429c-0.225,9.207,2.782,18.259,8.666,25.364c5.735,6.925,13.906,11.871,22.781,13.429
					c2.248,0.395,4.57,0.455,6.847,0.365C214.975,214.247,214.947,212.821,214.453,212.794L214.453,212.794z"/>
			</g>
		</g>
		<g>
			<g>
				<path fill="#F58E8E" d="M178.766,219.553c-1.58-7.789-4.266-15.299-8.594-21.998
					c-4.297-6.652-10.177-12.698-17.494-15.952c-6.939-3.086-14.984-4.13-22.36-2.045c-3.952,1.118-7.375,3.187-10.672,5.59
					c-3.436,2.505-6.743,5.386-10.784,6.883c-3.329,1.233-7.401,1.641-10.677,0.039c-3.571-1.745-4.916-5.377-4.874-9.156
					c0.044-3.984,1.094-8.064,2.429-11.796c1.393-3.895,3.268-7.599,5.602-11.014c2.381-3.484,5.199-6.682,8.416-9.418
					c3.208-2.729,7.014-5.126,11.321-5.411c4.007-0.265,8.088,1.345,9.949,5.078c1.981,3.973,0.929,8.463-0.614,12.385
					c-2.247,5.712-6.402,16.667-14.43,14.948c-3.625-0.776-6.827-4.356-6.519-8.158c0.314-3.875,3.734-8.553,7.863-8.812
					c1.348-0.085,4.282,0.98,3.739,2.818c-0.143,0.482,0.248,2.403,0.814,1.329c0.851-1.615,0.56-3.838-0.491-5.292
					c-1.245-1.724-3.31-2.32-5.333-1.772c-4.11,1.113-6.969,5.434-7.752,9.427c-0.809,4.123,0.189,8.582,3.502,11.348
					c3.073,2.565,7.351,2.66,10.59,0.352c3.198-2.279,5.179-5.942,6.817-9.413c2.09-4.427,4.152-9.06,4.258-14.038
					c0.09-4.198-1.264-8.768-4.786-11.337c-3.551-2.59-8.353-2.491-12.3-0.954c-4.367,1.7-8.038,4.997-11.196,8.379
					c-3.135,3.357-5.757,7.148-7.882,11.216c-2.125,4.071-3.709,8.436-4.665,12.928c-0.926,4.351-1.501,9.084-0.136,13.411
					c1.266,4.013,4.253,6.856,8.442,7.555c4.097,0.684,8.347-0.628,11.858-2.699c4.294-2.534,7.895-6.062,12.167-8.625
					c3.821-2.292,8.161-3.562,12.611-3.738c8.85-0.35,17.571,3.117,24.344,8.704c7.174,5.918,11.641,14.432,14.755,23.043
					c0.75,2.075,1.387,4.188,1.947,6.322C178.681,219.872,178.787,219.656,178.766,219.553L178.766,219.553z"/>
			</g>
		</g>
		<g>
			<g>
				<path fill="#F58E8E" d="M146.761,159.239c5.915,3.148,12.852,3.302,19.053,0.812c5.641-2.266,10.163-6.526,12.662-12.049
					c0.09-0.199-0.088-1.142-0.296-0.79c-2.867,4.83-7.234,8.901-12.443,11.054c-5.944,2.457-12.862,2.214-18.897,0.181
					C146.557,158.352,146.552,159.127,146.761,159.239L146.761,159.239z"/>
			</g>
		</g>
		<g>
			<g>
				<path fill="#F58E8E" d="M138.872,172.444c5.751-1.202,11.849-1.222,17.381,0.951c2.373,0.932,4.607,2.224,6.614,3.795
					c2.174,1.702,3.746,3.749,5.466,5.868c0.527,0.65,0.683-1.195,0.494-1.53c-2.605-4.598-7.518-8.225-12.378-10.094
					c-5.679-2.184-12.051-2.333-17.651,0.143C138.586,171.671,138.625,172.496,138.872,172.444L138.872,172.444z"/>
			</g>
		</g>
		<g>
			<g>
				<path fill="#F58E8E" d="M208.98,113.633c-4.166-7.515-5.555-16.544-1.378-24.392c1.79-3.362,4.441-6.249,7.549-8.436
					c1.541-1.084,3.199-2,4.94-2.721c0.945-0.391,1.913-0.719,2.902-0.981c0.908-0.24,1.855-0.338,2.688-0.795
					c0.794-0.436,0.709-3.061-0.27-3.242c-1.494-0.277-3.419,0.626-4.798,1.17c-1.597,0.63-3.131,1.424-4.571,2.359
					c-2.801,1.819-5.271,4.172-7.213,6.89c-4.138,5.791-5.799,13.326-4.536,20.331c0.674,3.739,2.037,7.441,4.516,10.361
					C209.002,114.407,209.044,113.748,208.98,113.633L208.98,113.633z"/>
			</g>
		</g>
		<g>
			<g>
				<path fill="#F58E8E" d="M160.601,103.732c5.037-3.986,11.759-6.296,18.169-6.392c3.37-0.051,6.768,0.508,9.944,1.638
					c1.583,0.563,3.118,1.264,4.579,2.094c1.452,0.825,2.706,1.972,4.144,2.787c0.754,0.427,0.675-1.874,0.356-2.224
					c-2.215-2.427-5.794-4.072-8.839-5.158c-3.215-1.147-6.625-1.743-10.04-1.678c-7.056,0.135-13.388,2.98-18.48,7.801
					C160.192,102.828,160.309,103.963,160.601,103.732L160.601,103.732z"/>
			</g>
		</g>
		<g>
			<g>
				<path fill="#F58E8E" d="M192.506,90.039c-1.705-1.39-2.477-3.851-1.699-5.937c0.815-2.185,3.092-3.364,5.348-3.314
					c2.382,0.053,4.777,1.556,5.243,4.019c0.481,2.542-2.18,4.96-4.668,4.291c-1.115-0.3-2.582-1.4-2.437-2.707
					c0.147-1.332,1.549-2.283,2.689-2.739c0.163-0.065,0.154-0.644-0.017-0.694c-0.707-0.207-1.315-0.134-1.893,0.357
					c-0.56,0.476-0.97,1.104-1.197,1.802c-0.479,1.474-0.153,3.196,0.963,4.301c1.066,1.056,2.603,1.478,4.039,0.995
					c1.498-0.504,2.6-1.799,3.023-3.302c0.889-3.155-0.923-6.682-4.092-7.586c-2.762-0.788-5.829,0.299-7.144,2.92
					c-1.38,2.751-0.799,6.643,1.754,8.513C192.643,91.122,192.727,90.219,192.506,90.039L192.506,90.039z"/>
			</g>
		</g>
		<g>
			<g>
				<path fill="#F58E8E" d="M284.257,81.99c0.848-2.187,2.625-3.944,4.632-5.108c1.028-0.596,2.146-1.026,3.314-1.246
					c0.58-0.109,1.169-0.169,1.759-0.176c0.714-0.008,1.263,0.051,1.842-0.431c0.314-0.262,0.3-1.016,0.045-1.318
					c-0.531-0.627-1.06-0.774-1.867-0.755c-0.645,0.014-1.287,0.093-1.918,0.23c-1.288,0.28-2.536,0.783-3.655,1.48
					c-2.352,1.467-3.966,3.784-4.694,6.443c-0.073,0.267-0.071,0.718,0.109,0.948C283.973,82.249,284.156,82.251,284.257,81.99
					L284.257,81.99z"/>
			</g>
		</g>
		<g>
			<g>
				<path fill="#F58E8E" d="M346.107,252.464c11.518,6.878,27.76,4.352,36.434-5.979c5.133-6.113,7.555-13.935,12.362-20.26
					c4.359-5.735,11.413-10.676,18.905-8.193c6.879,2.28,11.243,9.132,14.098,15.389c3.366,7.375,5.719,16.255,1.666,23.844
					c-1.692,3.168-4.35,5.896-7.64,7.389c-3.426,1.555-7.339,1.411-10.764-0.067c-6.908-2.982-12.29-11.175-10.351-18.804
					c1.69-6.648,9.879-11.806,16.353-8.224c2.608,1.443,4.899,4.306,5.051,7.374c0.171,3.441-3.19,6.982-6.736,6.372
					c-1.514-0.26-3.647-1.728-3.374-3.47c0.062-0.396,0.023-1.381-0.398-1.613c-0.428-0.236-0.668,0.15-0.759,0.581
					c-0.775,3.644,1.714,7.92,5.842,7.446c3.915-0.45,6.393-4.365,6.688-8.02c0.602-7.463-6.02-14.273-13.597-12.352
					c-8.352,2.116-11.946,11.031-10.342,18.929c1.629,8.025,8.458,15.778,17.115,15.878c8.073,0.094,14.152-7.157,15.816-14.515
					c2.07-9.159-1.228-19.085-5.747-27.018c-3.763-6.606-9.955-13.432-18.295-12.626c-8.564,0.828-14.292,8.632-18.06,15.582
					c-2.238,4.128-4.197,8.434-6.916,12.281c-2.427,3.434-5.5,6.264-9.122,8.403c-6.758,3.99-14.988,4.971-22.574,3.061
					c-1.939-0.488-3.804-1.206-5.583-2.117C345.952,251.619,345.911,252.347,346.107,252.464L346.107,252.464z"/>
			</g>
		</g>
		<g>
			<g>
				<path fill="#F58E8E" d="M343.087,284.437c13.734-7.363,31.844-4.101,42.914,6.554
					c11.775,11.334,15.647,28.582,12.023,44.233c-2.231,9.634-7.008,18.037-12.611,26.078c-0.314,0.451-0.095,2.543,0.54,1.825
					c5.852-6.615,9.977-15.035,12.416-23.487c2.412-8.359,3.042-17.288,1.382-25.852c-3.127-16.133-14.048-30.696-30.499-34.712
					c-9.034-2.206-18.509-0.988-26.348,4.133C342.587,283.416,342.692,284.649,343.087,284.437L343.087,284.437z"/>
			</g>
		</g>
		<g>
			<g>
				<path fill="#F58E8E" d="M358.882,267.117c11.443-1.007,23.861,2.17,32.661,9.722
					c8.871,7.613,14.111,19.484,13.626,31.175c-0.202,4.874-0.773,13.084,5.503,14.62c6.024,1.474,9.857-5.116,11.475-9.84
					c1.87-5.46,2.368-12.216,0.097-17.648c-0.989-2.366-2.816-4.542-5.457-5.015c-2.197-0.393-4.177,0.776-5.328,2.599
					c-1.304,2.067-1.801,4.619-2.035,7.017c-0.232,2.387-0.298,5.144,0.888,7.314c1.073,1.964,3.411,2.728,5.11,1.041
					c1.581-1.57,1.946-4.563,0.407-6.277c-0.691-0.769-0.944,1.52-0.518,2.049c0.574,0.713-0.008,1.524-0.63,2.04
					c-0.757,0.627-1.729,0.719-2.579,0.213c-1.65-0.983-1.686-3.303-1.62-4.996c0.136-3.467,1.193-9.164,5.801-8.849
					c5.972,0.409,6.371,8.683,5.924,13.087c-0.493,4.857-2.392,11.452-7.14,13.814c-2.206,1.097-4.939,1.016-6.738-0.799
					c-2.029-2.047-2.093-5.025-1.968-7.721c0.228-4.921,0.023-9.677-1.199-14.474c-2.336-9.165-7.812-17.517-15.437-23.144
					c-4.367-3.223-9.287-5.61-14.565-6.895c-5.486-1.336-10.806-1.333-16.302-0.081C358.527,266.145,358.55,267.147,358.882,267.117
					L358.882,267.117z"/>
			</g>
		</g>
		<g>
			<g>
				<path fill="#F58E8E" d="M407.638,285.434c1.033-1.666,2.909-3.073,4.659-3.918c1.923-0.929,4.069-1.39,6.203-1.161
					c2.031,0.218,3.968,1.09,5.559,2.359c1.774,1.416,2.733,3.179,3.579,5.231c0.168,0.408,0.487,0.376,0.716,0.073
					c0.294-0.391,0.202-1.071,0.103-1.503c-1.01-4.408-5.349-7.896-9.724-8.479c-2.31-0.308-4.741,0.188-6.765,1.336
					c-2.185,1.24-3.547,2.965-4.677,5.169C407.165,284.783,407.391,285.832,407.638,285.434L407.638,285.434z"/>
			</g>
		</g>
		<g>
			<g>
				<path fill="#F58E8E" d="M400.461,269.938c-3.592-0.851-6.804-3.002-9.171-5.813c-1.156-1.373-2.099-2.915-2.775-4.578
					c-0.678-1.666-0.95-3.395-1.19-5.164c-0.095-0.7-0.652-0.699-0.702,0.017c-0.271,3.923,1.514,7.961,4.009,10.912
					c2.516,2.976,5.986,4.977,9.852,5.543C400.756,270.895,400.759,270.009,400.461,269.938L400.461,269.938z"/>
			</g>
		</g>
		<g>
			<g>
				<path fill="#F58E8E" d="M351.091,375.698c1.563,1.302,3.005,2.503,4.852,3.391c1.64,0.789,3.361,1.401,5.125,1.848
					c3.658,0.927,7.526,1.06,11.232,0.332c3.466-0.681,6.716-2.083,9.597-4.126c2.595-1.84,5.996-4.609,6.832-7.818
					c0.089-0.341,0.077-1.633-0.548-1.406c-0.681,0.247-1.122,1.04-1.583,1.561c-0.501,0.567-1.013,1.129-1.536,1.675
					c-1.188,1.243-2.511,2.354-3.926,3.33c-2.836,1.959-6.103,3.452-9.466,4.218c-3.431,0.781-6.995,0.815-10.454,0.194
					c-1.813-0.325-3.586-0.847-5.287-1.554c-1.598-0.664-3.312-1.321-4.775-2.247C350.97,374.981,350.956,375.586,351.091,375.698
					L351.091,375.698z"/>
			</g>
		</g>
		<g>
			<g>
				<path fill="#F58E8E" d="M321.475,395.83c5.449,7.904,17.94,10.614,26.221,5.734c4.108-2.421,6.572-8.426,3.011-12.413
					c-3.336-3.734-10.17-2.582-11.989,2.149c-0.826,2.147-0.467,5.453,1.745,6.68c2.264,1.256,4.509-0.809,4.383-3.115
					c-0.02-0.37-0.429-1.448-0.78-0.652c-0.7,1.59-2.96,1.932-4.035,0.545c-1.307-1.688,0.839-3.617,2.221-4.416
					c1.758-1.016,4.044-1.35,5.945-0.53c1.777,0.766,3.32,2.556,2.958,4.588c-0.695,3.91-5.446,5.977-8.865,6.784
					c-3.403,0.804-6.891,0.828-10.284-0.044c-3.927-1.01-7.397-3.154-10.409-5.82C321.39,395.132,321.396,395.715,321.475,395.83
					L321.475,395.83z"/>
			</g>
		</g>
		<g>
			<g>
				<path fill="#F58E8E" d="M315.967,398.029c0.911,5.293,0.26,10.834-2.691,15.416c-2.633,4.087-6.713,7.057-11.39,8.364
					c-4.042,1.13-11.193,1.182-11.334-4.613c-0.116-4.72,4.651-9.528,9.481-7.928c2.406,0.797,4.491,3.883,2.033,5.919
					c-1.519,1.258-4.666,0.981-5.633-0.885c-0.497-0.958-0.865,0.788-0.698,1.228c0.419,1.105,0.999,2.082,2.126,2.56
					c1.087,0.46,2.324,0.506,3.433,0.1c2.541-0.93,3.297-3.987,2.913-6.419c-0.454-2.879-2.566-4.998-5.487-5.327
					c-3.05-0.343-5.838,1.42-7.463,3.911c-3.064,4.695-2.859,12.948,3.625,14.475c3.032,0.714,6.384-0.13,9.18-1.346
					c2.839-1.234,5.441-3.1,7.544-5.371c4.895-5.286,7.055-13.498,4.67-20.382C316.127,397.298,315.927,397.797,315.967,398.029
					L315.967,398.029z"/>
			</g>
		</g>
	</g>
</g>
<g id="OBJECTS">
	<g>
		<g>
			
				<path fill="#FFFFFF" stroke="#521A51" stroke-width="4.2002" d="
				M309.715,259.713c-1.365,34.935-9.314,70.795-30.399,98.685c-4.82,6.374-10.595,12.475-18.124,15.142
				c-7.529,2.667-17.126,0.882-21.379-5.88c-4.652-7.382-1.019-14.858-0.116-22.587c0.903-7.781,1.796-15.688,2.751-23.542
				c2.237-18.135,2.835-36.626-0.283-54.698c-3.444-20.014-11.32-38.947-19.038-57.722c-3.077-7.487-6.153-15.016-8.926-22.629
				c-3.119-8.579-5.859-17.273-7.812-26.146c-0.662-3.024-1.239-6.059-1.701-9.125c-7.046-46.759,21.484-97.971,66.836-113.743
				c-7.13,15.1-5.975,33.381-1.701,49.521c2.573,9.734,6.342,19.069,10.291,28.352c2.594,6.101,5.271,12.17,7.739,18.323
				C303.898,173.514,311.395,216.787,309.715,259.713z"/>
			
				<path fill="#D3FFFF" stroke="#521A51" stroke-width="2.1001" d="
				M280.114,115.341c-5.166-0.472-9.944-3.56-12.916-7.823c-1.543-2.226-2.646-4.746-4.284-6.888
				c-1.649-2.153-4.053-3.98-6.762-3.959c-2.615,0.032-4.998,1.848-6.216,4.169c-1.229,2.31-1.46,5.04-1.25,7.655
				c0.966,11.971,10.385,22.377,9.871,34.368c-0.2,4.862-3.644,10.553-8.422,9.702c-2.772-0.493-4.662-3.014-6.185-5.376
				c-6.382-9.949-11.307-20.83-14.565-32.193c-0.635-2.216-2.315-4.065-4.56-4.588c-4.888-1.14-6.991,4.501-7.337,8.902
				c-0.924,11.75-4.967,43.031-11.099,41.026c-0.662-3.024-1.239-6.059-1.701-9.125c-7.046-46.759,21.484-97.971,66.836-113.743
				c-7.13,15.1-5.975,33.381-1.701,49.521C272.396,96.723,276.166,106.058,280.114,115.341z"/>
			
				<path fill="#FFFFFF" stroke="#521A51" stroke-width="4.2002"  d="
				M245.898,357.484c6.458,3.014,12.727,0.294,18.47-3.927c32.09-23.574,58.299-55.086,75.646-90.925
				c14.858-30.683,23.259-64.841,21.484-98.884c-0.483-9.24-1.743-18.471-3.791-27.522c-5.46-24.277-16.507-47.274-33.045-65.797
				c2.594,9.346-1.166,19.279-6.206,27.564c-5.051,8.296-12.107,15.11-18.796,22.146c-4.274,4.494-8.411,9.125-12.37,13.903
				c-8.904,10.732-16.874,22.219-23.164,34.642c-9.094,17.956-14.606,37.981-13.955,58.089c0.661,20.287,7.518,40.291,5.649,60.505
				c-1.113,12.118-5.397,23.857-11.708,34.263c-3.56,5.88-7.897,11.75-8.39,18.607C235.208,347.246,239.44,354.471,245.898,357.484z
				"/>
			
				<path fill="#FFFFFF" stroke="#521A51" stroke-width="4.2002"  d="
				M245.887,374.968c10.406,3.045,21.894-1.008,30.147-8.022c8.264-7.014,13.829-16.643,18.744-26.304
				c4.914-9.661,9.408-19.657,16.118-28.173c21.211-26.892,59.192-33.276,86.683-53.7c7.959-5.912,14.995-13.042,20.854-21.043
				c6.857-9.346,12.107-19.867,15.352-30.987c6.017-20.634,5.114-43.242-2.552-63.329c-0.189,9.146-8.589,17.095-17.158,20.298
				c-8.558,3.213-17.924,3.224-27.029,4.158c-7.823,0.809-15.52,2.394-23.017,4.673c-39.545,12.055-73.158,43.609-86.273,82.976
				c-4.883,14.648-7.098,30.021-10.889,44.985c-3.791,14.963-9.43,29.927-19.899,41.267c-4.326,4.694-9.587,8.968-11.498,15.047
				C233.56,362.892,239.776,373.172,245.887,374.968z"/>
			
				<path fill="#FFFFFF" stroke="#521A51" stroke-width="4.2002"  d="
				M238.684,356.172c1.291,6.615,6.752,11.351,12.832,13.64c7.728,2.909,12.191,0.62,19.584-1.638
				c6.395-1.943,12.958-2.951,19.584-3.413c9.661-0.683,19.458-0.221,29.066,0.168c24.928,1.019,46.917-1.806,69.083-13.777
				c4.19-2.258,8.232-4.778,12.107-7.539c14.165-10.039,26.126-23.206,34.6-38.369c13.042-23.332,17.725-51.232,13.021-77.557
				c-2.237,16.874-15.551,32.667-31.355,38.957c-10.994,4.379-23.038,4.526-34.914,3.182c-3.434-0.399-6.846-0.914-10.217-1.48
				c-15.037-2.562-30.158-6.227-45.342-4.862c-19.531,1.754-37.676,11.887-51.663,25.622
				c-13.987,13.735-24.151,30.924-32.384,48.712C240.007,343.603,237.455,349.924,238.684,356.172z"/>
			
				<path fill="#FFFFFF" stroke="#521A51" stroke-width="4.2002"  d="
				M264.032,395.801c5.534,11.614,16.003,11.215,26.787,9.377c6.374-1.092,12.811,1.722,18.082,5.45
				c5.282,3.728,9.85,8.421,15.278,11.918c9.776,6.3,21.516,8.264,33.245,8.789c2.688,0.126,5.376,0.168,8.044,0.168
				c19.846,0.031,40.007-1.89,58.436-9.23c18.429-7.34,32.888-20.697,41.11-38.758c-13.231,11.897-32.835,16.245-49.857,11.047
				c-13.808-4.211-25.16-13.903-35.923-23.521c-0.473-0.42-0.935-0.84-1.407-1.26c-17.253-15.415-35.429-31.68-59.538-33.518
				c-6.531-0.493-13.199,0.042-19.563,1.659c-7.466,1.89-14.512,5.282-20.413,10.217c-6.836,5.723-11.929,13.598-14.239,22.219
				C262.1,377.698,260.683,388.787,264.032,395.801z"/>
			
				<path fill="#D3FFFF" stroke="#521A51" stroke-width="2.1001"  d="
				M381.65,413.442c-0.882,3.654-5.943,3.885-9.65,3.287c-5.303-0.851-10.595-1.701-15.887-2.552
				c-4.253-0.683-9.608-0.882-11.75,2.856c-1.418,2.478-0.588,5.754,1.25,7.928c1.848,2.174,4.515,3.455,7.14,4.557
				c1.544,0.651,3.098,1.25,4.673,1.817c2.688,0.126,5.376,0.168,8.044,0.168c19.846,0.031,40.007-1.89,58.436-9.23
				c18.429-7.34,32.888-20.697,41.11-38.758c-13.231,11.897-32.835,16.245-49.857,11.047c-13.808-4.211-25.16-13.903-35.923-23.521
				c-0.473-0.42-0.935-0.84-1.407-1.26c0.273,0.661,0.62,1.292,1.008,1.859c1.586,2.331,3.738,4.484,4.095,7.277
				c0.63,5.009-5.187,8.768-10.217,8.411c-5.04-0.357-9.451-3.297-14.05-5.387c-4.589-2.1-10.333-3.266-14.428-0.305
				c-4.61,3.318-4.704,10.679-1.355,15.268c3.35,4.589,9.094,6.815,14.69,7.749c5.607,0.935,11.351,0.819,16.938,1.901
				C378.153,407.268,382.521,409.83,381.65,413.442z"/>
			
				<path fill="#D3FFFF" stroke="#521A51" stroke-width="2.1001"  d="
				M347.575,331.559c0.525,3.266,3.696,5.597,6.941,6.206c3.255,0.62,6.594-0.105,9.818-0.83c6.951-1.554,13.903-3.098,20.854-4.652
				c4.011-0.903,8.484-1.722,11.992,0.42c3.549,2.174,4.641,6.741,3.759,10.91c14.165-10.039,26.126-23.206,34.6-38.369
				c13.042-23.332,17.725-51.232,13.021-77.557c-2.237,16.874-15.551,32.667-31.355,38.957c-10.994,4.379-23.038,4.526-34.914,3.182
				c1.145,0.756,2.415,1.155,3.738,1.029c7.645-0.704,15.541,2.72,20.256,8.778c1.281,1.649,2.373,3.801,1.628,5.754
				c-1.019,2.678-4.578,3.066-7.445,3.182c-8.432,0.326-16.811,2.079-24.666,5.166c-2.688,1.061-5.418,2.342-7.298,4.536
				c-0.019,0.022-0.037,0.044-0.056,0.066c-2.477,2.969,0.678,7.309,4.334,6.049c7.487-2.581,15.008-5.065,22.562-7.449
				c3.171-1.008,6.437-1.995,9.755-1.838c3.329,0.168,6.783,1.733,8.306,4.683c2.594,5.03-1.47,11.089-6.269,14.102
				c-14.239,8.947-33.024,3.465-49.374,7.413C352.594,322.539,346.724,326.319,347.575,331.559z"/>
			
				<path fill="#D3FFFF" stroke="#521A51" stroke-width="2.1001"  d="
				M356.196,189.233c2.268,2.363,6.164,1.502,9.251,0.41c6.962-2.457,13.798-5.261,20.487-8.38c3.171-1.481,7.413-2.856,9.766-0.262
				c2.142,2.363,0.777,6.3-1.533,8.495c-3.35,3.182-14.596,6.752-10.322,13.525c1.061,1.68,3.266,2.373,5.25,2.163
				c1.985-0.22,3.812-1.176,5.534-2.163c4.568-2.625,6.426-5.156,9.682-8.926c2.772-3.224,8.043-7.014,12.338-4.19
				c2.058,1.355,2.951,4.043,2.699,6.5c-0.252,2.457-1.491,4.704-2.951,6.689c-8.821,12.023-26.021,16.864-32.142,30.452
				c-1.502,3.318-1.89,7.865,1.05,10.007c3.486,2.552,8.232-0.388,11.498-3.203c4.494-3.885,8.988-7.76,13.483-11.645
				c2.625-2.258,6.825-4.463,9.104-1.869c1.302,1.491,1.029,3.749,0.577,5.67c-0.42,1.764-0.924,3.507-1.533,5.219
				c6.857-9.346,12.107-19.867,15.352-30.987c6.017-20.634,5.114-43.242-2.552-63.329c-0.189,9.146-8.589,17.095-17.158,20.298
				c-8.558,3.213-17.924,3.224-27.029,4.158c-7.823,0.809-15.52,2.394-23.017,4.673c-2.52,2.069-4.82,4.347-6.742,6.972
				C355.198,182.387,353.739,186.682,356.196,189.233z"/>
			
				<path fill="#D3FFFF" stroke="#521A51" stroke-width="2.1001"  d="
				M287.291,134.042c1.197-0.441,2.415-0.829,3.644-1.176c3.371-0.956,7.592-1.355,9.818,1.355c2.069,2.52,1.208,6.237,0.252,9.345
				l-3.969,12.821c-0.683,2.205-1.376,4.484-1.197,6.794c0.178,2.31,1.439,4.683,3.612,5.492c3.917,1.46,7.56-2.636,9.566-6.3
				c3.686-6.731,7.109-14.123,8.936-21.61c1.838-7.477-0.714-17.431,3.434-24.067c1.754-2.804,5.051-4.862,8.296-4.274
				c11.414,2.09-2.394,37.771-5.25,44.313c-1.281,2.961-2.741,5.933-3.003,9.146c-0.252,3.224,1.029,6.815,3.927,8.222
				c2.594,1.26,5.87,0.42,8.054-1.47c2.184-1.89,3.444-4.641,4.242-7.413c1.585-5.492,1.607-11.33,3.077-16.853
				c1.481-5.523,4.998-11.089,10.543-12.485c2.163-0.546,4.358-0.357,6.437,0.346c-5.46-24.277-16.507-47.274-33.045-65.797
				c2.594,9.346-1.166,19.279-6.206,27.564c-5.051,8.296-12.107,15.11-18.796,22.146
				C295.387,124.634,291.25,129.264,287.291,134.042z"/>
			
				<path fill="#FFFFFF" stroke="#521A51" stroke-width="4.2002"  d="
				M263.124,357.484c-6.458,3.014-12.727,0.294-18.471-3.927c-32.09-23.574-58.299-55.086-75.646-90.925
				c-14.858-30.683-23.259-64.841-21.484-98.884c0.483-9.24,1.743-18.471,3.791-27.522c5.46-24.277,16.507-47.274,33.045-65.797
				c-2.594,9.346,1.166,19.279,6.206,27.564c5.051,8.296,12.107,15.11,18.796,22.146c4.274,4.494,8.411,9.125,12.37,13.903
				c8.905,10.732,16.874,22.219,23.164,34.642c9.093,17.956,14.606,37.981,13.955,58.089c-0.661,20.287-7.518,40.291-5.649,60.505
				c1.113,12.118,5.397,23.857,11.708,34.263c3.56,5.88,7.897,11.75,8.39,18.607C273.814,347.246,269.582,354.471,263.124,357.484z"
				/>
			
				<path fill="#FFFFFF" stroke="#521A51" stroke-width="4.2002"  d="
				M263.134,374.968c-10.406,3.045-21.894-1.008-30.147-8.022c-8.264-7.014-13.829-16.643-18.744-26.304
				c-4.914-9.661-9.409-19.657-16.118-28.173c-21.211-26.892-59.192-33.276-86.682-53.7c-7.959-5.912-14.995-13.042-20.854-21.043
				c-6.857-9.346-12.107-19.867-15.352-30.987c-6.017-20.634-5.114-43.242,2.552-63.329c0.189,9.146,8.589,17.095,17.158,20.298
				c8.558,3.213,17.924,3.224,27.028,4.158c7.823,0.809,15.52,2.394,23.017,4.673c39.545,12.055,73.158,43.609,86.273,82.976
				c4.883,14.648,7.098,30.021,10.889,44.985c3.791,14.963,9.43,29.927,19.899,41.267c4.326,4.694,9.587,8.968,11.498,15.047
				C275.462,362.892,269.246,373.172,263.134,374.968z"/>
			
				<path fill="#FFFFFF" stroke="#521A51" stroke-width="4.2002"  d="
				M270.338,356.172c-1.292,6.615-6.752,11.351-12.832,13.64c-7.728,2.909-12.191,0.62-19.584-1.638
				c-6.395-1.943-12.958-2.951-19.584-3.413c-9.661-0.683-19.458-0.221-29.066,0.168c-24.928,1.019-46.917-1.806-69.084-13.777
				c-4.19-2.258-8.232-4.778-12.107-7.539c-14.165-10.039-26.125-23.206-34.599-38.369c-13.042-23.332-17.725-51.232-13.021-77.557
				c2.237,16.874,15.551,32.667,31.355,38.957c10.994,4.379,23.038,4.526,34.914,3.182c3.434-0.399,6.846-0.914,10.217-1.48
				c15.037-2.562,30.158-6.227,45.342-4.862c19.531,1.754,37.676,11.887,51.663,25.622c13.987,13.735,24.151,30.924,32.384,48.712
				C269.015,343.603,271.566,349.924,270.338,356.172z"/>
			
				<path fill="#FFFFFF" stroke="#521A51" stroke-width="4.2002"  d="
				M244.989,395.801c-5.534,11.614-16.003,11.215-26.787,9.377c-6.374-1.092-12.811,1.722-18.082,5.45
				c-5.282,3.728-9.85,8.421-15.278,11.918c-9.776,6.3-21.516,8.264-33.245,8.789c-2.688,0.126-5.376,0.168-8.044,0.168
				c-19.846,0.031-40.007-1.89-58.436-9.23c-18.429-7.34-32.888-20.697-41.11-38.758c13.231,11.897,32.835,16.245,49.857,11.047
				c13.808-4.211,25.159-13.903,35.923-23.521c0.473-0.42,0.934-0.84,1.407-1.26c17.253-15.415,35.429-31.68,59.538-33.518
				c6.532-0.493,13.199,0.042,19.563,1.659c7.466,1.89,14.512,5.282,20.413,10.217c6.836,5.723,11.929,13.598,14.239,22.219
				C246.922,377.698,248.339,388.787,244.989,395.801z"/>
			
				<path fill="#D3FFFF" stroke="#521A51" stroke-width="2.1001"  d="
				M127.372,413.442c0.882,3.654,5.943,3.885,9.65,3.287c5.303-0.851,10.595-1.701,15.887-2.552
				c4.253-0.683,9.608-0.882,11.75,2.856c1.417,2.478,0.588,5.754-1.25,7.928c-1.848,2.174-4.515,3.455-7.14,4.557
				c-1.544,0.651-3.098,1.25-4.673,1.817c-2.688,0.126-5.376,0.168-8.044,0.168c-19.846,0.031-40.007-1.89-58.436-9.23
				c-18.429-7.34-32.888-20.697-41.11-38.758c13.231,11.897,32.835,16.245,49.857,11.047c13.808-4.211,25.159-13.903,35.923-23.521
				c0.473-0.42,0.934-0.84,1.407-1.26c-0.273,0.661-0.62,1.292-1.008,1.859c-1.586,2.331-3.738,4.484-4.095,7.277
				c-0.63,5.009,5.187,8.768,10.217,8.411c5.04-0.357,9.45-3.297,14.05-5.387c4.589-2.1,10.333-3.266,14.428-0.305
				c4.61,3.318,4.704,10.679,1.355,15.268c-3.35,4.589-9.093,6.815-14.69,7.749c-5.607,0.935-11.351,0.819-16.938,1.901
				C130.869,407.268,126.501,409.83,127.372,413.442z"/>
			
				<path fill="#D3FFFF" stroke="#521A51" stroke-width="2.1001"  d="
				M161.447,331.559c-0.525,3.266-3.696,5.597-6.941,6.206c-3.255,0.62-6.594-0.105-9.818-0.83
				c-6.951-1.554-13.903-3.098-20.854-4.652c-4.011-0.903-8.484-1.722-11.992,0.42c-3.549,2.174-4.641,6.741-3.759,10.91
				c-14.165-10.039-26.125-23.206-34.599-38.369c-13.042-23.332-17.725-51.232-13.021-77.557
				c2.237,16.874,15.551,32.667,31.355,38.957c10.994,4.379,23.038,4.526,34.914,3.182c-1.145,0.756-2.415,1.155-3.738,1.029
				c-7.645-0.704-15.541,2.72-20.256,8.778c-1.281,1.649-2.373,3.801-1.628,5.754c1.019,2.678,4.578,3.066,7.445,3.182
				c8.432,0.326,16.811,2.079,24.666,5.166c2.688,1.061,5.418,2.342,7.298,4.536c0.019,0.022,0.038,0.044,0.056,0.066
				c2.477,2.969-0.678,7.309-4.334,6.049c-7.487-2.581-15.007-5.065-22.562-7.449c-3.171-1.008-6.437-1.995-9.755-1.838
				c-3.329,0.168-6.783,1.733-8.306,4.683c-2.594,5.03,1.47,11.089,6.269,14.102c14.239,8.947,33.024,3.465,49.374,7.413
				C156.427,322.539,162.297,326.319,161.447,331.559z"/>
			
				<path fill="#D3FFFF" stroke="#521A51" stroke-width="2.1001"  d="
				M152.826,189.233c-2.268,2.363-6.164,1.502-9.251,0.41c-6.962-2.457-13.798-5.261-20.487-8.38
				c-3.171-1.481-7.413-2.856-9.766-0.262c-2.142,2.363-0.777,6.3,1.533,8.495c3.35,3.182,14.596,6.752,10.322,13.525
				c-1.061,1.68-3.266,2.373-5.25,2.163c-1.985-0.22-3.812-1.176-5.534-2.163c-4.568-2.625-6.426-5.156-9.682-8.926
				c-2.772-3.224-8.043-7.014-12.338-4.19c-2.058,1.355-2.951,4.043-2.699,6.5c0.252,2.457,1.491,4.704,2.951,6.689
				c8.82,12.023,26.02,16.864,32.142,30.452c1.502,3.318,1.89,7.865-1.05,10.007c-3.486,2.552-8.233-0.388-11.498-3.203
				c-4.494-3.885-8.988-7.76-13.483-11.645c-2.625-2.258-6.825-4.463-9.104-1.869c-1.302,1.491-1.029,3.749-0.578,5.67
				c0.42,1.764,0.924,3.507,1.533,5.219c-6.857-9.346-12.107-19.867-15.352-30.987c-6.017-20.634-5.114-43.242,2.552-63.329
				c0.189,9.146,8.589,17.095,17.158,20.298c8.558,3.213,17.924,3.224,27.028,4.158c7.823,0.809,15.52,2.394,23.017,4.673
				c2.52,2.069,4.82,4.347,6.741,6.972C153.823,182.387,155.283,186.682,152.826,189.233z"/>
			
				<path fill="#D3FFFF" stroke="#521A51" stroke-width="2.1001"  d="
				M221.731,134.042c-1.197-0.441-2.415-0.829-3.644-1.176c-3.371-0.956-7.592-1.355-9.818,1.355
				c-2.069,2.52-1.208,6.237-0.252,9.345l3.969,12.821c0.682,2.205,1.376,4.484,1.197,6.794c-0.178,2.31-1.438,4.683-3.612,5.492
				c-3.917,1.46-7.56-2.636-9.566-6.3c-3.686-6.731-7.109-14.123-8.936-21.61c-1.838-7.477,0.714-17.431-3.434-24.067
				c-1.754-2.804-5.051-4.862-8.296-4.274c-11.414,2.09,2.394,37.771,5.25,44.313c1.281,2.961,2.741,5.933,3.003,9.146
				c0.252,3.224-1.029,6.815-3.927,8.222c-2.594,1.26-5.87,0.42-8.054-1.47c-2.184-1.89-3.444-4.641-4.242-7.413
				c-1.585-5.492-1.606-11.33-3.077-16.853c-1.481-5.523-4.998-11.089-10.543-12.485c-2.163-0.546-4.358-0.357-6.437,0.346
				c5.46-24.277,16.507-47.274,33.045-65.797c-2.594,9.346,1.166,19.279,6.206,27.564c5.051,8.296,12.107,15.11,18.796,22.146
				C213.635,124.634,217.772,129.264,221.731,134.042z"/>
			
				<path fill="none" stroke="#521A51" stroke-width="2.1001"  d="
				M184.89,309.616c33.189,3.493,63.877,25.218,78.201,55.36"/>
			
				<path fill="none" stroke="#521A51" stroke-width="2.1001"  d="
				M203.621,296.853c30.726,9.425,55.907,35.195,64.62,66.13"/>
			
				<path fill="none" stroke="#521A51" stroke-width="2.1001"  d="
				M181.628,330.275c14.941-3.143,30.962-0.868,44.438,6.308c13.476,7.177,24.305,19.201,30.036,33.353"/>
			
				<path fill="none" stroke="#521A51" stroke-width="2.1001"  d="
				M245.403,398.267c-2.157-15.284-13.338-28.947-27.894-34.085c-14.556-5.138-31.836-1.521-43.11,9.022"/>
			
				<path fill="none" stroke="#521A51" stroke-width="2.1001"  d="
				M182.603,387.845c9.633-5.351,21.239-7.049,32.002-4.682c10.762,2.367,20.585,8.777,27.085,17.676"/>
			
				<path fill="none" stroke="#521A51" stroke-width="2.1001"  d="
				M171.491,354.664c12.376-8.571,28.769-11.05,43.126-6.522c14.357,4.528,26.361,15.963,31.58,30.084"/>
			
				<path fill="none" stroke="#521A51" stroke-width="2.1001"  d="
				M237.306,401.885c-10.487-5.541-22.711-7.732-34.469-6.179c-4.289,0.567-8.898,1.868-11.374,5.416"/>
			
				<path fill="none" stroke="#521A51" stroke-width="2.1001"  d="
				M262.82,386.196c7.066-10.36,18.157-17.896,30.391-20.651c12.234-2.755,25.484-0.7,36.31,5.63"/>
			
				<path fill="none" stroke="#521A51" stroke-width="2.1001"  d="
				M274.446,361.035c7.502-7.073,17.481-11.465,27.764-12.222c10.283-0.757,20.797,2.127,29.255,8.025"/>
			
				<path fill="none" stroke="#521A51" stroke-width="2.1001"  d="
				M262.15,393.103c17.06-13.426,42.458-15.124,61.153-4.088"/>
			
				<path fill="none" stroke="#521A51" stroke-width="2.1001"  d="
				M266.59,398.782c17.169-9.589,39.993-7.881,55.545,4.156"/>
			
				<path fill="none" stroke="#521A51" stroke-width="2.1001"  d="
				M269.884,324.837c10.679-19.646,31.469-33.429,53.722-35.616"/>
			
				<path fill="none" stroke="#521A51" stroke-width="2.1001"  d="
				M274.704,338.014c12.269-23.046,38.245-38.078,64.339-37.233"/>
			
				<path fill="none" stroke="#521A51" stroke-width="2.1001"  d="
				M273.797,348.378c16.475-18.315,42.002-28.061,66.491-25.387"/>
			
				<path fill="none" stroke="#521A51" stroke-width="2.1001"  d="
				M264.734,320.475c4.594-18.668,20.375-34.111,39.138-38.301"/>
			
				<path fill="none" stroke="#521A51" stroke-width="2.1001"  d="
				M292.783,275.458c13.642-21.345,35.082-37.584,59.325-44.934"/>
			
				<path fill="none" stroke="#521A51" stroke-width="2.1001"  d="
				M279.846,286.119c4.438-26.783,21.123-51.286,44.416-65.23"/>
			
				<path fill="none" stroke="#521A51" stroke-width="2.1001"  d="
				M327.769,263.187c9.663-9.713,22.928-15.757,36.598-16.675"/>
			
				<path fill="none" stroke="#521A51" stroke-width="2.1001"  d="
				M355.644,264.46c7.448-2.311,14.895-4.622,22.343-6.933"/>
			
				<path fill="none" stroke="#521A51" stroke-width="2.1001"  d="
				M147.643,224.247c25.236,7.908,47.593,24.696,62.227,46.725"/>
			
				<path fill="none" stroke="#521A51" stroke-width="2.1001"  d="
				M166.794,206.067c28.439,16.888,50.542,44.179,61.153,75.506"/>
			
				<path fill="none" stroke="#521A51" stroke-width="2.1001"  d="
				M149.603,242.904c13.433,3.432,25.906,10.55,35.693,20.37"/>
			
				<path fill="none" stroke="#521A51" stroke-width="2.1001"  d="
				M134.159,255.092c8.703,4.211,17.99,7.211,27.512,8.887"/>
			
				<path fill="none" stroke="#521A51" stroke-width="2.1001"  d="
				M200.65,193.051c2.215,6.37,4.429,12.74,6.644,19.11"/>
			
				<path fill="none" stroke="#521A51" stroke-width="2.1001"  d="
				M215.293,184.081c17.614,36.005,27.672,75.685,29.337,115.733"/>
			
				<path fill="none" stroke="#521A51" stroke-width="2.1001"  d="
				M228.427,180.002c10.989,13.251,17.322,29.908,20.244,46.873c2.923,16.965,2.598,34.324,1.441,51.5
				c-0.796,11.817-1.756,24.599,4.615,34.583"/>
			
				<path fill="none" stroke="#521A51" stroke-width="2.1001"  d="
				M279.933,194.656c-11.479,34.24-17.585,70.275-18.026,106.385"/>
			
				<path fill="none" stroke="#521A51" stroke-width="2.1001"  d="
				M269.489,288.975c3.715-37.556,16.04-74.235,35.757-106.414"/>
			
				<path fill="none" stroke="#521A51" stroke-width="2.1001"  d="
				M317.771,196.314c2.214-4.146,3.795-8.629,4.674-13.247"/>
			
				<path fill="none" stroke="#521A51" stroke-width="2.1001"  d="
				M259.12,208.418c-0.375-3.812,0.763-7.753,3.113-10.779"/>
			
				<path fill="none" stroke="#521A51" stroke-width="2.1001"  d="
				M342.418,181.403c0.057-1.66,0.114-3.319,0.172-4.979"/>
			
				<path fill="none" stroke="#521A51" stroke-width="2.1001"  d="
				M252.255,161.038c2.037,10.254,3.06,20.709,3.049,31.163"/>
			
				<path fill="none" stroke="#521A51" stroke-width="2.1001"  d="
				M267.961,147.36c1.646,2.862,2.302,6.283,1.83,9.551"/>
		</g>
		<g>
			<g>
				
					<path fill="#FFFFFF" stroke="#521A51" stroke-width="3.1502"  d="
					M283.359,422.442h29.189l1.551-30.013c-0.045-2.455-2.248-4.917-4.688-5.184c-2.441-0.267-4.941,1.49-5.517,3.877l-21.47,3.487
					l-6.647,28.663L283.359,422.442z"/>
				
					<path fill="#FFFFFF" stroke="#521A51" stroke-width="2"  d="
					M310.049,393.276c-1.401-0.014-2.797,0.59-3.748,1.619c-0.951,1.03-1.44,2.469-1.315,3.865"/>
				
					<path fill="#FFFFFF" stroke="#521A51" stroke-width="3.1502"  d="

					M222.513,422.442h-29.189l-1.551-30.013c0.045-2.455,2.248-4.917,4.688-5.184c2.441-0.267,4.941,1.49,5.517,3.877l21.47,3.487
					l6.646,28.663L222.513,422.442z"/>
				
					<path fill="#FFFFFF" stroke="#521A51" stroke-width="3.1502"  d="
					M288.251,375.5l-7.884,42.899c0.967,0.785,1.955,1.595,2.583,2.67c0.628,1.075,0.831,2.49,0.179,3.552
					c-0.63,1.027-1.867,1.483-3.025,1.814c-8.833,2.532-18.494,2.226-26.915-1.452c-5.537,1.517-11.232,2.455-16.964,2.792
					c-3.24,0.191-6.611,0.166-9.568-1.172c-1.42-0.643-2.748-1.628-3.451-3.018c-1.274-2.522-0.287-5.372,1.494-7.566
					c-2.455-14.817-4.91-29.633-7.365-44.45h71.559C289.003,372.586,288.63,374.55,288.251,375.5z"/>
				
					<path fill="#D3FFFF" stroke="#521A51" stroke-width="3.1502"  d="
					M286.689,325.644c5.624-0.329,11.344,1.277,15.974,4.488c1.428,0.99,2.821,2.225,3.316,3.892
					c0.679,2.287-0.582,4.802-2.465,6.266c-1.884,1.464-4.286,2.108-6.618,2.611c2.624,1.405,5.271,2.826,7.524,4.77
					c2.253,1.945,4.109,4.485,4.69,7.404c0.581,2.919-0.304,6.223-2.647,8.057c-1.84,1.44-4.332,1.831-6.651,1.549
					c-2.319-0.282-4.258-0.829-6.411-1.735c1.763,2.605,3.544,5.295,4.262,8.357c0.718,3.063,0.161,6.623-2.186,8.719
					c-1.803,1.611-4.422,2.118-6.8,1.683s-4.37-1.661-6.189-3.253c0.697,2.856,0.56,6.034-0.998,8.528
					c-1.66,2.656-4.907,4.229-8.02,3.884c-3.113-0.345-6.368-2.502-7.407-5.457c-1.025,3.646-2.28,7.328-4.66,10.275
					c-2.38,2.947-6.104,5.057-9.863,4.59c-3.38-0.42-6.258-2.85-7.991-5.782c-1.733-2.931-2.703-6.419-3.268-9.778
					c0.033,3.373-3.12,6.262-6.484,6.511c-3.365,0.248-6.634-1.752-8.525-4.546s-2.671-6.19-2.68-9.563
					c-1.684,0.414-3.394,0.797-5.129,0.792c-1.734-0.005-3.515-0.43-4.888-1.489c-1.577-1.217-2.462-3.144-2.907-5.086
					c-0.834-3.64-0.431-6.875,1.378-10.142c-2.724,0.793-5.49,1.592-8.327,1.625c-2.837,0.033-5.805-0.796-7.776-2.837
					c-2.142-2.218-2.792-5.666-1.891-8.616c0.9-2.95,2.642-5.474,5.429-6.795c-1.425-0.263-2.852-0.747-3.94-1.704
					c-1.088-0.956-1.778-2.456-1.476-3.873c0.234-1.097,1.008-2,1.853-2.738c2.62-2.29,6.202-3.439,9.665-3.102
					c-2.294,0.767-4.89-2.588-4.781-5.004s1.863-4.439,3.756-5.944c6.077-4.83,14.205-6.32,21.966-6.209
					c7.762,0.111,15.431,1.653,23.176,2.175c6.422,0.433,12.887,0.165,19.283,0.876C274.379,319.755,281.674,321.61,286.689,325.644
					z"/>
				
					<line fill="#FFFFFF" stroke="#521A51" stroke-width="2"  x1="253.045" y1="425.246" x2="252.526" y2="408.318"/>
				
					<path fill="#FFFFFF" stroke="#521A51" stroke-width="2"  d="
					M244.053,404.312c2.687,1.946,6.004,3.005,9.321,2.976c3.317-0.029,6.616-1.145,9.268-3.137"/>
				
					<path fill="#FFFFFF" stroke="#521A51" stroke-width="2"  d="
					M233.82,427.119c-0.822-2.748,0.342-5.969,2.732-7.556"/>
				
					<path fill="#FFFFFF" stroke="#521A51" stroke-width="2"  d="
					M226.771,425.557c-1.017-2.644-0.082-5.91,2.18-7.615"/>
				
					<path fill="#FFFFFF" stroke="#521A51" stroke-width="2"  d="
					M267.061,420.672c1.614,0.078,3.186,0.816,4.278,2.008c1.091,1.192,1.687,2.824,1.622,4.438"/>
				
					<path fill="#FFFFFF" stroke="#521A51" stroke-width="2"  d="
					M274.958,419.224c1.256,0.369,2.373,1.194,3.096,2.285c0.723,1.091,1.047,2.441,0.897,3.742"/>
				
					<path fill="#FFFFFF" stroke="#521A51" stroke-width="2"  d="
					M195.822,393.276c1.401-0.014,2.797,0.59,3.748,1.619c0.951,1.03,1.44,2.469,1.315,3.865"/>
			</g>
			<g>
				
					<path fill="#E85B4B" stroke="#521A51" stroke-width="1.8742"  d="
					M299.802,324.009c0.479,2.985-0.197,6.141-1.855,8.669c-1.659,2.528-4.38,4.191-7.309,4.941c-1.381,2.404-3.05,4.707-5.3,6.327
					c-2.25,1.62-4.957,2.337-7.649,1.675c-3.528,2.981-9.43,3.66-13.678,1.847c-6.393,3.959-14.975,4.256-21.567,0.637
					c-3.387,1.623-7.335,2.043-10.988,1.169s-7.282-2.989-9.566-5.97c-4.235-0.009-8.596-2.169-10.792-5.79
					c-6.198-0.659-11.797-5.258-13.647-11.209c18.167-1.934,36.284-4.471,54.509-5.741
					C267.891,319.454,284.611,319.087,299.802,324.009z"/>
				
					<path fill="none" stroke="#521A51" stroke-width="1.8742"  d="
					M211.775,338.155c-2.449-2.357-4.007-5.619-4.301-9.006"/>
				
					<path fill="none" stroke="#521A51" stroke-width="1.8742"  d="
					M222.078,343.627c-3.949-3.258-6.409-8.254-6.583-13.371"/>
				
					<path fill="none" stroke="#521A51" stroke-width="1.8742"  d="
					M244.692,349.186c-7.428-3.43-13.109-10.427-14.941-18.401"/>
				
					<path fill="none" stroke="#521A51" stroke-width="1.8742"  d="
					M263.453,347.466c6.307-3.457,10.925-9.848,12.225-16.922"/>
				
					<path fill="none" stroke="#521A51" stroke-width="1.8742"  d="
					M276.015,346.712c5.563-4.338,9.466-10.753,10.763-17.687"/>
				
					<path fill="none" stroke="#521A51" stroke-width="1.8742"  d="
					M288.846,340.181c2.226-3.171,3.785-6.808,4.545-10.608"/>
				
					<circle fill="#FDE8AF" stroke="#521A51" stroke-width="1.8742"  cx="239.385" cy="342.693" r="11.908"/>
				
					<path fill="none" stroke="#521A51" stroke-width="1.8742"  d="
					M228.477,347.126c3.617,1.678,7.926,1.798,11.631,0.324c-0.978-1.267-2.038-3.091-1.836-4.679
					c0.202-1.588,1.551-3.085,3.15-3.039c1.254,0.036,2.34,0.977,2.912,2.094c0.572,1.117,0.728,2.393,0.875,3.639
					c2.772-1.774,4.553-4.717,4.514-8.008"/>
				
					<path fill="none" stroke="#521A51" stroke-width="1.8742"  d="
					M231.283,351.045c3.52,1.357,7.527,1.41,11.082,0.147c3.555-1.263,6.63-3.832,8.505-7.106"/>
				
					<circle fill="#FDE8AF" stroke="#521A51" stroke-width="1.8742"  cx="267.737" cy="342.693" r="11.908"/>
				
					<path fill="none" stroke="#521A51" stroke-width="1.8742"  d="
					M278.645,347.126c-3.617,1.678-7.926,1.798-11.631,0.324c0.978-1.267,2.038-3.091,1.836-4.679
					c-0.202-1.588-1.551-3.085-3.15-3.039c-1.254,0.036-2.34,0.977-2.912,2.094c-0.572,1.117-0.728,2.393-0.875,3.639
					c-2.772-1.774-4.553-4.717-4.514-8.008"/>
				
					<path fill="none" stroke="#521A51" stroke-width="1.8742"  d="
					M275.84,351.045c-3.52,1.357-7.527,1.41-11.082,0.147c-3.555-1.263-6.63-3.832-8.505-7.106"/>
			</g>
			<g>
				
					<path fill="#D3FFFF" stroke="#521A51" stroke-width="4.2002"  d="
					M181.73,196.698c-3.327-1.616-5.163-5.583-4.757-9.26c0.406-3.676,2.789-6.958,5.881-8.987c3.092-2.029,6.826-2.909,10.52-3.091
					c8.061-0.396,16.236,2.502,22.247,7.889c4.611,4.132,8.868,7.866,11.281,13.568c-17.732,12.433-31.826,29.017-41.135,48.571
					c-9.12,1.446-18.693,2.119-27.857,0.984c-9.164-1.135-18.343-5.01-24.049-12.27c-5.706-7.261-7.087-18.245-1.748-25.779
					c3.974-5.607,10.771-8.482,17.437-10.154C160.002,195.547,171.142,194.699,181.73,196.698z"/>
				
					<path fill="#D3FFFF" stroke="#521A51" stroke-width="2.1001"  d="
					M140.481,227.18c-1.225-3.526-0.18-7.578,2.086-10.544c2.266-2.966,5.609-4.955,9.104-6.265c6.09-2.283,12.87-1.208,19.18,0.364
					c-3.091,1.521-4.248,5.985-2.286,8.817c1.963,2.831,6.426,3.756,8.936,1.396c-2.785,2.066-3.574,6.378-1.701,9.296
					c1.872,2.918,6.12,3.999,9.159,2.329"/>
				
					<path fill="none" stroke="#521A51" stroke-width="2.1001"  d="
					M157.52,209.251c-4.107,1.454-6.072,6.643-4.823,10.817s5.007,7.231,9.111,8.695c4.104,1.463,8.554,1.564,12.911,1.513"/>
			</g>
			<g>
				
					<path fill="#D3FFFF" stroke="#521A51" stroke-width="4.2002"  d="
					M263.134,195.654c-5.737-3.732-9.701-10.073-10.542-16.865c-0.303-2.45-0.134-5.176,1.508-7.019
					c1.511-1.697,4.028-2.263,6.255-1.808c2.227,0.456,4.184,1.802,5.794,3.406c-0.235-8.91,0.744-18.717,3.531-27.183
					c2.787-8.466,8.298-16.347,16.257-20.357c7.96-4.011,18.483-3.41,24.938,2.736c3.801,3.618,5.878,8.66,7.525,13.643
					c8.955,27.082,8.102,57.078-1.1,84.077c3.01-0.605,5.752,2.753,6.512,5.728c0.76,2.975-0.525,6.223-2.738,8.352
					c-2.213,2.129-5.22,3.264-8.243,3.801C304.665,222.057,282.891,208.504,263.134,195.654z"/>
				
					<path fill="#D3FFFF" stroke="#521A51" stroke-width="2.1001"  d="
					M304.667,212.125c2.738-2.939,3.147-7.785,0.938-11.141c-2.208-3.356-6.82-4.898-10.603-3.546
					c2.913-0.894,5.193-2.176,6.981-4.643c1.788-2.467,2.284-6.024,0.613-8.573c-1.062-1.62-2.843-2.655-4.694-3.228
					c-5.721-1.771-12.496,0.869-15.51,6.044c0.204-0.25,0.409-0.5,0.613-0.75c-2.938-12.639-1.305-25.334,5.484-36.392
					c2.285-3.722,5.984-7.526,10.283-6.756c3.379,0.605,5.595,3.822,7.126,6.895c5.366,10.765,7.092,23.305,4.836,35.12"/>
				
					<path fill="none" stroke="#521A51" stroke-width="2.1001"  d="
					M287.301,152.397c1.34-1.29,3.511-1.4,5.227-0.682c1.717,0.718,3.053,2.117,4.196,3.586c5.86,7.529,7.74,17.988,4.868,27.086"/>
			</g>
			<g>
				
					<path fill="#FFFFFF" stroke="#521A51" stroke-width="4.2002"  d="
					M350.92,277.228c-2.163,3.276-5.492,5.46-9.283,6.479c2.541,0.052,4.757,2.142,5.397,4.61c0.63,2.457-0.126,5.124-1.565,7.214
					c-1.449,2.09-3.518,3.654-5.691,4.977c-5.292,3.224-11.036,5.828-17.221,6.227c1.061,2.373,0.483,5.229-0.924,7.413
					c-1.418,2.174-3.56,3.77-5.765,5.145c-3.959,2.457-8.243,4.316-12.706,5.702c-3.812,1.197-7.749,2.037-11.708,2.625
					c-7.728,1.134-15.551,1.334-23.353,1.428c-6.647,1.071-13.63,1.659-20.865,1.659c-7.266,0-14.291-0.599-20.959-1.68
					c-7.424-0.094-14.848-0.326-22.188-1.407c-8.138-1.208-16.213-3.507-23.301-7.665c-0.378-0.21-0.756-0.431-1.124-0.662
					c-2.205-1.375-4.347-2.972-5.754-5.145c-1.407-2.184-1.985-5.04-0.924-7.413c-6.185-0.399-11.939-3.003-17.232-6.227
					c-2.163-1.323-4.242-2.888-5.681-4.977c-1.449-2.09-2.205-4.757-1.564-7.214c0.63-2.468,2.856-4.557,5.387-4.61
					c-3.78-1.019-7.109-3.203-9.272-6.479c-2.163-3.266-2.678-7.728-0.766-11.152c2.09-3.738,6.584-5.586,10.858-5.67
					c4.263-0.084,8.411,1.313,12.454,2.688c-2.069-1.743-2.153-4.704-1.187-7.235c0.021-0.063,0.042-0.137,0.074-0.2
					c1.05-2.573,3.486-4.431,6.174-5.166c2.216-0.609,4.578-0.493,6.825,0.042c0.158-1.229,0.346-2.457,0.567-3.665
					c2.174-11.918,7.413-22.755,14.879-31.67c12.611-15.068,31.554-24.656,52.734-24.656c35.093,0,64.033,26.304,68.212,60.273
					c2.552-0.777,5.292-1.029,7.865-0.326c2.678,0.735,5.124,2.594,6.164,5.166c0.042,0.095,0.073,0.189,0.116,0.294
					c0.924,2.51,0.819,5.418-1.229,7.14c4.043-1.376,8.19-2.772,12.464-2.688c4.274,0.084,8.768,1.932,10.847,5.67
					C353.587,269.5,353.072,273.963,350.92,277.228z"/>
				
					<path fill="#D3FFFF" stroke="#521A51" stroke-width="2.1001"  d="
					M231.381,259.776c-0.766,1.302-1.659,2.583-2.898,3.444c-1.239,0.872-2.888,1.281-4.295,0.724
					c-1.974-0.777-2.951-3.15-4.914-3.969c-1.754-0.735-3.801,0-5.324,1.134c-1.523,1.134-2.741,2.636-4.284,3.749
					c-3.171,2.289-7.466,2.657-11.236,1.586c-3.77-1.061-7.056-3.423-9.86-6.153c-3.57-3.476-6.804-8.243-8.947-13.42
					c2.174-11.918,7.413-22.755,14.879-31.67c2.835-0.399,5.744-0.326,8.568,0.137c5.817,0.955,11.278,3.465,16.381,6.416
					c1.575,0.914,3.392,1.911,5.124,1.334c1.901-0.63,2.846-2.898,4.715-3.602c1.817-0.693,3.927,0.389,5.019,1.995
					c1.092,1.607,1.397,3.602,1.628,5.534C237.303,238.156,237.093,250.105,231.381,259.776z"/>
				
					<path fill="#D3FFFF" stroke="#521A51" stroke-width="2.1001"  d="
					M263.633,259.776c0.767,1.302,1.659,2.583,2.898,3.444c1.239,0.872,2.888,1.281,4.295,0.724c1.974-0.777,2.951-3.15,4.914-3.969
					c1.754-0.735,3.801,0,5.324,1.134c1.523,1.134,2.741,2.636,4.284,3.749c3.171,2.289,7.466,2.657,11.236,1.586
					c3.77-1.061,7.056-3.423,9.86-6.153c3.57-3.476,6.804-8.243,8.947-13.42c-2.174-11.918-7.414-22.755-14.879-31.67
					c-2.835-0.399-5.744-0.326-8.568,0.137c-5.817,0.955-11.278,3.465-16.381,6.416c-1.575,0.914-3.392,1.911-5.124,1.334
					c-1.901-0.63-2.846-2.898-4.715-3.602c-1.817-0.693-3.927,0.389-5.019,1.995c-1.092,1.607-1.397,3.602-1.628,5.534
					C257.711,238.156,257.921,250.105,263.633,259.776z"/>
				
					<path fill="#D3FFFF" stroke="#521A51" stroke-width="1.8742"  d="
					M180.19,289.966c-0.735,2.079,0.43,4.442,2.174,5.765c1.754,1.333,3.969,1.869,6.101,2.363
					c5.681,1.334,11.362,2.657,17.043,3.98c2.499,0.577,5.04,1.187,7.235,2.51c2.195,1.334,4.022,3.539,4.221,6.101
					c0.178,2.331-1.019,4.62-2.741,6.206c-1.733,1.575-3.927,2.552-6.143,3.308c-8.779,2.982-18.534,2.783-27.291-0.241
					c-0.378-0.21-0.756-0.431-1.124-0.662c-2.205-1.375-4.347-2.972-5.754-5.145c-1.407-2.184-1.985-5.04-0.924-7.413
					c-6.185-0.399-11.939-3.003-17.232-6.227c-2.163-1.323-4.242-2.888-5.681-4.977c-1.449-2.09-2.205-4.757-1.564-7.214
					c0.63-2.468,2.856-4.557,5.387-4.61c-3.78-1.019-7.109-3.203-9.272-6.479c-2.163-3.266-2.678-7.728-0.766-11.152
					c2.09-3.738,6.584-5.586,10.858-5.67c4.263-0.084,8.411,1.313,12.454,2.688c-2.069-1.743-2.153-4.704-1.187-7.235
					c12.023,10.858,27.512,17.872,43.63,19.657c2.268,0.252,4.578,0.41,6.71,1.229c2.132,0.819,4.095,2.436,4.683,4.641
					c0.798,3.024-1.313,6.248-4.127,7.624c-2.814,1.386-6.111,1.323-9.22,0.956c-6.5-0.767-12.832-2.73-19.363-3.276
					c-1.565-0.126-3.171-0.168-4.673,0.294C182.112,287.445,180.715,288.496,180.19,289.966z"/>
				
					<path fill="#D3FFFF" stroke="#521A51" stroke-width="1.8742"  d="
					M350.92,277.228c-2.163,3.276-5.492,5.46-9.283,6.479c2.541,0.052,4.757,2.142,5.397,4.61c0.63,2.457-0.126,5.124-1.565,7.214
					c-1.449,2.09-3.518,3.654-5.691,4.977c-5.292,3.224-11.036,5.828-17.221,6.227c1.061,2.373,0.483,5.229-0.924,7.413
					c-1.418,2.174-3.56,3.77-5.765,5.145c-3.959,2.457-8.243,4.316-12.706,5.702c-0.682-0.052-1.365-0.137-2.048-0.241
					c-6.437-1.008-12.842-4.473-15.688-10.322c-0.84-1.743-1.355-3.675-1.134-5.597c0.21-1.911,1.228-3.791,2.898-4.757
					c1.691-0.977,3.77-0.924,5.733-0.903c9.23,0.052,18.46-1.523,27.144-4.652c2.573-0.935,5.502-2.51,5.712-5.24
					c0.126-1.712-0.966-3.35-2.426-4.263c-1.449-0.914-3.203-1.218-4.925-1.313c-11.036-0.599-21.421,6.489-32.457,5.901
					c-3.444-0.179-7.214-1.407-8.82-4.463c-1.134-2.163-0.914-4.883,0.199-7.056c1.113-2.174,3.024-3.854,5.124-5.103
					c6.563-3.906,14.659-3.801,22.03-5.786c9.555-2.573,17.641-8.6,25.086-15.247c0.924,2.51,0.819,5.418-1.229,7.14
					c4.043-1.376,8.19-2.772,12.464-2.688c4.274,0.084,8.768,1.932,10.847,5.67C353.587,269.5,353.072,273.963,350.92,277.228z"/>
				<g>
					
						<path fill="none" stroke="#521A51" stroke-width="4.2002"  d="
						M225.854,256.488c0.874-3.4-0.568-7.271-3.452-9.272c-2.884-2-7.016-1.993-9.894,0.017c-2.878,2.01-4.306,5.887-3.421,9.283
						c-3.247-1.055-4.721-2.195-7.969-3.249"/>
					
						<path fill="#FFFFFF" stroke="#521A51" stroke-width="4.2002"  d="
						M209.703,240.025c3.42-4.478,10.001-6.209,15.182-3.994"/>
					
						<path fill="none" stroke="#521A51" stroke-width="4.2002"  d="
						M269.16,256.488c-0.874-3.4,0.568-7.271,3.452-9.272c2.884-2,7.016-1.993,9.894,0.017c2.878,2.01,4.306,5.887,3.421,9.283
						c3.247-1.055,4.721-2.195,7.969-3.249"/>
					
						<path fill="#FFFFFF" stroke="#521A51" stroke-width="4.2002"  d="
						M285.311,240.025c-3.42-4.478-10.001-6.209-15.182-3.994"/>
					
						<ellipse transform="matrix(0.2306 -0.973 0.973 0.2306 -15.0655 400.2437)" fill="#E85B4B" stroke="#521A51" stroke-width="2.1001"  cx="245.568" cy="209.649" rx="8.931" ry="8.931"/>
					
						<path fill="#FFFFFF" stroke="#521A51" stroke-width="1.0501"  d="
						M243.15,251.026c2.683-1.074,5.717-1.249,8.506-0.489"/>
					
						<path fill="#FFFFFF" stroke="#521A51" stroke-width="1.0501"  d="
						M245.326,245.502c1.385-0.006,2.769-0.011,4.154-0.017"/>
					
						<path fill="#FFFFFF" stroke="#521A51" stroke-width="1.0501"  d="
						M232.683,271.447c-0.926,0.941-1.712,2.093-1.893,3.4c-0.181,1.308,0.372,2.775,1.55,3.371
						c1.162,0.588,2.594,0.213,3.713-0.452c1.257-0.747,2.302-1.848,2.983-3.143C236.647,274.997,234.011,273.469,232.683,271.447z"
						/>
					
						<path fill="#FFFFFF" stroke="#521A51" stroke-width="1.0501"  d="
						M262,271.447c0.926,0.941,1.712,2.093,1.894,3.4c0.181,1.308-0.372,2.775-1.55,3.371c-1.162,0.588-2.594,0.213-3.714-0.452
						c-1.257-0.747-2.302-1.848-2.983-3.143C258.037,274.997,260.673,273.469,262,271.447z"/>
					<path fill="#521A51" d="M254.499,259.498c0,2.868-3.022,7.293-6.75,7.293c-3.728,0-6.75-4.425-6.75-7.293
						s3.022-5.193,6.75-5.193C251.477,254.305,254.499,256.63,254.499,259.498z"/>
					
						<path fill="none" stroke="#521A51" stroke-width="2.1001"  d="
						M231.937,266.766c-0.031,2.768,1.596,5.49,4.049,6.773c2.453,1.283,5.617,1.066,7.872-0.538
						c2.255-1.604,3.497-4.523,3.09-7.261"/>
					
						<path fill="none" stroke="#521A51" stroke-width="2.1001"  d="
						M262.775,266.766c0.031,2.768-1.596,5.49-4.049,6.773c-2.453,1.283-5.617,1.066-7.872-0.538
						c-2.255-1.604-3.497-4.523-3.09-7.261"/>
					
						<path fill="#521A51" stroke="#521A51" stroke-width="2.1001"  d="
						M254.156,281.124c0,5.67-0.483,10.921-1.302,15.173c-1.229,6.416-3.213,10.574-5.45,10.574c-1.953,0-3.707-3.15-4.935-8.19
						c-1.124-4.599-1.816-10.774-1.816-17.557c0-2.363,0.084-4.641,0.241-6.815c0.882-0.178,1.743-0.493,2.52-0.956
						c1.827-1.092,3.182-2.961,3.665-5.04c0.473,1.953,2.121,3.528,3.822,4.578c0.924,0.578,1.942,0.966,3.003,1.218
						C254.062,276.336,254.156,278.688,254.156,281.124z"/>
					
						<path fill="#E85B4B" stroke="#521A51" stroke-width="1.8742"  d="
						M252.854,296.297c-1.229,6.416-3.213,10.574-5.45,10.574c-1.953,0-3.707-3.15-4.935-8.19c-0.01-0.158-0.01-0.326-0.01-0.483
						c0-7.791,2.342-14.123,5.229-14.123C250.334,284.075,252.518,289.399,252.854,296.297z"/>
					
						<path fill="none" stroke="#521A51" stroke-width="2.1001"  d="
						M240.911,311.546c1.178,2.173,3.503,3.68,5.967,3.868c2.465,0.188,4.991-0.95,6.484-2.919"/>
				</g>
			</g>
		</g>
	</g>
</g>
</svg>
