<svg xmlns="http://www.w3.org/2000/svg" viewBox="0 0 891.69 958.29"><defs><style>.cls-1{fill:#1f1808;}.cls-2{fill:#010100;}.cls-3{fill:#231b07;}.cls-4{fill:#fcd824;}.cls-5{fill:#ec2226;}.cls-6{fill:#f1f90e;}.cls-7{fill:#964122;}.cls-8{fill:#eff70e;}.cls-9{fill:#010000;}.cls-10{fill:#29170d;}.cls-11{fill:#2a1509;}.cls-12{fill:#110d05;}.cls-13{fill:#44330c;}.cls-14{fill:#f5f6f4;}.cls-15{fill:#f2f6f4;}.cls-16{fill:#ef548e;}.cls-17{fill:#a01d34;}</style></defs><title>Asset 5@</title><g id="Layer_2" data-name="Layer 2"><g id="Layer_1-2" data-name="Layer 1"><path class="cls-1" d="M786,326.52c-27.28,13.26-55.73,23.37-84.93,31.39-9.61,2.64-19.17,5.63-29.12,6.91-4,.53-6.37,1.82-6.44,6.81-.3,19.69-3.13,39.12-6.83,58.46-1.69,8.85-1.46,17.9-1,26.92.47,10.31,1,20.63-.61,30.93-4.08,26.51-17,48-36.76,65.77-2.12,1.9-5.15,3.07-6.15,7.11,8.5,1.62,16.86,3.27,25.24,4.8,33.21,6,64.75,17.79,96.58,28.51a45.24,45.24,0,0,1,7.07,3.6c1.24.69,2.4,2.25,1.67,3.22-3.23,4.27-.8,6.57,2,9.93,3.18,3.89-3,4.92-3.89,8.28.29,2.13,2.7,3.08,4,4.88a9.06,9.06,0,0,1,1.39,2.57c.13.46-.36,1.55-.7,1.62-6.59,1.22-1,9.24-7.92,12-44.35,17.67-89.38,32.63-136.83,39.37-4.61.66-9.27,1-13.92,1.27-4.28.21-5.72,2.32-5.49,6.4.49,8.65.75,17.31,1.12,26,.11,2.47.74,4.39,3.65,5.13,18.34,4.64,26,18.12,28.61,35.48,4.41.14,7-2.82,10.2-4.41,3.57-1.78,6.92-4,10.44-5.88,3.23-1.74,7.06-4,10-.73,2.59,2.82,0,6.23-1.36,9.22l-1.25,2.78c2.73,2,4.92-.83,7.45-.88,3.31-.07,6.85-1.11,8,3.55a2.81,2.81,0,0,0,1,1.63c2.38,1.41,6.37.77,6.57,4.91.18,3.51-1.95,6.29-3.47,9.22a50.88,50.88,0,0,1-11.89,14.68c-34.95,30.89-69.6,62.15-107,90.16-9.06,6.79-18.46,13.13-27.74,19.62a26.07,26.07,0,0,1-13.91,5c-11.48.52-19.08-5.91-20.21-17.37-.57-5.75.62-11.25,2.39-16.69,2.31-7.08,2.26-7.17-5-9.5a173.28,173.28,0,0,0-33.23-6.71c-34.55-4-69.16-3.56-103.79-.95-19.27,1.45-38.51,2.79-57.56,6.29a32.16,32.16,0,0,0-15,7.31c-24.84,20.37-46.6,43.79-67.56,68-5.89,6.8-11.75,13.64-17.7,20.39-1.74,2-3.47,4.1-6.29,4.68-3.25.68-4.93-1.17-6.21-3.76-.87-1.76-2.19-.58-3.37-.44-7.17.87-7.17.85-9.61-7a5.11,5.11,0,0,0-1.84,0c-2.9,1.34-5.57,4.49-9.08,2.11-3.75-2.53-2.34-6.63-2-10.13.47-5.37,2.71-10.3,4.93-15.12a221.49,221.49,0,0,1,28.67-46.71c2.06-2.56,4.77-4.7,5.84-8.35-3.06-1.23-6.14-2.37-9.13-3.69-22.17-9.76-33.74-26.9-36.33-50.86-3.4-31.33,2.06-61.72,8.83-92,2-8.81,2.08-8.64-5.33-13.49-7.15-4.67-15.41-7.62-22.18-13.66,7.58-5.85,16.67-7.7,24.89-12.91-2.36-4.53-6-7.87-9.35-11.3-15.18-15.45-30.49-30.79-45.75-46.16l-1.41-1.42c-8-7.91-8-7.95,2.6-12.88,7.53-3.52,15.15-6.87,22.67-10.41,2-1,4.49-1.31,5.7-3.68-.36-3.6-3.21-5.73-5.16-8.3C97.06,561.48,76,535.69,54.57,510.13c-1.49-1.78-3-3.54-4.51-5.34-1.66-2-1.06-3.65,1-4.9q3.41-2.07,6.9-4c22.45-12.48,46.2-22.1,69.88-31.87,3-1.26,6.06-2.63,9.6-4.17-1.85-4.06-5-6.53-7.61-9.24-38.95-39.82-79.36-78.06-123.62-112-5.9-4.53-7.39-8.62-5.31-16,16.66-58.93,31.48-118.34,45.27-178,.79-3.4.17-8.57,3.66-9.75,4.31-1.46,6.46,3.69,9.16,6.3,34.15,32.87,66.22,67.58,94,106.1,9.17,12.7,18.24,25.45,26.37,38.85,3.58,5.9,6.57,12.2,14.36,13.85,1.82.38,3.34,2.11,5,3.21.55-.49,1.25-.83,1.49-1.37,4.9-11.13,4.89-11.13,14.9-2.22a19.61,19.61,0,0,0,2.29-3c5.32-10.77,5.3-10.78,12.87-.9,5-2.14,5.31-9.07,11.64-11,11.34,26,22.74,52.07,34.65,79.35,14.59-20.37,33.69-35.54,44.64-57.42a304.45,304.45,0,0,1,23.55-39.42c3.7-5.24,4.13-9.74,1.72-15.66-12.3-30.3-20.26-61.94-28.29-93.55a7.72,7.72,0,0,1,0-2c.61-1.53,1.43-2.73,3.38-2.1,3.91,3.32,4.1,8.25,5.19,12.68,6.15,24.93,12.78,49.71,22.13,73.67,4.42,11.31,4.45,11.26,14.07,4.6,6-4.17,12.14-8.24,18.91-11.14,1.81-.78,4.13-1.36,5.48.62s-.31,3.76-1.66,5.15c-3,3.14-6.79,5.39-10.48,7.63-12.86,7.79-22.66,18.44-30.19,31.35-5.37,9.22-11.28,18.12-16.17,27.6-8.66,16.76-20.42,31.21-33.52,44.55-33.54,34.14-30.2,73.58-16.84,114.51,1.75,5.38,4.34,10.46,6.59,15.65,1.37,3.17,4.24,7.6-.4,9.56-4.29,1.82-6.17-3-7.7-6.15-8.41-17.22-14.45-35.32-15.57-54.46s-1.85-38.74,6.85-57c1.84-3.84,1.3-7.79-.22-11.66-7.77-19.87-17.1-39.06-25.38-58.71-1.42-3.37-3.15-5.33-6.35-1.6-2.62,3.05-5.47,5.07-9.36,2-2.34-1.87-4.16-1.3-5.88,1-1.47,1.92-3.64,3.83-5.94,2.41-5.09-3.13-8.55-2-11.48,2.9a3.07,3.07,0,0,1-3.54,1.34c-10.94-5.13-9.77,3.61-11.14,9.57-6.68,29.05-10,58.46-8.31,88.26,2.57,45.17,9.06,89.5,30.43,130.34,9.76,18.66,10.89,18.74,22.93,1.53,2.67-3.82,5.57-11.32,10.65-7.75,4.79,3.38-1.09,9-3.67,12.8-32.62,48.33-59,99.77-77.3,155.2a335.53,335.53,0,0,0-17.14,96.07,108.51,108.51,0,0,0,2.62,24.8c4.38,21.54,22.17,38,44.33,42.22,7.5,1.44,15.84.13,22.85,5.31-3.72,5.23-8.74,4-13.16,4.07-5.56.13-10.59,1.1-14.44,5.49A161.39,161.39,0,0,0,155.36,939c5.35-2.51,6.92-7.94,9.65-12.49,1.36-2.27,3-5.29,6-4.27,3.76,1.29,2.42,4.91,1.86,7.76-.94,4.71-4.06,9-3.58,15.33,5.41-5,6.81-10.93,9.45-16.1,1.35-2.65,3.16-6.17,6.5-4.86s2.08,5.08,1.31,8c-1.28,4.78-4.25,9-4.7,15.92,25.62-28.78,49.65-57,77.62-81.45-.05-.63-.48-.6-1.37-.49-4.06.53-10.2,3.87-11.56-.9-1.65-5.78,5.4-6.52,9.59-7.61,26.85-7,54.36-9.62,81.86-12.57,23.29-2.5,46.58-2,69.88-1.83,24.37.19,48.54,2.78,72.18,9,4.68,1.23,9,2.21,13.25-1.2,1.21-1,2.87-2.1,4.51-.76s1.61,3.5,1.11,5.5a29.87,29.87,0,0,1-3,6.32c-2,3.84-4,7.79-4.56,12.1-1,7.25-2.7,15,4.86,20,7.11,4.68,13.6.84,19.46-3,23.17-15.22,44.22-33.2,65.55-50.81,23.11-19.09,46.28-38.13,68-58.83,3.33-3.17,6.59-6.44,8.19-11.07-6.11,4.47-11.14,10.09-16.57,15.27a25.81,25.81,0,0,1-4.54,3.9c-2.75,1.6-6,4.71-8.7,1.11-2.07-2.76.64-5.72,2.83-7.75,6.54-6.07,14.2-11.06,19.06-20.44-9.19,2-15.58,6.67-21.7,12.1-3.33,2.95-8.06,8.45-11.6,4.39-4-4.61,3.06-7.51,6-10.58,6-6.17,12.68-11.65,17.23-19.33-20.6,12-40.69,24.33-58.4,40.13-2.58,2.3-6.07,5.94-9.31,1.88-2.54-3.19.84-6.14,3.29-8.37,6.93-6.29,14.78-11.38,22.25-17,6.06-4.54,13.52-8.31,10.93-18.11-2.92-11-8.78-19.36-20.53-22.24-3.92-.95-8-.58-11.93-1.1-2.62-.34-5.58-.61-6.45-3.73-.81-2.93,1.67-4.11,3.65-5.24,4.26-2.45,4-6.54,4.09-10.55.12-11-.2-22,.19-33,.11-2.88-.2-6.91,3.28-7.59s3.4,3.38,4.24,5.65c2,5.33,6.15,4,10.07,3.66,34.42-3.14,67.44-12.34,100-23.51,11-3.78,21.81-8.26,32.68-12.5,4.56-1.78,6.94-4.36,7.56-9.32a105.85,105.85,0,0,0,.87-16.81c-.17-4.92-.7-10.39-7.35-12.8-34.83-12.63-70-23.87-106.65-30-10.75-1.81-19.46.62-28.11,6.53-4,2.77-10.51,8.56-13.66,3.53-3.59-5.74,4.79-8,9-10.51a195.21,195.21,0,0,0,24.32-17.57c-26.71.29-45.21-13.85-48-36.48-2.48-20.21,11.21-39.77,31.1-44,19-4,41.93,3.81,49.93,32.38A55.66,55.66,0,0,0,651,479.1c-1.06-30.12,2-59.79,7.16-89.46,3.22-18.56,1.27-37.26-6.95-54.76a25.07,25.07,0,0,1-2.13-5.59c-.32-1.63-.69-3.47.81-4.64,2-1.59,3.82-.11,5.26,1.15,4.47,3.94,5.65,9.69,7.81,14.88a31.27,31.27,0,0,1,2.45,8.64c.86,8.15,5.52,9.45,12.6,8,17-3.48,33.49-8.89,49.94-14.31,15.51-5.11,30.59-11.41,45.79-17.38,3.89-1.53,7.77-4.29,12.34-1.89A2.1,2.1,0,0,1,786,326.52Z"/><path d="M320.09,153.65l-1.9,2.34c-4.37-12.34-6.2-25.26-7.55-38.12-2.94-28.18-5.06-56.45-.81-84.71,1.28-8.55,3-17,4.78-25.51.67-3.17,1.4-6.79,5.51-7.53C324-.58,326.4,2,328.44,4.61c10.95,14.26,21.39,28.87,29.76,44.85.67,1.66.07,3-.92,4.35C341.82,72.26,337,95.28,329.87,117.33,326,129.29,325.86,142.22,320.09,153.65Z"/><path class="cls-2" d="M786,326.52l-.21-2.53c-.69-3.24,1.87-4.73,3.67-6.49,13-12.68,21.55-28.29,28.67-44.69,5-11.6,3.22-14-9.16-14-3.29,0-6.59.17-9.9,0-2.93-.65-6.79.15-7.12-4.55a373.23,373.23,0,0,1,84.57,1.94,64.73,64.73,0,0,1,7.78,1.62c9,2.38,9.63,5.06,2.77,11.71s-14.86,12.27-23,17.44c-23.34,14.82-48,27.17-73.29,38.17A38.27,38.27,0,0,1,786,326.52Z"/><path class="cls-3" d="M792,254.25c2.25,2.44,5.54,1,8.13,2.15-1.62,5.19-6.16,4.38-9.9,4.44-53.7.89-106,9.74-156.73,27.48-8.94,3.12-15.35-.24-22-5.34a276.43,276.43,0,0,0-87.33-45.36c-32.64-10.18-65.87-16.19-100.28-12.62-2.65.27-5.3.65-8,.68s-5.84.32-6.46-3.12,2.61-4.11,5-5.08c11-4.37,11.12-4.4,7.56-16.16-14.18-46.82-35.4-90.47-59.78-132.71-2.91-5.06-7.64-9.51-6.75-16.2.89-1,1.79-2,2.68-2.95a690.77,690.77,0,0,1,45.57,85.08c11.12,24.55,21,49.59,27.73,75.72,1.44,5.58,3.82,7.25,9.51,7.31,66.52.66,125.65,22.52,178,63.17,4.62,3.59,8.07,2.85,12.64,1.2,50.86-18.26,103.67-25.72,157.38-28A18.8,18.8,0,0,1,792,254.25Z"/><path class="cls-4" d="M355.52,52.41c31.86,51.4,57.85,105.42,73.74,163.78-3.22,2.92-6.85,1.74-9.95,2.73-2.95,1-6.05,1.42-9,2.08.48,2.74,1.94,2.61,3.16,2.41,43-6.83,84.09,1.49,124.3,15.88a264.38,264.38,0,0,1,78.79,44.35c5.17,4.24,9.37,4.59,15.28,2.38,39.52-14.84,80.68-22,122.51-26.34,15.22-1.57,30.55-1.11,45.7-3.28,6.31,1,12.62.09,18.93,0,4.56-.1,6.08,2.11,5.25,6.18a51.22,51.22,0,0,1-2.71,9.56,178.07,178.07,0,0,1-26,43.58,38.25,38.25,0,0,1-9.8,8.32c-12.67,4.94-25.31,10-38,14.8-24.29,9.18-48.85,17.49-74.49,22.15-8.11,1.47-8,1.44-9.6-6.51-2.13-10.74-4.95-21.23-12-30-1.37.87-1.7,1.88-1.2,2.71,12,19.93,12.65,41.73,10.27,63.89-1.28,11.9-3.28,23.74-5.34,35.54-1.78,10.25-1.88,20.52-1.59,30.87.34,12.63,1.25,25.33-1.93,37.78-1.29,5.07-2.06,10.37-6.65,16.3-1.91-16.9-8.4-29.63-23.45-36.2a38.21,38.21,0,0,0-28.26-1.3c-18.11,6-29.17,25.27-24.88,43.59a38,38,0,0,0,20.17,26c10.26,5.39,21,5.8,33.73,1.28-6.83,9.1-14.35,14-21.65,19-6.94,4.81-14.22,9.15-20.85,14.58,7.4-1.58,13.7-5.49,19.6-9.72,5.34-3.84,10.4-4.23,16.79-3.41,38.26,4.93,74.44,17.29,110.56,30,4,1.43,8.37,2.16,12.29,4.63,1.19,3-3.26,4.64-2.35,6.87s3.39,3.88,5.14,5.74c-5.36,6.93-5.36,6.93,0,13.4-4.52,1.86-9.29,4-2.55,9.45C710.67,648,682,658.54,652.24,666c-20,5-40.15,9.43-60.81,11-8.61.66-8.58,1-9.41-7.59-.12-1.28.09-2.7-1.86-3.42-2,3.3-1.08,7-1,10.41.19,11,.74,22,1,33,.2,7.45.1,7.44-7.31,9.13-1,.21-1.87.66-2,2.79,3.47,1.22,7.3.43,11,.55,17,.55,31.41,16.37,30.54,33.27-.18,3.65-2.5,5.18-4.9,6.94-8.34,6.09-16.74,12.1-25,18.31-4.08,3.07-8.18,6.24-10.09,11.57,21.88-18.13,45.11-34,71-46-5.17,14-17.15,22-26.74,32.31,5.15-.24,8.1-4,11.35-7.12a44.17,44.17,0,0,1,13.27-8.77c4.41-1.9,8.52-5.3,14.53-3.84-6.13,13.54-18.39,21.06-28.24,31.62,3.15,1.61,4.77-.12,6.29-1.41,7.1-6,14.06-12.27,19.86-19.64,2.29-2.91,4.55-5.82,10-4.33a34.42,34.42,0,0,1-10.68,17.23C642,792.07,631,802.2,619.62,812c-25.7,22.24-52.09,43.65-78.66,64.85A227.85,227.85,0,0,1,514.8,895.2c-6.85,4-14.53,6.69-21.57,1.51s-6.86-13.19-5.39-21c1.12-6,3.83-11.31,6.75-16.56,1.24-2.24,3.76-3.9,3.33-6.83-.46-.93-1.19-1.23-1.56-.62-4,6.66-9.2,6.39-15.89,3.93-13.52-5-27.87-6.16-42.12-7.5-38.61-3.63-77.13-2.46-115.68,1.54-23.89,2.48-47.54,5.86-70.72,12.21-2.19.6-4.76.49-5.81,3.68,7.17,1.11,13.33-3.82,21.77-3.3-11,10.59-21.32,20.18-31.22,30.18s-19.41,20.17-28.82,30.52-18.64,21.16-29.14,33.13c-2.42-12.7,5.83-20.57,7.2-31.87-8.64,8.57-8.56,21.42-19.36,27.51-2.1-5.93-.33-10.52,1.2-15.1s3.16-9.16,3.68-14.3c-5.87,8.23-8.44,18.79-18.34,23.65-3.12-1.69-2.56-4.27-1.72-6.86,7.89-24.45,20.79-46,37.57-65.35,3-3.44,6.83-3.69,10.93-3.49,5.13.25,10.35,1.56,16.44-1.15-6.36-2.43-12.1-1.35-17.57-2.1-33.41-4.56-53.6-25.73-54.44-63.87-.89-39.82,7.44-78,20.71-115.28,18.42-51.72,43.8-99.92,74.54-145.35,2-3,4.62-5.65,5.94-10.45-6.6,2.77-8.29,8.77-11.65,13.06-3.66,4.66-6.67,9.83-10.41,15.45-6.18-5.85-10.07-12.3-13.81-18.85C195.74,517.34,189,490.65,184,463.36a403.39,403.39,0,0,1-5.75-91.53c1-22.36,6.63-44,11.05-65.85a8,8,0,0,1,1.4-2.3c4.51-.05,6.33,5.14,10.75,5,3.46-2.61,1.92-7.77,5.33-10.5,4.25,1.33,5.89,6.17,10.14,7.81,3.62-2.86,2.9-8,5.88-11.31,4.6.81,4,6.6,8.07,8.53,4.14-2.61,4.66-8.31,8.51-11.3,1.68-.31,2.35.78,2.89,2,9.35,21.7,18.61,43.42,28.09,65.05,2.39,5.44,3.47,10.22-.05,15.86-3.9,6.27-5.11,13.78-5.91,21-3.6,32.32,2.06,63,17.57,91.7a2.73,2.73,0,0,0,2.54,1.79c2.41-1.55.23-3.28-.5-4.65-10.44-19.74-15.9-40.86-17.39-63a113.3,113.3,0,0,1,3.73-37.6,45.92,45.92,0,0,1,8.49-16.83c8.33-10.4,16.16-21.18,25.86-30.44,6.55-6.26,11.19-14,15.72-21.81,6.87-11.8,14.16-23.37,20.64-35.38a95.23,95.23,0,0,1,39-39c2.31-1.28,5.91-1.57,6.54-7.1-12.5,6.77-23.41,13.81-33.1,22.29-3.26-1.69-3.31-4.59-4.24-7-11.48-29.52-20-59.93-27.26-90.73-.37-1.6-.42-3.32-1.86-4.47-.32-8,1.7-15.74,3.61-23.41,5.53-22.14,11.57-44.13,21.94-64.61C348.14,60.7,350.07,55.19,355.52,52.41Z"/><path class="cls-4" d="M127.41,606.21c1.5-2.18,4.05-2.66,1.27-7.25-8.29-13.73-18.51-25.9-28.29-38.41C87.46,544,73.89,528,60.67,511.73c-2.27-2.79-5.12-5.21-6.58-9.44,28.46-15.64,58.37-28.27,88.55-40.79-2-5.28-5.53-8.38-8.67-11.73C99.35,412.7,61.49,379.14,22.45,346.84c-4.36-3.6-8.48-7.61-13.21-10.63C3.29,332.41,3.31,328,5,321.78q14-52,27.24-104.23c6.46-25.43,12.45-51,18.66-76.51,3.33-.75,4.69,2,6.49,3.75,47,45.18,89.67,93.9,123.06,150.26,3.58,6.05,5.46,11.35,3.7,18.61a338.36,338.36,0,0,0-8.44,113c2.71,28.16,6.77,56.13,16.16,83,2.45,7,2.3,7.11-4.85,9.26-12.42,3.72-24.89,7.29-37.25,11.19-5.68,1.79-11.16,4.21-16.86,6.4.85,5.1,4.63,7.63,7.44,10.71a687,687,0,0,1,44.74,53.71c1.59,2.14,3.08,4.34,4.56,6.55,1.35,2,1.11,3.71-1.19,4.86-5.95,3-11.64,6.94-17.94,8.57-3.54.91-8.16-1-12.37-.55-5.43,1.5-12.48,9.7-14.35-3.48C135.47,617.71,131.86,611.3,127.41,606.21Z"/><path class="cls-5" d="M606.46,475.79a34.58,34.58,0,0,1,34.77,34.79c-.23,19-15.26,33.8-34.53,33.92-20.83.13-35.49-14.29-35.36-34.76C571.48,489.79,586,475.76,606.46,475.79Z"/><path class="cls-6" d="M195.25,608.79c-9.48-13.36-18.27-25.07-27.81-36.17s-19.18-22.08-29.13-33.52c6.78-4.47,14.27-6,21.33-8.38,9.44-3.18,19.14-5.56,28.71-8.36,4.51-1.31,7.64-1.53,9.91,4.21a122.22,122.22,0,0,0,19.47,33.53c1.81,2.17,3,4.13,1.28,7.1C211.19,580.68,203.53,594.26,195.25,608.79Z"/><path class="cls-7" d="M127.41,606.21c3,2.86,6.22-2.3,9.36.6.76,2.54-3.33,3.89-2.1,6.86,4.57,1.49,9-.92,13.63-1.08,1.48,3.81-3.43,5.35-2.91,8.78,4.3.57,8.4-2,12.74-1,1,1.94,3.68,1.25,5,2.66-.73,4-4.18,4.25-6.6,5.59-10.29,5.68-9.94,3.74-3,14,3.71,5.51,7.61,10.89,11.55,16.24,2.75,3.73,4,7.86,2.51,12.21-4.24,12.52-8.76,24.94-13.45,38.17-8.66-3.67-15.81-8.67-23.86-13.68,5.75-4.3,11.81-6,17.41-8.62,7-3.27,7.27-4.19,1.93-9.68-13.45-13.82-27-27.49-40.6-41.2-6-6.11-12.14-12.17-18.64-18.68a107,107,0,0,1,26.68-12.51C120.64,603.8,124.25,603.44,127.41,606.21Z"/><path class="cls-8" d="M190.71,617.89c-6.32,13.7-12.65,27.4-19.36,41.93-7.23-7.74-12.06-16.19-18.08-24.43,5.5-4.79,12-7.22,18-10.28,5.88-3,11.95-5.57,17.93-8.34Z"/><path class="cls-2" d="M553.85,415.31c0-18.59,14.63-33.24,33-32.91,17.64.31,32.64,15.41,32.54,32.76a32.77,32.77,0,0,1-32.76,32.27C568.51,447.42,553.89,433.08,553.85,415.31Z"/><path class="cls-9" d="M417.79,342.8c.09,18.77-14.06,32.85-32.88,32.73-17.6-.12-32.62-15.12-32.59-32.55s15-32.16,32.8-32.23A32.3,32.3,0,0,1,417.79,342.8Z"/><path class="cls-10" d="M402.25,438.7c2.57-.64,3.34,0,3.92.79,7.95,11.34,19.09,13.21,31.83,11.18a106,106,0,0,0,20.18-5.44c3.3-1.22,5.64-1.45,7.42,2.06C474.38,464.64,489,473,508,474.53c.49,0,.92.8,1.92,1.73-1.79,2.66-4.66,2.08-6.78,1.55-5.41-1.35-8.47,1-11.57,5.16a178.45,178.45,0,0,1-31.24,32.16,64.07,64.07,0,0,1-9,6.32c-11.59,6.41-21.68.11-24.44-9.78a182.4,182.4,0,0,1-6.58-47.28c-.07-6.43-.49-11.4-7.72-14C407.68,448.6,404.17,444.38,402.25,438.7Z"/><path class="cls-11" d="M274,404.49c.22-20.83,17.56-37.38,39-37.19,21,.19,38.27,17.5,38.2,38.23s-17.49,37.82-38.59,37.88A38.7,38.7,0,0,1,274,404.49Z"/><path class="cls-12" d="M476.38,424.23c-5.22,0-15.81-8.89-16-12.77-.1-2.15,1.68-3,3.27-2.8,8.18.91,16.46,1.73,23.58,6.45,3.62,2.4,3.54,5-.27,6.37A103.34,103.34,0,0,1,476.38,424.23Z"/><path class="cls-13" d="M244.3,332.65c-6.39-1.61-9.55-5.87-12-10.83a2.57,2.57,0,0,1,1.81-3.85c4.66-1.32,9.38-3.09,14,.36-1.21,3.09-3.49,1.69-5.16,2a41.79,41.79,0,0,1-4.7.47C237.12,326.43,244.1,327,244.3,332.65Z"/><path class="cls-14" d="M586.75,387.75a9.1,9.1,0,0,1,9.57,9.13,9.31,9.31,0,0,1-9.52,9.27,8.87,8.87,0,0,1-9-8.65A9.16,9.16,0,0,1,586.75,387.75Z"/><path class="cls-15" d="M404,325.9a8.83,8.83,0,0,1-9.58,9,9,9,0,0,1-8.9-8.84,9.25,9.25,0,1,1,18.48-.2Z"/><path class="cls-16" d="M424.39,478.09c-1.22-5.46,1.54-8,6.31-9.51,15.87-5.07,37.43,2.1,47.28,15.59,2.83,3.88,3.22,6.84-.62,10.19-8.24,7.21-16,15.05-24.54,21.84-10.09,8-19,5-22.86-6.94C426.69,499.1,425.6,488.53,424.39,478.09Z"/><path class="cls-17" d="M492.1,475.44c-2.7,4.15-4.19,7.79-8.11,10.23-4.7-4.44-8.23-9.82-13.57-13.21-12-7.64-24.89-10.75-39-7.39-2.64.63-6.14,2.81-7.25-2-1-4.14.25-7.34,5.05-7.78a147.22,147.22,0,0,0,29.21-5.76c2.32-.7,4-.21,5,1.82C469.37,463,479.61,469.58,492.1,475.44Z"/><path class="cls-5" d="M312.29,439.93a34.65,34.65,0,0,1,.06-69.29c19.36.1,35.27,15.83,35.17,34.75A34.8,34.8,0,0,1,312.29,439.93Z"/></g></g></svg>